STARTFONT 2.3
FONT -FontForge-Lobster-Book-R-Normal--8-80-72-72-P-46-ISO10646-1
SIZE 8 72 72  2
FONTBOUNDINGBOX 16 13 -4 -4
COMMENT "Generated by fontforge, http://fontforge.sourceforge.net"
COMMENT "Copyright 2010 The Lobster Project Authors (https://github.com/impallari/The-Lobster-Font), with Reserved Font Name "Lobster"."
STARTPROPERTIES 41
FOUNDRY "FontForge"
FAMILY_NAME "Lobster"
WEIGHT_NAME "Book"
SLANT "R"
SETWIDTH_NAME "Normal"
ADD_STYLE_NAME ""
PIXEL_SIZE 8
POINT_SIZE 80
RESOLUTION_X 72
RESOLUTION_Y 72
SPACING "P"
AVERAGE_WIDTH 46
CHARSET_REGISTRY "ISO10646"
CHARSET_ENCODING "1"
FONTNAME_REGISTRY ""
CHARSET_COLLECTIONS "ISO8859-2 ISO8859-5 ISO8859-9 ISO8859-4 ISO10646-1"
BITS_PER_PIXEL 2
FONT_NAME "Lobster-Regular"
FACE_NAME "Lobster Regular"
COPYRIGHT "Copyright 2010 The Lobster Project Authors (https://github.com/impallari/The-Lobster-Font), with Reserved Font Name "Lobster"."
FONT_VERSION "2.100"
FONT_ASCENT 6
FONT_DESCENT 2
UNDERLINE_POSITION -1
UNDERLINE_THICKNESS 1
X_HEIGHT 3
CAP_HEIGHT 5
DEFAULT_CHAR 1
RAW_ASCENT 800
RAW_DESCENT 200
NORM_SPACE 2
RELATIVE_WEIGHT 40
RELATIVE_SETWIDTH 50
SUPERSCRIPT_X 0
SUPERSCRIPT_Y 2
SUPERSCRIPT_SIZE 4
SUBSCRIPT_X 0
SUBSCRIPT_Y 0
SUBSCRIPT_SIZE 4
AVG_LOWERCASE_WIDTH 36
AVG_UPPERCASE_WIDTH 49
ENDPROPERTIES
CHARS 1148
STARTCHAR NULL.dup1
ENCODING 0
SWIDTH 600 0
DWIDTH 5 0
BBX 1 1 0 0
BITMAP
00
ENDCHAR
STARTCHAR nonmarkingreturn
ENCODING 13
SWIDTH 600 0
DWIDTH 5 0
BBX 1 1 0 0
BITMAP
00
ENDCHAR
STARTCHAR space
ENCODING 32
SWIDTH 217 0
DWIDTH 2 0
BBX 1 1 0 0
BITMAP
00
ENDCHAR
STARTCHAR exclam
ENCODING 33
SWIDTH 257 0
DWIDTH 2 0
BBX 3 6 0 0
BITMAP
24
34
30
20
00
90
ENDCHAR
STARTCHAR quotedbl
ENCODING 34
SWIDTH 353 0
DWIDTH 3 0
BBX 3 2 0 4
BITMAP
28
58
ENDCHAR
STARTCHAR numbersign
ENCODING 35
SWIDTH 659 0
DWIDTH 5 0
BBX 5 6 0 0
BITMAP
0400
0600
2B40
6A40
2500
1400
ENDCHAR
STARTCHAR dollar
ENCODING 36
SWIDTH 548 0
DWIDTH 4 0
BBX 4 8 0 -1
BITMAP
01
1A
39
1C
5E
96
69
10
ENDCHAR
STARTCHAR percent
ENCODING 37
SWIDTH 796 0
DWIDTH 6 0
BBX 7 6 0 0
BITMAP
2880
5840
9A00
55A0
08A4
14A0
ENDCHAR
STARTCHAR ampersand
ENCODING 38
SWIDTH 682 0
DWIDTH 5 0
BBX 5 6 0 0
BITMAP
1A00
2600
2840
6780
E100
7900
ENDCHAR
STARTCHAR quotesingle
ENCODING 39
SWIDTH 196 0
DWIDTH 2 0
BBX 2 2 0 4
BITMAP
20
50
ENDCHAR
STARTCHAR parenleft
ENCODING 40
SWIDTH 437 0
DWIDTH 4 0
BBX 3 8 1 -2
BITMAP
08
20
60
90
80
80
50
10
ENDCHAR
STARTCHAR parenright
ENCODING 41
SWIDTH 413 0
DWIDTH 3 0
BBX 4 8 -1 -2
BITMAP
08
09
05
05
09
0C
14
50
ENDCHAR
STARTCHAR asterisk
ENCODING 42
SWIDTH 515 0
DWIDTH 4 0
BBX 3 3 1 3
BITMAP
B4
A0
50
ENDCHAR
STARTCHAR plus
ENCODING 43
SWIDTH 442 0
DWIDTH 4 0
BBX 3 3 0 1
BITMAP
14
B8
20
ENDCHAR
STARTCHAR comma
ENCODING 44
SWIDTH 216 0
DWIDTH 2 0
BBX 2 2 0 -1
BITMAP
90
40
ENDCHAR
STARTCHAR hyphen
ENCODING 45
SWIDTH 290 0
DWIDTH 2 0
BBX 2 1 0 2
BITMAP
60
ENDCHAR
STARTCHAR period
ENCODING 46
SWIDTH 263 0
DWIDTH 2 0
BBX 2 1 0 0
BITMAP
90
ENDCHAR
STARTCHAR slash
ENCODING 47
SWIDTH 311 0
DWIDTH 2 0
BBX 3 8 0 -2
BITMAP
14
20
20
20
50
50
80
80
ENDCHAR
STARTCHAR zero
ENCODING 48
SWIDTH 546 0
DWIDTH 4 0
BBX 5 6 0 0
BITMAP
1A00
7240
A240
9340
9600
6800
ENDCHAR
STARTCHAR one
ENCODING 49
SWIDTH 317 0
DWIDTH 3 0
BBX 3 6 0 0
BITMAP
64
34
30
60
A0
90
ENDCHAR
STARTCHAR two
ENCODING 50
SWIDTH 492 0
DWIDTH 4 0
BBX 4 6 0 0
BITMAP
29
56
09
24
90
AD
ENDCHAR
STARTCHAR three
ENCODING 51
SWIDTH 514 0
DWIDTH 4 0
BBX 4 6 0 0
BITMAP
2A
27
0D
56
C6
A8
ENDCHAR
STARTCHAR four
ENCODING 52
SWIDTH 476 0
DWIDTH 4 0
BBX 4 6 0 0
BITMAP
18
19
25
AA
1C
18
ENDCHAR
STARTCHAR five
ENCODING 53
SWIDTH 517 0
DWIDTH 4 0
BBX 4 6 0 0
BITMAP
2E
20
69
06
96
A8
ENDCHAR
STARTCHAR six
ENCODING 54
SWIDTH 500 0
DWIDTH 4 0
BBX 4 6 0 0
BITMAP
1A
71
A9
D6
96
68
ENDCHAR
STARTCHAR seven
ENCODING 55
SWIDTH 464 0
DWIDTH 4 0
BBX 4 6 0 0
BITMAP
7F
05
08
24
70
60
ENDCHAR
STARTCHAR eight
ENCODING 56
SWIDTH 499 0
DWIDTH 4 0
BBX 4 6 0 0
BITMAP
26
33
2D
AA
C6
69
ENDCHAR
STARTCHAR nine
ENCODING 57
SWIDTH 489 0
DWIDTH 4 0
BBX 4 6 0 0
BITMAP
29
97
97
6A
49
A8
ENDCHAR
STARTCHAR colon
ENCODING 58
SWIDTH 267 0
DWIDTH 2 0
BBX 2 3 0 1
BITMAP
30
00
90
ENDCHAR
STARTCHAR semicolon
ENCODING 59
SWIDTH 276 0
DWIDTH 2 0
BBX 2 4 0 -1
BITMAP
30
10
50
40
ENDCHAR
STARTCHAR less
ENCODING 60
SWIDTH 358 0
DWIDTH 3 0
BBX 3 3 0 1
BITMAP
04
64
60
ENDCHAR
STARTCHAR equal
ENCODING 61
SWIDTH 515 0
DWIDTH 4 0
BBX 4 3 0 1
BITMAP
7E
00
BD
ENDCHAR
STARTCHAR greater
ENCODING 62
SWIDTH 362 0
DWIDTH 3 0
BBX 3 3 0 1
BITMAP
40
24
60
ENDCHAR
STARTCHAR question
ENCODING 63
SWIDTH 441 0
DWIDTH 4 0
BBX 4 6 0 0
BITMAP
69
59
14
20
00
50
ENDCHAR
STARTCHAR at
ENCODING 64
SWIDTH 688 0
DWIDTH 6 0
BBX 5 6 0 -1
BITMAP
1A40
6A80
9680
A680
9640
6900
ENDCHAR
STARTCHAR A
ENCODING 65
SWIDTH 668 0
DWIDTH 5 0
BBX 6 7 0 -1
BITMAP
0190
05D0
69C0
A580
3280
6240
6000
ENDCHAR
STARTCHAR B
ENCODING 66
SWIDTH 641 0
DWIDTH 5 0
BBX 5 6 0 0
BITMAP
2A40
9D80
5A40
2580
3580
3B40
ENDCHAR
STARTCHAR C
ENCODING 67
SWIDTH 497 0
DWIDTH 4 0
BBX 4 6 0 0
BITMAP
1A
71
A0
A0
A0
79
ENDCHAR
STARTCHAR D
ENCODING 68
SWIDTH 663 0
DWIDTH 5 0
BBX 5 6 0 0
BITMAP
2A40
9CC0
58C0
25C0
3680
3A00
ENDCHAR
STARTCHAR E
ENCODING 69
SWIDTH 459 0
DWIDTH 4 0
BBX 4 6 0 0
BITMAP
1A
31
24
A0
E1
B8
ENDCHAR
STARTCHAR F
ENCODING 70
SWIDTH 459 0
DWIDTH 4 0
BBX 5 6 0 0
BITMAP
6E80
9800
6900
2400
3000
7000
ENDCHAR
STARTCHAR G
ENCODING 71
SWIDTH 578 0
DWIDTH 5 0
BBX 5 8 0 -2
BITMAP
2A40
6140
9100
9300
6B00
2600
5900
1400
ENDCHAR
STARTCHAR H
ENCODING 72
SWIDTH 665 0
DWIDTH 5 0
BBX 6 6 0 0
BITMAP
1C90
9CD0
5EC0
2580
3680
3240
ENDCHAR
STARTCHAR I
ENCODING 73
SWIDTH 375 0
DWIDTH 3 0
BBX 3 6 0 0
BITMAP
2C
9C
A8
24
34
30
ENDCHAR
STARTCHAR J
ENCODING 74
SWIDTH 536 0
DWIDTH 4 0
BBX 5 8 0 -2
BITMAP
0680
1640
1700
0700
0600
5900
8C00
5400
ENDCHAR
STARTCHAR K
ENCODING 75
SWIDTH 601 0
DWIDTH 5 0
BBX 5 6 0 0
BITMAP
2C80
9E00
6E00
2640
3700
3300
ENDCHAR
STARTCHAR L
ENCODING 76
SWIDTH 379 0
DWIDTH 3 0
BBX 5 8 0 -2
BITMAP
2C00
9C00
6800
2400
3400
7000
1900
02C0
ENDCHAR
STARTCHAR M
ENCODING 77
SWIDTH 787 0
DWIDTH 6 0
BBX 7 6 0 0
BITMAP
1A34
5A74
5EB0
2AB0
2B60
5A60
ENDCHAR
STARTCHAR N
ENCODING 78
SWIDTH 668 0
DWIDTH 5 0
BBX 6 6 0 0
BITMAP
2D20
9D50
AA90
2780
2380
2280
ENDCHAR
STARTCHAR O
ENCODING 79
SWIDTH 665 0
DWIDTH 5 0
BBX 6 6 0 0
BITMAP
1A80
98D0
A4D0
34C0
3280
2A00
ENDCHAR
STARTCHAR P
ENCODING 80
SWIDTH 573 0
DWIDTH 5 0
BBX 5 6 0 0
BITMAP
1A40
9D80
9940
2900
3400
3000
ENDCHAR
STARTCHAR Q
ENCODING 81
SWIDTH 665 0
DWIDTH 5 0
BBX 6 7 0 -1
BITMAP
1A80
98D0
64D0
31C0
3680
2B00
0280
ENDCHAR
STARTCHAR R
ENCODING 82
SWIDTH 601 0
DWIDTH 5 0
BBX 5 6 0 0
BITMAP
1A40
9D80
6B00
2640
3700
3300
ENDCHAR
STARTCHAR S
ENCODING 83
SWIDTH 570 0
DWIDTH 5 0
BBX 5 6 0 0
BITMAP
1A40
2540
1D00
1B00
9300
6900
ENDCHAR
STARTCHAR T
ENCODING 84
SWIDTH 481 0
DWIDTH 4 0
BBX 6 6 0 0
BITMAP
6F90
8900
4C00
1C00
1800
2800
ENDCHAR
STARTCHAR U
ENCODING 85
SWIDTH 716 0
DWIDTH 6 0
BBX 6 6 0 0
BITMAP
1D30
8C60
98A0
2490
24C0
1E40
ENDCHAR
STARTCHAR V
ENCODING 86
SWIDTH 615 0
DWIDTH 5 0
BBX 6 6 0 0
BITMAP
1D50
8D40
8D40
0D40
0E00
0D00
ENDCHAR
STARTCHAR W
ENCODING 87
SWIDTH 962 0
DWIDTH 8 0
BBX 8 6 0 0
BITMAP
1D71
8DB2
8DB1
0D74
0E34
0D34
ENDCHAR
STARTCHAR X
ENCODING 88
SWIDTH 620 0
DWIDTH 5 0
BBX 5 6 0 0
BITMAP
1D80
8A40
8A00
0B00
0B00
1340
ENDCHAR
STARTCHAR Y
ENCODING 89
SWIDTH 620 0
DWIDTH 5 0
BBX 6 6 0 0
BITMAP
1D10
8A40
8A40
0700
0600
0A00
ENDCHAR
STARTCHAR Z
ENCODING 90
SWIDTH 542 0
DWIDTH 4 0
BBX 5 6 0 0
BITMAP
6B40
0A00
0D00
2800
3100
BA00
ENDCHAR
STARTCHAR bracketleft
ENCODING 91
SWIDTH 400 0
DWIDTH 3 0
BBX 3 8 0 -2
BITMAP
18
20
20
20
60
90
80
D0
ENDCHAR
STARTCHAR backslash
ENCODING 92
SWIDTH 362 0
DWIDTH 3 0
BBX 3 8 0 -2
BITMAP
80
50
10
20
20
10
14
04
ENDCHAR
STARTCHAR bracketright
ENCODING 93
SWIDTH 400 0
DWIDTH 3 0
BBX 4 8 -1 -2
BITMAP
06
06
05
09
08
08
18
64
ENDCHAR
STARTCHAR asciicircum
ENCODING 94
SWIDTH 421 0
DWIDTH 3 0
BBX 2 2 1 4
BITMAP
10
90
ENDCHAR
STARTCHAR underscore
ENCODING 95
SWIDTH 444 0
DWIDTH 4 0
BBX 3 1 0 0
BITMAP
68
ENDCHAR
STARTCHAR grave
ENCODING 96
SWIDTH 201 0
DWIDTH 2 0
BBX 2 2 0 4
BITMAP
80
50
ENDCHAR
STARTCHAR a
ENCODING 97
SWIDTH 526 0
DWIDTH 4 0
BBX 4 4 0 0
BITMAP
6A
9A
CD
EA
ENDCHAR
STARTCHAR b
ENCODING 98
SWIDTH 444 0
DWIDTH 4 0
BBX 4 6 0 0
BITMAP
10
60
A8
99
C8
A4
ENDCHAR
STARTCHAR c
ENCODING 99
SWIDTH 384 0
DWIDTH 3 0
BBX 3 4 0 0
BITMAP
68
90
C0
A4
ENDCHAR
STARTCHAR d
ENCODING 100
SWIDTH 525 0
DWIDTH 4 0
BBX 4 6 0 0
BITMAP
01
07
6A
9A
CD
EA
ENDCHAR
STARTCHAR e
ENCODING 101
SWIDTH 384 0
DWIDTH 3 0
BBX 3 4 0 0
BITMAP
68
98
D0
A4
ENDCHAR
STARTCHAR f
ENCODING 102
SWIDTH 267 0
DWIDTH 2 0
BBX 5 8 -2 -2
BITMAP
0280
0600
0A00
0900
0C00
1C00
6800
7400
ENDCHAR
STARTCHAR g
ENCODING 103
SWIDTH 507 0
DWIDTH 4 0
BBX 4 6 0 -2
BITMAP
6A
9A
CD
ED
6C
64
ENDCHAR
STARTCHAR h
ENCODING 104
SWIDTH 505 0
DWIDTH 4 0
BBX 5 6 -1 0
BITMAP
0400
1800
2F40
2640
3700
7280
ENDCHAR
STARTCHAR i
ENCODING 105
SWIDTH 267 0
DWIDTH 2 0
BBX 2 6 0 0
BITMAP
60
00
A0
90
D0
E0
ENDCHAR
STARTCHAR j
ENCODING 106
SWIDTH 240 0
DWIDTH 2 0
BBX 4 8 -2 -2
BITMAP
06
00
0A
09
0D
1D
68
64
ENDCHAR
STARTCHAR k
ENCODING 107
SWIDTH 518 0
DWIDTH 4 0
BBX 5 6 -1 0
BITMAP
0400
1800
2940
2F00
3740
7280
ENDCHAR
STARTCHAR l
ENCODING 108
SWIDTH 267 0
DWIDTH 2 0
BBX 2 6 0 0
BITMAP
20
60
A0
90
D0
E0
ENDCHAR
STARTCHAR m
ENCODING 109
SWIDTH 752 0
DWIDTH 6 0
BBX 7 4 -1 0
BITMAP
2FB4
2664
3730
7738
ENDCHAR
STARTCHAR n
ENCODING 110
SWIDTH 505 0
DWIDTH 4 0
BBX 5 4 -1 0
BITMAP
2F40
2640
3700
7280
ENDCHAR
STARTCHAR o
ENCODING 111
SWIDTH 439 0
DWIDTH 4 0
BBX 4 4 0 0
BITMAP
68
99
C8
A4
ENDCHAR
STARTCHAR p
ENCODING 112
SWIDTH 468 0
DWIDTH 4 0
BBX 5 7 -1 -2
BITMAP
1400
2A40
2640
3240
7A00
6000
9000
ENDCHAR
STARTCHAR q
ENCODING 113
SWIDTH 486 0
DWIDTH 4 0
BBX 4 6 0 -2
BITMAP
6A
9A
CD
EC
1C
18
ENDCHAR
STARTCHAR r
ENCODING 114
SWIDTH 376 0
DWIDTH 3 0
BBX 4 4 -1 0
BITMAP
2B
24
30
70
ENDCHAR
STARTCHAR s
ENCODING 115
SWIDTH 382 0
DWIDTH 3 0
BBX 3 4 0 0
BITMAP
34
64
A8
A4
ENDCHAR
STARTCHAR t
ENCODING 116
SWIDTH 267 0
DWIDTH 2 0
BBX 2 5 0 0
BITMAP
60
A0
90
D0
E0
ENDCHAR
STARTCHAR u
ENCODING 117
SWIDTH 505 0
DWIDTH 4 0
BBX 4 4 0 0
BITMAP
AA
99
DD
EE
ENDCHAR
STARTCHAR v
ENCODING 118
SWIDTH 414 0
DWIDTH 3 0
BBX 3 4 0 0
BITMAP
A8
94
D8
E4
ENDCHAR
STARTCHAR w
ENCODING 119
SWIDTH 661 0
DWIDTH 5 0
BBX 5 4 0 0
BITMAP
AA80
9940
DC80
EE00
ENDCHAR
STARTCHAR x
ENCODING 120
SWIDTH 522 0
DWIDTH 4 0
BBX 4 4 0 0
BITMAP
2A
5D
5C
5A
ENDCHAR
STARTCHAR y
ENCODING 121
SWIDTH 486 0
DWIDTH 4 0
BBX 4 6 0 -2
BITMAP
AA
99
DD
ED
68
64
ENDCHAR
STARTCHAR z
ENCODING 122
SWIDTH 428 0
DWIDTH 3 0
BBX 3 4 0 0
BITMAP
6C
28
30
A8
ENDCHAR
STARTCHAR braceleft
ENCODING 123
SWIDTH 352 0
DWIDTH 3 0
BBX 3 8 0 -2
BITMAP
18
24
20
20
60
60
50
60
ENDCHAR
STARTCHAR bar
ENCODING 124
SWIDTH 532 0
DWIDTH 4 0
BBX 2 8 1 -2
BITMAP
60
60
60
60
60
60
60
60
ENDCHAR
STARTCHAR braceright
ENCODING 125
SWIDTH 352 0
DWIDTH 3 0
BBX 4 8 -1 -2
BITMAP
08
09
08
08
08
14
24
60
ENDCHAR
STARTCHAR asciitilde
ENCODING 126
SWIDTH 431 0
DWIDTH 3 0
BBX 2 1 1 4
BITMAP
A0
ENDCHAR
STARTCHAR uni00A0
ENCODING 160
SWIDTH 217 0
DWIDTH 2 0
BBX 1 1 0 0
BITMAP
00
ENDCHAR
STARTCHAR exclamdown
ENCODING 161
SWIDTH 219 0
DWIDTH 2 0
BBX 3 6 -1 -2
BITMAP
18
04
24
30
30
60
ENDCHAR
STARTCHAR cent
ENCODING 162
SWIDTH 384 0
DWIDTH 3 0
BBX 4 6 0 0
BITMAP
04
69
A0
D0
64
10
ENDCHAR
STARTCHAR sterling
ENCODING 163
SWIDTH 455 0
DWIDTH 4 0
BBX 4 6 0 0
BITMAP
1A
25
74
30
60
BE
ENDCHAR
STARTCHAR currency
ENCODING 164
SWIDTH 500 0
DWIDTH 4 0
BBX 4 3 0 1
BITMAP
69
15
69
ENDCHAR
STARTCHAR yen
ENCODING 165
SWIDTH 558 0
DWIDTH 4 0
BBX 4 6 1 0
BITMAP
D1
A4
74
B4
B4
A0
ENDCHAR
STARTCHAR brokenbar
ENCODING 166
SWIDTH 532 0
DWIDTH 4 0
BBX 2 8 1 -2
BITMAP
60
60
60
10
50
60
60
60
ENDCHAR
STARTCHAR section
ENCODING 167
SWIDTH 542 0
DWIDTH 4 0
BBX 4 7 0 -1
BITMAP
0A
29
6D
37
5E
8C
54
ENDCHAR
STARTCHAR dieresis
ENCODING 168
SWIDTH 392 0
DWIDTH 3 0
BBX 3 1 0 5
BITMAP
54
ENDCHAR
STARTCHAR copyright
ENCODING 169
SWIDTH 587 0
DWIDTH 5 0
BBX 5 5 0 0
BITMAP
1500
5500
5140
5500
1500
ENDCHAR
STARTCHAR ordfeminine
ENCODING 170
SWIDTH 345 0
DWIDTH 3 0
BBX 3 3 0 3
BITMAP
64
94
10
ENDCHAR
STARTCHAR guillemotleft
ENCODING 171
SWIDTH 589 0
DWIDTH 5 0
BBX 4 2 0 1
BITMAP
59
55
ENDCHAR
STARTCHAR logicalnot
ENCODING 172
SWIDTH 444 0
DWIDTH 4 0
BBX 3 3 0 0
BITMAP
68
0C
04
ENDCHAR
STARTCHAR uni00AD
ENCODING 173
SWIDTH 290 0
DWIDTH 2 0
BBX 2 1 0 2
BITMAP
60
ENDCHAR
STARTCHAR registered
ENCODING 174
SWIDTH 553 0
DWIDTH 4 0
BBX 4 5 0 0
BITMAP
14
55
59
55
14
ENDCHAR
STARTCHAR macron
ENCODING 175
SWIDTH 446 0
DWIDTH 4 0
BBX 3 1 0 4
BITMAP
68
ENDCHAR
STARTCHAR degree
ENCODING 176
SWIDTH 314 0
DWIDTH 3 0
BBX 2 3 0 3
BITMAP
10
90
50
ENDCHAR
STARTCHAR plusminus
ENCODING 177
SWIDTH 479 0
DWIDTH 4 0
BBX 4 4 0 1
BITMAP
04
69
20
68
ENDCHAR
STARTCHAR uni00B2
ENCODING 178
SWIDTH 328 0
DWIDTH 3 0
BBX 2 4 1 2
BITMAP
90
40
40
40
ENDCHAR
STARTCHAR uni00B3
ENCODING 179
SWIDTH 336 0
DWIDTH 3 0
BBX 3 4 0 2
BITMAP
24
14
54
50
ENDCHAR
STARTCHAR acute
ENCODING 180
SWIDTH 316 0
DWIDTH 3 0
BBX 2 2 1 4
BITMAP
50
80
ENDCHAR
STARTCHAR uni00B5
ENCODING 181
SWIDTH 505 0
DWIDTH 4 0
BBX 5 5 -1 -1
BITMAP
2A80
2640
3740
7B80
6000
ENDCHAR
STARTCHAR paragraph
ENCODING 182
SWIDTH 542 0
DWIDTH 4 0
BBX 4 7 0 -1
BITMAP
2E
7E
7A
2A
19
28
14
ENDCHAR
STARTCHAR periodcentered
ENCODING 183
SWIDTH 434 0
DWIDTH 3 0
BBX 2 2 1 1
BITMAP
40
D0
ENDCHAR
STARTCHAR cedilla
ENCODING 184
SWIDTH 227 0
DWIDTH 2 0
BBX 2 2 0 -2
BITMAP
50
50
ENDCHAR
STARTCHAR uni00B9
ENCODING 185
SWIDTH 229 0
DWIDTH 2 0
BBX 2 3 0 3
BITMAP
60
50
40
ENDCHAR
STARTCHAR ordmasculine
ENCODING 186
SWIDTH 329 0
DWIDTH 3 0
BBX 3 3 0 3
BITMAP
64
90
10
ENDCHAR
STARTCHAR guillemotright
ENCODING 187
SWIDTH 586 0
DWIDTH 5 0
BBX 4 2 0 1
BITMAP
15
59
ENDCHAR
STARTCHAR onequarter
ENCODING 188
SWIDTH 749 0
DWIDTH 6 0
BBX 6 6 0 0
BITMAP
6040
5200
4500
08A0
14A0
2050
ENDCHAR
STARTCHAR onehalf
ENCODING 189
SWIDTH 745 0
DWIDTH 6 0
BBX 6 6 0 0
BITMAP
6040
5200
4500
0860
1450
2090
ENDCHAR
STARTCHAR threequarters
ENCODING 190
SWIDTH 836 0
DWIDTH 7 0
BBX 7 6 0 0
BITMAP
2450
1480
5500
5564
0864
0420
ENDCHAR
STARTCHAR questiondown
ENCODING 191
SWIDTH 439 0
DWIDTH 4 0
BBX 3 6 0 -2
BITMAP
18
04
14
60
C8
94
ENDCHAR
STARTCHAR Agrave
ENCODING 192
SWIDTH 668 0
DWIDTH 5 0
BBX 6 9 0 -1
BITMAP
0080
0040
0190
05D0
69C0
A580
3280
6240
6000
ENDCHAR
STARTCHAR Aacute
ENCODING 193
SWIDTH 668 0
DWIDTH 5 0
BBX 6 9 0 -1
BITMAP
0020
0010
0190
05D0
69C0
A580
3280
6240
6000
ENDCHAR
STARTCHAR Acircumflex
ENCODING 194
SWIDTH 668 0
DWIDTH 5 0
BBX 6 9 0 -1
BITMAP
0060
0040
0190
05D0
69C0
A580
3280
6240
6000
ENDCHAR
STARTCHAR Atilde
ENCODING 195
SWIDTH 668 0
DWIDTH 5 0
BBX 6 9 0 -1
BITMAP
0050
0050
0190
05D0
69C0
A580
3280
6240
6000
ENDCHAR
STARTCHAR Adieresis
ENCODING 196
SWIDTH 668 0
DWIDTH 5 0
BBX 6 8 0 -1
BITMAP
0160
0190
05D0
69C0
A580
3280
6240
6000
ENDCHAR
STARTCHAR Aring
ENCODING 197
SWIDTH 668 0
DWIDTH 5 0
BBX 6 9 0 -1
BITMAP
0040
0040
0190
05D0
69C0
A580
3280
6240
6000
ENDCHAR
STARTCHAR AE
ENCODING 198
SWIDTH 764 0
DWIDTH 6 0
BBX 7 7 0 -1
BITMAP
01A8
05C0
69E0
6580
3280
62F0
6000
ENDCHAR
STARTCHAR Ccedilla
ENCODING 199
SWIDTH 497 0
DWIDTH 4 0
BBX 4 8 0 -2
BITMAP
1A
71
A0
A0
A5
79
04
14
ENDCHAR
STARTCHAR Egrave
ENCODING 200
SWIDTH 459 0
DWIDTH 4 0
BBX 4 8 0 0
BITMAP
08
04
1A
31
24
A0
E1
B8
ENDCHAR
STARTCHAR Eacute
ENCODING 201
SWIDTH 459 0
DWIDTH 4 0
BBX 4 8 0 0
BITMAP
02
01
1A
31
24
A0
E1
B8
ENDCHAR
STARTCHAR Ecircumflex
ENCODING 202
SWIDTH 459 0
DWIDTH 4 0
BBX 4 8 0 0
BITMAP
06
05
1A
31
24
A0
E1
B8
ENDCHAR
STARTCHAR Edieresis
ENCODING 203
SWIDTH 459 0
DWIDTH 4 0
BBX 5 8 0 0
BITMAP
0940
0000
1A00
3100
2400
A000
E100
B800
ENDCHAR
STARTCHAR Igrave
ENCODING 204
SWIDTH 375 0
DWIDTH 3 0
BBX 3 8 0 0
BITMAP
08
04
2C
9C
A8
24
34
30
ENDCHAR
STARTCHAR Iacute
ENCODING 205
SWIDTH 375 0
DWIDTH 3 0
BBX 4 8 0 0
BITMAP
06
04
2C
9C
A8
24
34
30
ENDCHAR
STARTCHAR Icircumflex
ENCODING 206
SWIDTH 375 0
DWIDTH 3 0
BBX 4 8 0 0
BITMAP
05
01
2C
9C
A8
24
34
30
ENDCHAR
STARTCHAR Idieresis
ENCODING 207
SWIDTH 375 0
DWIDTH 3 0
BBX 4 7 0 0
BITMAP
16
2C
9C
A8
24
34
30
ENDCHAR
STARTCHAR Eth
ENCODING 208
SWIDTH 663 0
DWIDTH 5 0
BBX 5 6 0 0
BITMAP
2A40
98C0
68C0
25C0
3680
3A00
ENDCHAR
STARTCHAR Ntilde
ENCODING 209
SWIDTH 686 0
DWIDTH 5 0
BBX 6 8 0 0
BITMAP
0140
0140
2D20
9D50
AA90
2780
2380
2280
ENDCHAR
STARTCHAR Ograve
ENCODING 210
SWIDTH 665 0
DWIDTH 5 0
BBX 6 8 0 0
BITMAP
0500
0100
1A80
98D0
A4D0
34C0
3280
2A00
ENDCHAR
STARTCHAR Oacute
ENCODING 211
SWIDTH 665 0
DWIDTH 5 0
BBX 6 8 0 0
BITMAP
0140
0100
1A80
98D0
A4D0
34C0
3280
2A00
ENDCHAR
STARTCHAR Ocircumflex
ENCODING 212
SWIDTH 665 0
DWIDTH 5 0
BBX 6 8 0 0
BITMAP
0240
0440
1A80
98D0
A4D0
34C0
3280
2A00
ENDCHAR
STARTCHAR Otilde
ENCODING 213
SWIDTH 665 0
DWIDTH 5 0
BBX 6 8 0 0
BITMAP
0100
0140
1A80
98D0
A4D0
34C0
3280
2A00
ENDCHAR
STARTCHAR Odieresis
ENCODING 214
SWIDTH 665 0
DWIDTH 5 0
BBX 6 8 0 0
BITMAP
0980
0000
1A80
98D0
A4D0
34C0
3280
2A00
ENDCHAR
STARTCHAR multiply
ENCODING 215
SWIDTH 414 0
DWIDTH 3 0
BBX 3 3 0 1
BITMAP
58
34
44
ENDCHAR
STARTCHAR Oslash
ENCODING 216
SWIDTH 658 0
DWIDTH 5 0
BBX 5 7 0 -1
BITMAP
1640
99C0
A5C0
3580
3640
2900
0400
ENDCHAR
STARTCHAR Ugrave
ENCODING 217
SWIDTH 716 0
DWIDTH 6 0
BBX 6 8 0 0
BITMAP
0200
0100
1D70
8C60
58A0
24D0
25C0
1E40
ENDCHAR
STARTCHAR Uacute
ENCODING 218
SWIDTH 716 0
DWIDTH 6 0
BBX 6 8 0 0
BITMAP
0080
0000
1D70
8C60
58A0
24D0
25C0
1E40
ENDCHAR
STARTCHAR Ucircumflex
ENCODING 219
SWIDTH 716 0
DWIDTH 6 0
BBX 6 8 0 0
BITMAP
0080
0100
1D70
8C60
58A0
24D0
25C0
1E40
ENDCHAR
STARTCHAR Udieresis
ENCODING 220
SWIDTH 716 0
DWIDTH 6 0
BBX 6 8 0 0
BITMAP
0250
0000
1D70
8C60
58A0
24D0
25C0
1E40
ENDCHAR
STARTCHAR Yacute
ENCODING 221
SWIDTH 620 0
DWIDTH 5 0
BBX 6 8 0 0
BITMAP
0090
0040
1D10
8A40
8A40
0700
0600
0A00
ENDCHAR
STARTCHAR Thorn
ENCODING 222
SWIDTH 583 0
DWIDTH 5 0
BBX 5 6 0 0
BITMAP
0400
1D00
A980
A540
3500
3000
ENDCHAR
STARTCHAR germandbls
ENCODING 223
SWIDTH 480 0
DWIDTH 4 0
BBX 5 8 -1 -2
BITMAP
0A40
1940
2A00
2640
3640
7600
6000
9000
ENDCHAR
STARTCHAR agrave
ENCODING 224
SWIDTH 526 0
DWIDTH 4 0
BBX 4 6 0 0
BITMAP
08
04
6A
9A
CD
EA
ENDCHAR
STARTCHAR aacute
ENCODING 225
SWIDTH 526 0
DWIDTH 4 0
BBX 4 6 0 0
BITMAP
09
04
6A
9A
CD
EA
ENDCHAR
STARTCHAR acircumflex
ENCODING 226
SWIDTH 526 0
DWIDTH 4 0
BBX 4 6 0 0
BITMAP
09
11
6A
9A
CD
EA
ENDCHAR
STARTCHAR atilde
ENCODING 227
SWIDTH 526 0
DWIDTH 4 0
BBX 4 6 0 0
BITMAP
2E
04
6A
9A
CD
EA
ENDCHAR
STARTCHAR adieresis
ENCODING 228
SWIDTH 526 0
DWIDTH 4 0
BBX 4 6 0 0
BITMAP
16
00
6A
9A
CD
EA
ENDCHAR
STARTCHAR aring
ENCODING 229
SWIDTH 526 0
DWIDTH 4 0
BBX 4 6 0 0
BITMAP
08
04
6A
9A
CD
EA
ENDCHAR
STARTCHAR ae
ENCODING 230
SWIDTH 650 0
DWIDTH 5 0
BBX 5 4 0 0
BITMAP
1A80
6E80
DD00
AA40
ENDCHAR
STARTCHAR ccedilla
ENCODING 231
SWIDTH 384 0
DWIDTH 3 0
BBX 3 6 0 -2
BITMAP
68
90
D4
B4
14
10
ENDCHAR
STARTCHAR egrave
ENCODING 232
SWIDTH 384 0
DWIDTH 3 0
BBX 3 6 0 0
BITMAP
24
10
68
98
D0
A4
ENDCHAR
STARTCHAR eacute
ENCODING 233
SWIDTH 384 0
DWIDTH 3 0
BBX 3 6 0 0
BITMAP
08
04
68
98
D0
A4
ENDCHAR
STARTCHAR ecircumflex
ENCODING 234
SWIDTH 384 0
DWIDTH 3 0
BBX 3 6 0 0
BITMAP
08
14
68
98
D0
A4
ENDCHAR
STARTCHAR edieresis
ENCODING 235
SWIDTH 384 0
DWIDTH 3 0
BBX 4 6 0 0
BITMAP
25
00
68
98
D0
A4
ENDCHAR
STARTCHAR igrave
ENCODING 236
SWIDTH 267 0
DWIDTH 2 0
BBX 2 6 0 0
BITMAP
50
10
A0
90
D0
E0
ENDCHAR
STARTCHAR iacute
ENCODING 237
SWIDTH 267 0
DWIDTH 2 0
BBX 2 6 0 0
BITMAP
20
10
A0
90
D0
E0
ENDCHAR
STARTCHAR icircumflex
ENCODING 238
SWIDTH 267 0
DWIDTH 2 0
BBX 2 6 0 0
BITMAP
20
40
A0
90
D0
E0
ENDCHAR
STARTCHAR idieresis
ENCODING 239
SWIDTH 267 0
DWIDTH 2 0
BBX 3 6 0 0
BITMAP
94
00
A0
90
D0
E0
ENDCHAR
STARTCHAR eth
ENCODING 240
SWIDTH 526 0
DWIDTH 4 0
BBX 4 6 0 0
BITMAP
09
0A
6A
9A
CD
EA
ENDCHAR
STARTCHAR ntilde
ENCODING 241
SWIDTH 505 0
DWIDTH 4 0
BBX 5 6 -1 0
BITMAP
0B40
0100
2F40
2640
3700
7280
ENDCHAR
STARTCHAR ograve
ENCODING 242
SWIDTH 433 0
DWIDTH 3 0
BBX 4 6 0 0
BITMAP
14
04
68
D9
C8
A4
ENDCHAR
STARTCHAR oacute
ENCODING 243
SWIDTH 439 0
DWIDTH 4 0
BBX 4 6 0 0
BITMAP
08
04
68
99
C8
A4
ENDCHAR
STARTCHAR ocircumflex
ENCODING 244
SWIDTH 433 0
DWIDTH 3 0
BBX 4 6 0 0
BITMAP
18
14
68
D9
C8
A4
ENDCHAR
STARTCHAR otilde
ENCODING 245
SWIDTH 433 0
DWIDTH 3 0
BBX 4 6 0 0
BITMAP
79
04
68
D9
C8
A4
ENDCHAR
STARTCHAR odieresis
ENCODING 246
SWIDTH 433 0
DWIDTH 3 0
BBX 4 6 0 0
BITMAP
28
00
68
D9
C8
A4
ENDCHAR
STARTCHAR divide
ENCODING 247
SWIDTH 415 0
DWIDTH 3 0
BBX 3 4 0 1
BITMAP
18
00
68
30
ENDCHAR
STARTCHAR oslash
ENCODING 248
SWIDTH 428 0
DWIDTH 3 0
BBX 5 5 -1 -1
BITMAP
1A40
3600
3A00
3900
4000
ENDCHAR
STARTCHAR ugrave
ENCODING 249
SWIDTH 505 0
DWIDTH 4 0
BBX 4 6 0 0
BITMAP
14
04
AA
99
DD
EE
ENDCHAR
STARTCHAR uacute
ENCODING 250
SWIDTH 505 0
DWIDTH 4 0
BBX 4 6 0 0
BITMAP
09
04
AA
99
DD
EE
ENDCHAR
STARTCHAR ucircumflex
ENCODING 251
SWIDTH 505 0
DWIDTH 4 0
BBX 4 6 0 0
BITMAP
08
10
AA
99
DD
EE
ENDCHAR
STARTCHAR udieresis
ENCODING 252
SWIDTH 505 0
DWIDTH 4 0
BBX 4 6 0 0
BITMAP
25
00
AA
99
DD
EE
ENDCHAR
STARTCHAR yacute
ENCODING 253
SWIDTH 505 0
DWIDTH 4 0
BBX 4 8 0 -2
BITMAP
09
04
AA
99
DD
ED
68
64
ENDCHAR
STARTCHAR thorn
ENCODING 254
SWIDTH 473 0
DWIDTH 4 0
BBX 5 8 -1 -2
BITMAP
0C00
1800
2A40
2680
3240
7A00
6000
9000
ENDCHAR
STARTCHAR ydieresis
ENCODING 255
SWIDTH 505 0
DWIDTH 4 0
BBX 4 8 0 -2
BITMAP
25
00
AA
99
DD
ED
68
64
ENDCHAR
STARTCHAR Amacron
ENCODING 256
SWIDTH 668 0
DWIDTH 5 0
BBX 6 8 0 -1
BITMAP
01A0
0190
05D0
69C0
A580
3280
6240
6000
ENDCHAR
STARTCHAR amacron
ENCODING 257
SWIDTH 526 0
DWIDTH 4 0
BBX 4 6 0 0
BITMAP
1A
00
6A
9A
CD
EA
ENDCHAR
STARTCHAR Abreve
ENCODING 258
SWIDTH 668 0
DWIDTH 5 0
BBX 7 9 0 -1
BITMAP
0044
0090
0190
05D0
69C0
A580
3280
6240
6000
ENDCHAR
STARTCHAR abreve
ENCODING 259
SWIDTH 526 0
DWIDTH 4 0
BBX 4 6 0 0
BITMAP
22
15
6A
9A
CD
EA
ENDCHAR
STARTCHAR Aogonek
ENCODING 260
SWIDTH 668 0
DWIDTH 5 0
BBX 6 8 0 -2
BITMAP
0190
05D0
69C0
A580
3280
6240
6200
0200
ENDCHAR
STARTCHAR aogonek
ENCODING 261
SWIDTH 526 0
DWIDTH 4 0
BBX 4 6 0 -2
BITMAP
6A
9A
CD
EA
04
05
ENDCHAR
STARTCHAR Cacute
ENCODING 262
SWIDTH 497 0
DWIDTH 4 0
BBX 4 8 0 0
BITMAP
02
01
1A
71
A0
A0
A0
79
ENDCHAR
STARTCHAR cacute
ENCODING 263
SWIDTH 384 0
DWIDTH 3 0
BBX 4 6 0 0
BITMAP
09
04
68
90
C0
A4
ENDCHAR
STARTCHAR Ccircumflex
ENCODING 264
SWIDTH 497 0
DWIDTH 4 0
BBX 4 8 0 0
BITMAP
06
05
1A
71
A0
A0
A0
79
ENDCHAR
STARTCHAR ccircumflex
ENCODING 265
SWIDTH 384 0
DWIDTH 3 0
BBX 3 6 0 0
BITMAP
08
14
68
90
C0
A4
ENDCHAR
STARTCHAR Cdotaccent
ENCODING 266
SWIDTH 497 0
DWIDTH 4 0
BBX 4 8 0 0
BITMAP
03
00
1A
71
A0
A0
A0
79
ENDCHAR
STARTCHAR cdotaccent
ENCODING 267
SWIDTH 384 0
DWIDTH 3 0
BBX 3 6 0 0
BITMAP
08
00
68
90
C0
A4
ENDCHAR
STARTCHAR Ccaron
ENCODING 268
SWIDTH 497 0
DWIDTH 4 0
BBX 5 8 0 0
BITMAP
0540
0000
1A00
7100
A000
A000
A000
7900
ENDCHAR
STARTCHAR ccaron
ENCODING 269
SWIDTH 384 0
DWIDTH 3 0
BBX 4 6 0 0
BITMAP
15
04
68
90
C0
A4
ENDCHAR
STARTCHAR Dcaron
ENCODING 270
SWIDTH 663 0
DWIDTH 5 0
BBX 5 8 0 0
BITMAP
0540
0000
2A40
9CC0
58C0
25C0
3680
3A00
ENDCHAR
STARTCHAR dcaron
ENCODING 271
SWIDTH 525 0
DWIDTH 4 0
BBX 6 6 0 0
BITMAP
0150
0740
6A00
9A00
CD00
EA00
ENDCHAR
STARTCHAR Dcroat
ENCODING 272
SWIDTH 663 0
DWIDTH 5 0
BBX 5 6 0 0
BITMAP
2A40
98C0
68C0
25C0
3680
3A00
ENDCHAR
STARTCHAR dcroat
ENCODING 273
SWIDTH 525 0
DWIDTH 4 0
BBX 5 6 0 0
BITMAP
0100
0740
6A00
9A00
CD00
EA00
ENDCHAR
STARTCHAR Emacron
ENCODING 274
SWIDTH 459 0
DWIDTH 4 0
BBX 5 8 0 0
BITMAP
0A40
0000
1A00
3100
2400
A000
E100
B800
ENDCHAR
STARTCHAR emacron
ENCODING 275
SWIDTH 384 0
DWIDTH 3 0
BBX 3 6 0 0
BITMAP
68
00
68
98
D0
A4
ENDCHAR
STARTCHAR Ebreve
ENCODING 276
SWIDTH 459 0
DWIDTH 4 0
BBX 5 8 0 0
BITMAP
0440
0900
1A00
3100
2400
A000
E100
B800
ENDCHAR
STARTCHAR ebreve
ENCODING 277
SWIDTH 384 0
DWIDTH 3 0
BBX 4 6 0 0
BITMAP
55
24
68
98
D0
A4
ENDCHAR
STARTCHAR Edotaccent
ENCODING 278
SWIDTH 459 0
DWIDTH 4 0
BBX 4 8 0 0
BITMAP
06
00
1A
31
24
A0
E1
B8
ENDCHAR
STARTCHAR edotaccent
ENCODING 279
SWIDTH 384 0
DWIDTH 3 0
BBX 3 6 0 0
BITMAP
18
00
68
98
D0
A4
ENDCHAR
STARTCHAR Eogonek
ENCODING 280
SWIDTH 459 0
DWIDTH 4 0
BBX 4 8 0 -2
BITMAP
26
72
24
A0
E0
79
04
08
ENDCHAR
STARTCHAR eogonek
ENCODING 281
SWIDTH 384 0
DWIDTH 3 0
BBX 3 6 0 -2
BITMAP
68
98
D0
A8
20
20
ENDCHAR
STARTCHAR Ecaron
ENCODING 282
SWIDTH 459 0
DWIDTH 4 0
BBX 5 8 0 0
BITMAP
0540
0000
1A00
3100
2400
A000
E100
B800
ENDCHAR
STARTCHAR ecaron
ENCODING 283
SWIDTH 384 0
DWIDTH 3 0
BBX 4 6 0 0
BITMAP
15
04
68
98
D0
A4
ENDCHAR
STARTCHAR Gcircumflex
ENCODING 284
SWIDTH 578 0
DWIDTH 5 0
BBX 5 10 0 -2
BITMAP
0200
0400
2A40
6140
9100
9300
6B00
2600
5900
1400
ENDCHAR
STARTCHAR gcircumflex
ENCODING 285
SWIDTH 507 0
DWIDTH 4 0
BBX 4 8 0 -2
BITMAP
09
11
6A
9A
CD
ED
6C
64
ENDCHAR
STARTCHAR Gbreve
ENCODING 286
SWIDTH 578 0
DWIDTH 5 0
BBX 5 10 0 -2
BITMAP
0440
0640
2A40
6140
9100
9300
6B00
2600
5900
1400
ENDCHAR
STARTCHAR gbreve
ENCODING 287
SWIDTH 507 0
DWIDTH 4 0
BBX 4 8 0 -2
BITMAP
22
15
6A
9A
CD
ED
6C
64
ENDCHAR
STARTCHAR Gdotaccent
ENCODING 288
SWIDTH 578 0
DWIDTH 5 0
BBX 5 10 0 -2
BITMAP
0600
0000
2A40
6140
9100
9300
6B00
2600
5900
1400
ENDCHAR
STARTCHAR gdotaccent
ENCODING 289
SWIDTH 507 0
DWIDTH 4 0
BBX 4 8 0 -2
BITMAP
09
00
6A
9A
CD
ED
6C
64
ENDCHAR
STARTCHAR Gcommaaccent
ENCODING 290
SWIDTH 578 0
DWIDTH 5 0
BBX 4 8 0 -2
BITMAP
1A
72
A0
D2
D3
7A
04
14
ENDCHAR
STARTCHAR gcommaaccent
ENCODING 291
SWIDTH 507 0
DWIDTH 4 0
BBX 4 8 0 -2
BITMAP
04
04
6A
9A
CD
ED
6C
64
ENDCHAR
STARTCHAR Hcircumflex
ENCODING 292
SWIDTH 665 0
DWIDTH 5 0
BBX 6 8 0 0
BITMAP
0180
0140
1C90
9CD0
5EC0
2580
3680
3240
ENDCHAR
STARTCHAR hcircumflex
ENCODING 293
SWIDTH 505 0
DWIDTH 4 0
BBX 5 7 -1 0
BITMAP
0500
0800
1800
2F40
2640
3700
7280
ENDCHAR
STARTCHAR Hbar
ENCODING 294
SWIDTH 665 0
DWIDTH 5 0
BBX 6 6 0 0
BITMAP
1C90
9DD0
5EC0
2580
3680
3240
ENDCHAR
STARTCHAR hbar
ENCODING 295
SWIDTH 505 0
DWIDTH 4 0
BBX 5 6 -1 0
BITMAP
0400
2D00
2F40
2640
3700
7280
ENDCHAR
STARTCHAR Itilde
ENCODING 296
SWIDTH 375 0
DWIDTH 3 0
BBX 4 8 0 0
BITMAP
14
05
2C
9C
A8
24
34
30
ENDCHAR
STARTCHAR itilde
ENCODING 297
SWIDTH 267 0
DWIDTH 2 0
BBX 2 6 0 0
BITMAP
A0
00
A0
90
D0
E0
ENDCHAR
STARTCHAR Imacron
ENCODING 298
SWIDTH 375 0
DWIDTH 3 0
BBX 4 7 0 0
BITMAP
19
2C
9C
A8
24
34
30
ENDCHAR
STARTCHAR imacron
ENCODING 299
SWIDTH 267 0
DWIDTH 2 0
BBX 3 6 0 0
BITMAP
64
00
A0
90
D0
E0
ENDCHAR
STARTCHAR Ibreve
ENCODING 300
SWIDTH 375 0
DWIDTH 3 0
BBX 4 8 0 0
BITMAP
11
19
2C
9C
A8
24
34
30
ENDCHAR
STARTCHAR ibreve
ENCODING 301
SWIDTH 267 0
DWIDTH 2 0
BBX 3 6 0 0
BITMAP
84
50
A0
90
D0
E0
ENDCHAR
STARTCHAR Iogonek
ENCODING 302
SWIDTH 375 0
DWIDTH 3 0
BBX 3 10 0 -2
BITMAP
14
04
2C
9C
A8
24
34
30
50
60
ENDCHAR
STARTCHAR iogonek
ENCODING 303
SWIDTH 267 0
DWIDTH 2 0
BBX 2 8 0 -2
BITMAP
60
00
A0
90
D0
E0
40
80
ENDCHAR
STARTCHAR Idotaccent
ENCODING 304
SWIDTH 375 0
DWIDTH 3 0
BBX 4 8 0 0
BITMAP
09
00
2C
9C
A8
24
34
30
ENDCHAR
STARTCHAR dotlessi
ENCODING 305
SWIDTH 267 0
DWIDTH 2 0
BBX 2 4 0 0
BITMAP
A0
90
D0
E0
ENDCHAR
STARTCHAR IJ
ENCODING 306
SWIDTH 663 0
DWIDTH 5 0
BBX 6 8 0 -2
BITMAP
2C90
9CC0
A9C0
2680
3640
3740
2700
1900
ENDCHAR
STARTCHAR ij
ENCODING 307
SWIDTH 507 0
DWIDTH 4 0
BBX 4 8 0 -2
BITMAP
63
00
A6
9A
DD
DD
2C
64
ENDCHAR
STARTCHAR Jcircumflex
ENCODING 308
SWIDTH 536 0
DWIDTH 4 0
BBX 5 10 0 -2
BITMAP
0180
0100
0680
1640
1700
0700
0600
5900
8C00
5400
ENDCHAR
STARTCHAR jcircumflex
ENCODING 309
SWIDTH 240 0
DWIDTH 2 0
BBX 4 8 -2 -2
BITMAP
02
04
0A
09
0D
1D
68
64
ENDCHAR
STARTCHAR Kcommaaccent
ENCODING 310
SWIDTH 601 0
DWIDTH 5 0
BBX 5 8 0 -2
BITMAP
2C80
9E00
6E00
2640
3700
3300
0400
0400
ENDCHAR
STARTCHAR kcommaaccent
ENCODING 311
SWIDTH 518 0
DWIDTH 4 0
BBX 5 8 -1 -2
BITMAP
0400
1800
2940
2F00
3740
7280
0400
0400
ENDCHAR
STARTCHAR kgreenlandic
ENCODING 312
SWIDTH 518 0
DWIDTH 4 0
BBX 5 4 -1 0
BITMAP
2940
2F00
3740
7280
ENDCHAR
STARTCHAR Lacute
ENCODING 313
SWIDTH 379 0
DWIDTH 3 0
BBX 5 10 0 -2
BITMAP
0200
0400
2C00
9C00
6800
2400
3400
7000
1900
02C0
ENDCHAR
STARTCHAR lacute
ENCODING 314
SWIDTH 267 0
DWIDTH 2 0
BBX 3 8 0 0
BITMAP
04
14
20
60
A0
90
D0
E0
ENDCHAR
STARTCHAR Lcommaaccent
ENCODING 315
SWIDTH 379 0
DWIDTH 3 0
BBX 5 8 0 -2
BITMAP
2C00
9C00
6800
2400
3400
7000
1900
52C0
ENDCHAR
STARTCHAR lcommaaccent
ENCODING 316
SWIDTH 267 0
DWIDTH 2 0
BBX 2 8 0 -2
BITMAP
20
60
A0
90
D0
E0
40
40
ENDCHAR
STARTCHAR Lcaron
ENCODING 317
SWIDTH 379 0
DWIDTH 3 0
BBX 5 10 0 -2
BITMAP
0500
0000
2C00
9C00
6800
2400
3400
7000
1900
02C0
ENDCHAR
STARTCHAR lcaron
ENCODING 318
SWIDTH 267 0
DWIDTH 2 0
BBX 3 6 0 0
BITMAP
18
64
A0
90
D0
E0
ENDCHAR
STARTCHAR Ldot
ENCODING 319
SWIDTH 605 0
DWIDTH 5 0
BBX 5 8 0 -2
BITMAP
2C00
9C00
6800
2640
3400
7000
1900
02C0
ENDCHAR
STARTCHAR ldot
ENCODING 320
SWIDTH 353 0
DWIDTH 3 0
BBX 3 6 0 0
BITMAP
10
70
A0
A8
D0
D0
ENDCHAR
STARTCHAR Lslash
ENCODING 321
SWIDTH 392 0
DWIDTH 3 0
BBX 5 8 0 -2
BITMAP
2C00
9C00
6800
3400
3400
7000
1900
02C0
ENDCHAR
STARTCHAR lslash
ENCODING 322
SWIDTH 286 0
DWIDTH 2 0
BBX 3 6 0 0
BITMAP
20
60
A4
D0
D0
E0
ENDCHAR
STARTCHAR Nacute
ENCODING 323
SWIDTH 702 0
DWIDTH 6 0
BBX 6 8 0 0
BITMAP
0090
0040
2D20
9D50
AA90
2780
2380
2280
ENDCHAR
STARTCHAR nacute
ENCODING 324
SWIDTH 505 0
DWIDTH 4 0
BBX 5 6 -1 0
BITMAP
0140
0100
2F40
2640
3700
7280
ENDCHAR
STARTCHAR Ncommaaccent
ENCODING 325
SWIDTH 668 0
DWIDTH 5 0
BBX 6 8 0 -2
BITMAP
2D20
9D50
AA90
2780
2380
2280
0400
0400
ENDCHAR
STARTCHAR ncommaaccent
ENCODING 326
SWIDTH 505 0
DWIDTH 4 0
BBX 5 6 -1 -2
BITMAP
2F40
2640
3700
7280
0400
0400
ENDCHAR
STARTCHAR Ncaron
ENCODING 327
SWIDTH 668 0
DWIDTH 5 0
BBX 6 8 0 0
BITMAP
0190
0040
2D20
9D50
AA90
2780
2380
2280
ENDCHAR
STARTCHAR ncaron
ENCODING 328
SWIDTH 505 0
DWIDTH 4 0
BBX 5 6 -1 0
BITMAP
0540
0100
2F40
2640
3700
7280
ENDCHAR
STARTCHAR napostrophe
ENCODING 329
SWIDTH 505 0
DWIDTH 4 0
BBX 5 6 -1 0
BITMAP
2000
1000
2F40
2640
3700
7280
ENDCHAR
STARTCHAR Eng
ENCODING 330
SWIDTH 723 0
DWIDTH 6 0
BBX 6 8 0 -2
BITMAP
2E20
5E20
5B60
1790
26C0
21C0
0980
0500
ENDCHAR
STARTCHAR eng
ENCODING 331
SWIDTH 505 0
DWIDTH 4 0
BBX 5 6 -1 -2
BITMAP
2B40
2640
3700
7700
1A00
1900
ENDCHAR
STARTCHAR Omacron
ENCODING 332
SWIDTH 665 0
DWIDTH 5 0
BBX 6 8 0 0
BITMAP
0640
0000
1A80
98D0
A4D0
34C0
3280
2A00
ENDCHAR
STARTCHAR omacron
ENCODING 333
SWIDTH 433 0
DWIDTH 3 0
BBX 4 6 0 0
BITMAP
29
00
68
D9
C8
A4
ENDCHAR
STARTCHAR Obreve
ENCODING 334
SWIDTH 665 0
DWIDTH 5 0
BBX 6 8 0 0
BITMAP
0440
0640
1A80
98D0
A4D0
34C0
3280
2A00
ENDCHAR
STARTCHAR obreve
ENCODING 335
SWIDTH 433 0
DWIDTH 3 0
BBX 4 6 0 0
BITMAP
22
14
68
D9
C8
A4
ENDCHAR
STARTCHAR Ohungarumlaut
ENCODING 336
SWIDTH 665 0
DWIDTH 5 0
BBX 6 8 0 0
BITMAP
0250
0000
1A80
98D0
A4D0
34C0
3280
2A00
ENDCHAR
STARTCHAR ohungarumlaut
ENCODING 337
SWIDTH 433 0
DWIDTH 3 0
BBX 4 6 0 0
BITMAP
16
14
68
D9
C8
A4
ENDCHAR
STARTCHAR OE
ENCODING 338
SWIDTH 846 0
DWIDTH 7 0
BBX 7 6 0 0
BITMAP
1AE8
98D0
64E0
34C0
3280
2BF0
ENDCHAR
STARTCHAR oe
ENCODING 339
SWIDTH 663 0
DWIDTH 5 0
BBX 6 4 0 0
BITMAP
6A80
DA40
CA10
AA40
ENDCHAR
STARTCHAR Racute
ENCODING 340
SWIDTH 601 0
DWIDTH 5 0
BBX 5 8 0 0
BITMAP
0240
0100
1A40
9D80
6B00
2640
3700
3300
ENDCHAR
STARTCHAR racute
ENCODING 341
SWIDTH 376 0
DWIDTH 3 0
BBX 4 6 -1 0
BITMAP
02
01
2B
24
30
70
ENDCHAR
STARTCHAR Rcommaaccent
ENCODING 342
SWIDTH 601 0
DWIDTH 5 0
BBX 5 8 0 -2
BITMAP
1A40
9D80
6B00
2640
3700
3300
0400
0400
ENDCHAR
STARTCHAR rcommaaccent
ENCODING 343
SWIDTH 376 0
DWIDTH 3 0
BBX 4 6 -1 -2
BITMAP
2B
24
30
70
10
10
ENDCHAR
STARTCHAR Rcaron
ENCODING 344
SWIDTH 601 0
DWIDTH 5 0
BBX 5 8 0 0
BITMAP
0240
0100
1A40
9D80
6B00
2640
3700
3300
ENDCHAR
STARTCHAR rcaron
ENCODING 345
SWIDTH 376 0
DWIDTH 3 0
BBX 4 6 -1 0
BITMAP
09
04
2B
24
30
70
ENDCHAR
STARTCHAR Sacute
ENCODING 346
SWIDTH 570 0
DWIDTH 5 0
BBX 5 8 0 0
BITMAP
0200
0100
1A40
2540
1D00
1B00
9300
6900
ENDCHAR
STARTCHAR sacute
ENCODING 347
SWIDTH 382 0
DWIDTH 3 0
BBX 3 6 0 0
BITMAP
08
14
34
64
A8
A4
ENDCHAR
STARTCHAR Scircumflex
ENCODING 348
SWIDTH 570 0
DWIDTH 5 0
BBX 5 8 0 0
BITMAP
0200
0400
1A40
2540
1D00
1B00
9300
6900
ENDCHAR
STARTCHAR scircumflex
ENCODING 349
SWIDTH 382 0
DWIDTH 3 0
BBX 3 6 0 0
BITMAP
18
14
34
64
A8
A4
ENDCHAR
STARTCHAR Scedilla
ENCODING 350
SWIDTH 570 0
DWIDTH 5 0
BBX 5 8 0 -2
BITMAP
1A40
2540
1D00
1B00
9300
6900
1800
1800
ENDCHAR
STARTCHAR scedilla
ENCODING 351
SWIDTH 382 0
DWIDTH 3 0
BBX 3 6 0 -2
BITMAP
24
74
A4
64
50
A0
ENDCHAR
STARTCHAR Scaron
ENCODING 352
SWIDTH 570 0
DWIDTH 5 0
BBX 5 8 0 0
BITMAP
0240
0100
1A40
2540
1D00
1B00
9300
6900
ENDCHAR
STARTCHAR scaron
ENCODING 353
SWIDTH 369 0
DWIDTH 3 0
BBX 3 6 0 0
BITMAP
14
10
34
64
A8
A4
ENDCHAR
STARTCHAR uni0162
ENCODING 354
SWIDTH 481 0
DWIDTH 4 0
BBX 6 8 0 -2
BITMAP
6F90
8900
4C00
1C00
1800
2800
1400
1800
ENDCHAR
STARTCHAR uni0163
ENCODING 355
SWIDTH 267 0
DWIDTH 2 0
BBX 2 7 0 -2
BITMAP
60
A0
90
D0
E0
90
90
ENDCHAR
STARTCHAR Tcaron
ENCODING 356
SWIDTH 481 0
DWIDTH 4 0
BBX 6 8 0 0
BITMAP
0640
0100
6F90
8900
4C00
1C00
1800
2800
ENDCHAR
STARTCHAR tcaron
ENCODING 357
SWIDTH 267 0
DWIDTH 2 0
BBX 4 6 0 0
BITMAP
09
64
A0
90
D0
E0
ENDCHAR
STARTCHAR Tbar
ENCODING 358
SWIDTH 481 0
DWIDTH 4 0
BBX 6 6 0 0
BITMAP
6F90
8900
4C00
2D00
1800
2800
ENDCHAR
STARTCHAR tbar
ENCODING 359
SWIDTH 267 0
DWIDTH 2 0
BBX 2 5 0 0
BITMAP
60
A0
A0
D0
E0
ENDCHAR
STARTCHAR Utilde
ENCODING 360
SWIDTH 716 0
DWIDTH 6 0
BBX 6 8 0 0
BITMAP
0140
0050
1D70
8C60
58A0
24D0
25C0
1E40
ENDCHAR
STARTCHAR utilde
ENCODING 361
SWIDTH 505 0
DWIDTH 4 0
BBX 4 6 0 0
BITMAP
28
04
AA
99
DD
EE
ENDCHAR
STARTCHAR Umacron
ENCODING 362
SWIDTH 716 0
DWIDTH 6 0
BBX 6 8 0 0
BITMAP
0290
0000
1D70
8C60
58A0
24D0
25C0
1E40
ENDCHAR
STARTCHAR umacron
ENCODING 363
SWIDTH 505 0
DWIDTH 4 0
BBX 4 6 0 0
BITMAP
29
00
AA
99
DD
EE
ENDCHAR
STARTCHAR Ubreve
ENCODING 364
SWIDTH 716 0
DWIDTH 6 0
BBX 6 8 0 0
BITMAP
0110
0150
1D70
8C60
58A0
24D0
25C0
1E40
ENDCHAR
STARTCHAR ubreve
ENCODING 365
SWIDTH 505 0
DWIDTH 4 0
BBX 4 6 0 0
BITMAP
22
14
AA
99
DD
EE
ENDCHAR
STARTCHAR Uring
ENCODING 366
SWIDTH 716 0
DWIDTH 6 0
BBX 6 8 0 0
BITMAP
0040
0040
1D70
8C60
58A0
24D0
25C0
1E40
ENDCHAR
STARTCHAR uring
ENCODING 367
SWIDTH 505 0
DWIDTH 4 0
BBX 4 6 0 0
BITMAP
14
04
AA
99
DD
EE
ENDCHAR
STARTCHAR Uhungarumlaut
ENCODING 368
SWIDTH 716 0
DWIDTH 6 0
BBX 6 8 0 0
BITMAP
0160
0000
1D70
8C60
58A0
24D0
25C0
1E40
ENDCHAR
STARTCHAR uhungarumlaut
ENCODING 369
SWIDTH 505 0
DWIDTH 4 0
BBX 4 6 0 0
BITMAP
16
14
AA
99
DD
EE
ENDCHAR
STARTCHAR Uogonek
ENCODING 370
SWIDTH 716 0
DWIDTH 6 0
BBX 6 10 0 -2
BITMAP
0200
0100
1D70
8C60
58A0
24D0
25C0
2F40
0800
0900
ENDCHAR
STARTCHAR uogonek
ENCODING 371
SWIDTH 505 0
DWIDTH 4 0
BBX 4 6 0 -2
BITMAP
AA
99
DD
EE
08
09
ENDCHAR
STARTCHAR Wcircumflex
ENCODING 372
SWIDTH 962 0
DWIDTH 8 0
BBX 8 8 0 0
BITMAP
0024
0044
1D71
8DB2
8DB1
0D74
0E34
0D34
ENDCHAR
STARTCHAR wcircumflex
ENCODING 373
SWIDTH 661 0
DWIDTH 5 0
BBX 5 6 0 0
BITMAP
0600
0500
AA80
9940
DC80
EE00
ENDCHAR
STARTCHAR Ycircumflex
ENCODING 374
SWIDTH 620 0
DWIDTH 5 0
BBX 6 8 0 0
BITMAP
0180
0140
1D10
8A40
8A40
0700
0600
0A00
ENDCHAR
STARTCHAR ycircumflex
ENCODING 375
SWIDTH 505 0
DWIDTH 4 0
BBX 4 8 0 -2
BITMAP
08
10
AA
99
DD
ED
68
64
ENDCHAR
STARTCHAR Ydieresis
ENCODING 376
SWIDTH 620 0
DWIDTH 5 0
BBX 6 7 0 0
BITMAP
0250
1D10
8A40
8A40
0700
0600
0A00
ENDCHAR
STARTCHAR Zacute
ENCODING 377
SWIDTH 542 0
DWIDTH 4 0
BBX 5 8 0 0
BITMAP
0240
0100
6B40
0A00
0D00
2800
3100
BA00
ENDCHAR
STARTCHAR zacute
ENCODING 378
SWIDTH 428 0
DWIDTH 3 0
BBX 3 6 0 0
BITMAP
08
04
6C
28
30
A8
ENDCHAR
STARTCHAR Zdotaccent
ENCODING 379
SWIDTH 530 0
DWIDTH 4 0
BBX 5 7 0 0
BITMAP
0500
6B40
0A00
0D00
2800
3100
BA00
ENDCHAR
STARTCHAR zdotaccent
ENCODING 380
SWIDTH 428 0
DWIDTH 3 0
BBX 3 6 0 0
BITMAP
08
00
6C
28
30
A8
ENDCHAR
STARTCHAR Zcaron
ENCODING 381
SWIDTH 542 0
DWIDTH 4 0
BBX 5 8 0 0
BITMAP
0540
0100
6B40
0A00
0D00
2800
3100
BA00
ENDCHAR
STARTCHAR zcaron
ENCODING 382
SWIDTH 428 0
DWIDTH 3 0
BBX 4 6 0 0
BITMAP
19
04
6C
28
30
A8
ENDCHAR
STARTCHAR longs
ENCODING 383
SWIDTH 267 0
DWIDTH 2 0
BBX 5 8 -2 -2
BITMAP
0280
0600
0A00
0900
0D00
1C00
6800
7400
ENDCHAR
STARTCHAR uni018F
ENCODING 399
SWIDTH 544 0
DWIDTH 4 0
BBX 5 6 0 0
BITMAP
2E00
0340
1740
6700
9A00
A800
ENDCHAR
STARTCHAR florin
ENCODING 402
SWIDTH 267 0
DWIDTH 2 0
BBX 6 8 -2 -2
BITMAP
0190
0340
0A40
0900
0D00
1C00
6800
A000
ENDCHAR
STARTCHAR Ohorn
ENCODING 416
SWIDTH 665 0
DWIDTH 5 0
BBX 6 7 0 0
BITMAP
0020
1A90
98D0
A4D0
34C0
3280
2A00
ENDCHAR
STARTCHAR ohorn
ENCODING 417
SWIDTH 439 0
DWIDTH 4 0
BBX 4 5 0 0
BITMAP
02
69
D8
C8
A4
ENDCHAR
STARTCHAR Uhorn
ENCODING 431
SWIDTH 716 0
DWIDTH 6 0
BBX 7 8 0 0
BITMAP
0004
0008
1D70
8C60
58A0
24D0
25C0
1E40
ENDCHAR
STARTCHAR uhorn
ENCODING 432
SWIDTH 505 0
DWIDTH 4 0
BBX 4 5 0 0
BITMAP
01
AA
99
DD
EE
ENDCHAR
STARTCHAR uni01B7
ENCODING 439
SWIDTH 555 0
DWIDTH 4 0
BBX 5 6 0 0
BITMAP
2740
0900
1D00
0700
4700
A900
ENDCHAR
STARTCHAR uni01CD
ENCODING 461
SWIDTH 668 0
DWIDTH 5 0
BBX 7 9 0 -1
BITMAP
0064
0010
0190
05D0
69C0
A580
3280
6240
6000
ENDCHAR
STARTCHAR uni01CE
ENCODING 462
SWIDTH 526 0
DWIDTH 4 0
BBX 4 6 0 0
BITMAP
09
04
6A
9A
CD
EA
ENDCHAR
STARTCHAR uni01CF
ENCODING 463
SWIDTH 375 0
DWIDTH 3 0
BBX 4 8 0 0
BITMAP
05
04
2C
9C
A8
24
34
30
ENDCHAR
STARTCHAR uni01D0
ENCODING 464
SWIDTH 267 0
DWIDTH 2 0
BBX 3 6 0 0
BITMAP
64
10
A0
90
D0
E0
ENDCHAR
STARTCHAR uni01D1
ENCODING 465
SWIDTH 665 0
DWIDTH 5 0
BBX 6 8 0 0
BITMAP
0140
0100
1A80
98D0
A4D0
34C0
3280
2A00
ENDCHAR
STARTCHAR uni01D2
ENCODING 466
SWIDTH 433 0
DWIDTH 3 0
BBX 4 6 0 0
BITMAP
15
04
68
D9
C8
A4
ENDCHAR
STARTCHAR uni01D3
ENCODING 467
SWIDTH 716 0
DWIDTH 6 0
BBX 6 8 0 0
BITMAP
0090
0040
1D70
8C60
58A0
24D0
25C0
1E40
ENDCHAR
STARTCHAR uni01D4
ENCODING 468
SWIDTH 505 0
DWIDTH 4 0
BBX 4 6 0 0
BITMAP
19
04
AA
99
DD
EE
ENDCHAR
STARTCHAR uni01D5
ENCODING 469
SWIDTH 716 0
DWIDTH 6 0
BBX 6 8 0 0
BITMAP
0150
0260
1D70
8C60
58A0
24D0
25C0
1E40
ENDCHAR
STARTCHAR uni01D6
ENCODING 470
SWIDTH 505 0
DWIDTH 4 0
BBX 4 7 0 0
BITMAP
19
25
00
AA
99
DD
EE
ENDCHAR
STARTCHAR uni01D7
ENCODING 471
SWIDTH 716 0
DWIDTH 6 0
BBX 6 8 0 0
BITMAP
05A0
0000
1D70
8C60
58A0
24D0
25C0
1E40
ENDCHAR
STARTCHAR uni01D8
ENCODING 472
SWIDTH 505 0
DWIDTH 4 0
BBX 4 8 0 0
BITMAP
01
08
25
00
AA
99
DD
EE
ENDCHAR
STARTCHAR uni01D9
ENCODING 473
SWIDTH 716 0
DWIDTH 6 0
BBX 6 8 0 0
BITMAP
06A0
0000
1D70
8C60
58A0
24D0
25C0
1E40
ENDCHAR
STARTCHAR uni01DA
ENCODING 474
SWIDTH 505 0
DWIDTH 4 0
BBX 4 8 0 0
BITMAP
01
08
25
00
AA
99
DD
EE
ENDCHAR
STARTCHAR uni01DB
ENCODING 475
SWIDTH 716 0
DWIDTH 6 0
BBX 6 8 0 0
BITMAP
06A0
0040
1D70
8C60
58A0
24D0
25C0
1E40
ENDCHAR
STARTCHAR uni01DC
ENCODING 476
SWIDTH 505 0
DWIDTH 4 0
BBX 4 7 0 0
BITMAP
14
25
00
AA
99
DD
EE
ENDCHAR
STARTCHAR uni01E4
ENCODING 484
SWIDTH 601 0
DWIDTH 5 0
BBX 5 8 0 -2
BITMAP
2A40
6140
9000
9740
6B00
2600
5900
1400
ENDCHAR
STARTCHAR uni01E5
ENCODING 485
SWIDTH 507 0
DWIDTH 4 0
BBX 4 6 0 -2
BITMAP
6A
9A
CD
ED
6C
64
ENDCHAR
STARTCHAR Gcaron
ENCODING 486
SWIDTH 578 0
DWIDTH 5 0
BBX 5 10 0 -2
BITMAP
0240
0100
2A40
6140
9100
9300
6B00
2600
5900
1400
ENDCHAR
STARTCHAR gcaron
ENCODING 487
SWIDTH 507 0
DWIDTH 4 0
BBX 4 8 0 -2
BITMAP
09
04
6A
9A
CD
ED
6C
64
ENDCHAR
STARTCHAR uni01E8
ENCODING 488
SWIDTH 601 0
DWIDTH 5 0
BBX 6 8 0 0
BITMAP
0110
0180
2C80
9E00
6E00
2640
3700
3300
ENDCHAR
STARTCHAR uni01E9
ENCODING 489
SWIDTH 518 0
DWIDTH 4 0
BBX 5 7 -1 0
BITMAP
0140
0640
1800
2940
2F00
3740
7280
ENDCHAR
STARTCHAR uni01EA
ENCODING 490
SWIDTH 665 0
DWIDTH 5 0
BBX 6 10 0 -2
BITMAP
0900
0100
1A80
98D0
A4D0
34C0
3280
2A00
1000
1800
ENDCHAR
STARTCHAR uni01EB
ENCODING 491
SWIDTH 433 0
DWIDTH 3 0
BBX 4 6 0 -2
BITMAP
68
D9
C8
A4
80
90
ENDCHAR
STARTCHAR uni01EE
ENCODING 494
SWIDTH 525 0
DWIDTH 4 0
BBX 5 8 0 0
BITMAP
0400
0500
2740
0900
1D00
0700
4700
A900
ENDCHAR
STARTCHAR uni01EF
ENCODING 495
SWIDTH 600 0
DWIDTH 5 0
BBX 4 8 0 -2
BITMAP
11
18
AC
24
70
25
74
A0
ENDCHAR
STARTCHAR uni01F4
ENCODING 500
SWIDTH 578 0
DWIDTH 5 0
BBX 5 10 0 -2
BITMAP
0240
0100
2A40
6140
9100
9300
6B00
2600
5900
1400
ENDCHAR
STARTCHAR uni01F5
ENCODING 501
SWIDTH 507 0
DWIDTH 4 0
BBX 4 8 0 -2
BITMAP
09
04
6A
9A
CD
ED
6C
64
ENDCHAR
STARTCHAR Aringacute
ENCODING 506
SWIDTH 668 0
DWIDTH 5 0
BBX 6 9 0 -1
BITMAP
0020
0050
0090
05D0
69C0
A5C0
3280
6240
6000
ENDCHAR
STARTCHAR aringacute
ENCODING 507
SWIDTH 526 0
DWIDTH 4 0
BBX 4 7 0 0
BITMAP
01
08
04
6A
9A
CD
EA
ENDCHAR
STARTCHAR AEacute
ENCODING 508
SWIDTH 764 0
DWIDTH 6 0
BBX 7 9 0 -1
BITMAP
0014
0010
01A8
05C0
69E0
6580
3280
62F0
6000
ENDCHAR
STARTCHAR aeacute
ENCODING 509
SWIDTH 650 0
DWIDTH 5 0
BBX 5 6 0 0
BITMAP
0140
0100
1A80
6E80
DD00
AA40
ENDCHAR
STARTCHAR Oslashacute
ENCODING 510
SWIDTH 658 0
DWIDTH 5 0
BBX 5 9 0 -1
BITMAP
0080
0100
1640
99C0
A5C0
3580
3640
2900
0400
ENDCHAR
STARTCHAR oslashacute
ENCODING 511
SWIDTH 428 0
DWIDTH 3 0
BBX 5 7 -1 -1
BITMAP
0240
0100
1A40
3600
3A00
3900
4000
ENDCHAR
STARTCHAR uni0200
ENCODING 512
SWIDTH 668 0
DWIDTH 5 0
BBX 6 9 0 -1
BITMAP
0290
0010
0190
05D0
69C0
A580
3280
6240
6000
ENDCHAR
STARTCHAR uni0201
ENCODING 513
SWIDTH 526 0
DWIDTH 4 0
BBX 4 6 0 0
BITMAP
28
10
6A
9A
CD
EA
ENDCHAR
STARTCHAR uni0202
ENCODING 514
SWIDTH 668 0
DWIDTH 5 0
BBX 6 9 0 -1
BITMAP
0060
0000
0190
05D0
69C0
A580
3280
6240
6000
ENDCHAR
STARTCHAR uni0203
ENCODING 515
SWIDTH 526 0
DWIDTH 4 0
BBX 4 6 0 0
BITMAP
26
00
6A
9A
CD
EA
ENDCHAR
STARTCHAR uni0204
ENCODING 516
SWIDTH 459 0
DWIDTH 4 0
BBX 4 8 0 0
BITMAP
29
01
1A
31
24
A0
E1
B8
ENDCHAR
STARTCHAR uni0205
ENCODING 517
SWIDTH 384 0
DWIDTH 3 0
BBX 3 6 0 0
BITMAP
94
14
68
98
D0
A4
ENDCHAR
STARTCHAR uni0206
ENCODING 518
SWIDTH 459 0
DWIDTH 4 0
BBX 5 8 0 0
BITMAP
0640
0040
1A00
3100
2400
A000
E100
B800
ENDCHAR
STARTCHAR uni0207
ENCODING 519
SWIDTH 384 0
DWIDTH 3 0
BBX 3 6 0 0
BITMAP
68
00
68
98
D0
A4
ENDCHAR
STARTCHAR uni0208
ENCODING 520
SWIDTH 375 0
DWIDTH 3 0
BBX 3 8 0 0
BITMAP
18
14
2C
9C
98
24
34
30
ENDCHAR
STARTCHAR uni0209
ENCODING 521
SWIDTH 267 0
DWIDTH 2 0
BBX 3 6 -1 0
BITMAP
58
14
28
24
34
38
ENDCHAR
STARTCHAR uni020A
ENCODING 522
SWIDTH 375 0
DWIDTH 3 0
BBX 4 8 0 0
BITMAP
15
11
2C
9C
A8
24
34
30
ENDCHAR
STARTCHAR uni020B
ENCODING 523
SWIDTH 267 0
DWIDTH 2 0
BBX 3 6 0 0
BITMAP
A4
00
A0
90
D0
E0
ENDCHAR
STARTCHAR uni020C
ENCODING 524
SWIDTH 665 0
DWIDTH 5 0
BBX 6 8 0 0
BITMAP
0A00
0400
1A80
98D0
A4D0
34C0
3280
2A00
ENDCHAR
STARTCHAR uni020D
ENCODING 525
SWIDTH 433 0
DWIDTH 3 0
BBX 4 6 0 0
BITMAP
94
14
68
D9
C8
A4
ENDCHAR
STARTCHAR uni020E
ENCODING 526
SWIDTH 665 0
DWIDTH 5 0
BBX 6 8 0 0
BITMAP
0180
0440
1A80
98D0
A4D0
34C0
3280
2A00
ENDCHAR
STARTCHAR uni020F
ENCODING 527
SWIDTH 433 0
DWIDTH 3 0
BBX 4 6 0 0
BITMAP
29
00
68
D9
C8
A4
ENDCHAR
STARTCHAR uni0210
ENCODING 528
SWIDTH 601 0
DWIDTH 5 0
BBX 5 8 0 0
BITMAP
2500
0500
1A40
9D80
6B00
2640
3700
3300
ENDCHAR
STARTCHAR uni0211
ENCODING 529
SWIDTH 376 0
DWIDTH 3 0
BBX 4 6 -1 0
BITMAP
28
11
2B
24
30
70
ENDCHAR
STARTCHAR uni0212
ENCODING 530
SWIDTH 601 0
DWIDTH 5 0
BBX 5 8 0 0
BITMAP
0640
0040
1A40
9D80
6B00
2640
3700
3300
ENDCHAR
STARTCHAR uni0213
ENCODING 531
SWIDTH 376 0
DWIDTH 3 0
BBX 4 6 -1 0
BITMAP
1A
00
2B
24
30
70
ENDCHAR
STARTCHAR uni0214
ENCODING 532
SWIDTH 716 0
DWIDTH 6 0
BBX 6 8 0 0
BITMAP
0580
0140
1D70
8C60
58A0
24D0
25C0
1E40
ENDCHAR
STARTCHAR uni0215
ENCODING 533
SWIDTH 505 0
DWIDTH 4 0
BBX 4 6 0 0
BITMAP
54
14
AA
99
DD
EE
ENDCHAR
STARTCHAR uni0216
ENCODING 534
SWIDTH 716 0
DWIDTH 6 0
BBX 6 8 0 0
BITMAP
0190
0110
1D70
8C60
58A0
24D0
25C0
1E40
ENDCHAR
STARTCHAR uni0217
ENCODING 535
SWIDTH 505 0
DWIDTH 4 0
BBX 4 6 0 0
BITMAP
29
00
AA
99
DD
EE
ENDCHAR
STARTCHAR Scommaaccent
ENCODING 536
SWIDTH 570 0
DWIDTH 5 0
BBX 5 8 0 -2
BITMAP
1A40
2540
1D00
1B00
9300
6900
1000
1000
ENDCHAR
STARTCHAR scommaaccent
ENCODING 537
SWIDTH 382 0
DWIDTH 3 0
BBX 3 6 0 -2
BITMAP
34
64
A8
A4
40
40
ENDCHAR
STARTCHAR uni021A
ENCODING 538
SWIDTH 481 0
DWIDTH 4 0
BBX 6 8 0 -2
BITMAP
6F90
8900
4C00
1C00
1800
2800
1000
1000
ENDCHAR
STARTCHAR uni021B
ENCODING 539
SWIDTH 267 0
DWIDTH 2 0
BBX 2 7 0 -2
BITMAP
60
A0
90
D0
E0
40
40
ENDCHAR
STARTCHAR uni021E
ENCODING 542
SWIDTH 665 0
DWIDTH 5 0
BBX 6 8 0 0
BITMAP
0110
0180
1C90
9CD0
5EC0
2580
3680
3240
ENDCHAR
STARTCHAR uni021F
ENCODING 543
SWIDTH 600 0
DWIDTH 5 0
BBX 5 7 -1 0
BITMAP
0100
0540
1800
2F40
2640
3700
7280
ENDCHAR
STARTCHAR uni0237
ENCODING 567
SWIDTH 240 0
DWIDTH 2 0
BBX 4 6 -2 -2
BITMAP
0A
09
0D
1D
68
64
ENDCHAR
STARTCHAR uni0259
ENCODING 601
SWIDTH 404 0
DWIDTH 3 0
BBX 3 4 0 0
BITMAP
68
2C
98
A0
ENDCHAR
STARTCHAR uni0292
ENCODING 658
SWIDTH 442 0
DWIDTH 4 0
BBX 4 6 0 -2
BITMAP
AC
24
70
25
74
A0
ENDCHAR
STARTCHAR uni02BB
ENCODING 699
SWIDTH 241 0
DWIDTH 2 0
BBX 1 2 1 4
BITMAP
40
80
ENDCHAR
STARTCHAR uni02BC
ENCODING 700
SWIDTH 228 0
DWIDTH 2 0
BBX 1 2 1 4
BITMAP
80
40
ENDCHAR
STARTCHAR circumflex
ENCODING 710
SWIDTH 293 0
DWIDTH 2 0
BBX 3 2 0 4
BITMAP
10
64
ENDCHAR
STARTCHAR caron
ENCODING 711
SWIDTH 294 0
DWIDTH 2 0
BBX 2 2 1 4
BITMAP
10
80
ENDCHAR
STARTCHAR uni02C9
ENCODING 713
SWIDTH 421 0
DWIDTH 3 0
BBX 3 1 1 4
BITMAP
A4
ENDCHAR
STARTCHAR uni02CA
ENCODING 714
SWIDTH 256 0
DWIDTH 2 0
BBX 1 2 1 4
BITMAP
40
80
ENDCHAR
STARTCHAR uni02CB
ENCODING 715
SWIDTH 274 0
DWIDTH 2 0
BBX 2 2 1 4
BITMAP
80
50
ENDCHAR
STARTCHAR breve
ENCODING 728
SWIDTH 431 0
DWIDTH 3 0
BBX 2 1 1 4
BITMAP
90
ENDCHAR
STARTCHAR dotaccent
ENCODING 729
SWIDTH 250 0
DWIDTH 2 0
BBX 2 1 0 5
BITMAP
60
ENDCHAR
STARTCHAR ring
ENCODING 730
SWIDTH 156 0
DWIDTH 1 0
BBX 1 2 0 4
BITMAP
40
40
ENDCHAR
STARTCHAR ogonek
ENCODING 731
SWIDTH 291 0
DWIDTH 2 0
BBX 2 2 0 -2
BITMAP
40
50
ENDCHAR
STARTCHAR tilde
ENCODING 732
SWIDTH 403 0
DWIDTH 3 0
BBX 2 1 1 4
BITMAP
A0
ENDCHAR
STARTCHAR hungarumlaut
ENCODING 733
SWIDTH 436 0
DWIDTH 3 0
BBX 3 2 1 4
BITMAP
94
60
ENDCHAR
STARTCHAR gravecomb
ENCODING 768
SWIDTH 0 0
DWIDTH 0 0
BBX 2 2 -2 4
BITMAP
50
20
ENDCHAR
STARTCHAR acutecomb
ENCODING 769
SWIDTH 0 0
DWIDTH 0 0
BBX 2 2 -2 4
BITMAP
10
50
ENDCHAR
STARTCHAR uni0302
ENCODING 770
SWIDTH 0 0
DWIDTH 0 0
BBX 2 2 -2 4
BITMAP
10
60
ENDCHAR
STARTCHAR tildecomb
ENCODING 771
SWIDTH 0 0
DWIDTH 0 0
BBX 3 1 -3 4
BITMAP
64
ENDCHAR
STARTCHAR uni0304
ENCODING 772
SWIDTH 0 0
DWIDTH 0 0
BBX 3 1 -3 4
BITMAP
68
ENDCHAR
STARTCHAR uni0306
ENCODING 774
SWIDTH 0 0
DWIDTH 0 0
BBX 3 2 -3 4
BITMAP
40
64
ENDCHAR
STARTCHAR uni0307
ENCODING 775
SWIDTH 0 0
DWIDTH 0 0
BBX 2 1 -1 5
BITMAP
90
ENDCHAR
STARTCHAR uni0308
ENCODING 776
SWIDTH 0 0
DWIDTH 0 0
BBX 2 1 -2 5
BITMAP
50
ENDCHAR
STARTCHAR hookabovecomb
ENCODING 777
SWIDTH 0 0
DWIDTH 0 0
BBX 2 2 -2 4
BITMAP
50
50
ENDCHAR
STARTCHAR uni030A
ENCODING 778
SWIDTH 0 0
DWIDTH 0 0
BBX 1 2 -1 4
BITMAP
40
40
ENDCHAR
STARTCHAR uni030B
ENCODING 779
SWIDTH 0 0
DWIDTH 0 0
BBX 4 2 -3 4
BITMAP
25
58
ENDCHAR
STARTCHAR uni030C
ENCODING 780
SWIDTH 0 0
DWIDTH 0 0
BBX 2 2 -2 4
BITMAP
50
90
ENDCHAR
STARTCHAR uni030F
ENCODING 783
SWIDTH 0 0
DWIDTH 0 0
BBX 3 2 -3 4
BITMAP
54
28
ENDCHAR
STARTCHAR uni0311
ENCODING 785
SWIDTH 0 0
DWIDTH 0 0
BBX 3 2 -3 4
BITMAP
58
44
ENDCHAR
STARTCHAR uni031B
ENCODING 795
SWIDTH 0 0
DWIDTH 0 0
BBX 1 2 -1 3
BITMAP
40
40
ENDCHAR
STARTCHAR dotbelowcomb
ENCODING 803
SWIDTH 0 0
DWIDTH 0 0
BBX 2 1 -2 -2
BITMAP
60
ENDCHAR
STARTCHAR uni0324
ENCODING 804
SWIDTH 0 0
DWIDTH 0 0
BBX 3 1 -4 -2
BITMAP
58
ENDCHAR
STARTCHAR uni0326
ENCODING 806
SWIDTH 0 0
DWIDTH 0 0
BBX 1 1 -2 -1
BITMAP
80
ENDCHAR
STARTCHAR uni0327
ENCODING 807
SWIDTH 0 0
DWIDTH 0 0
BBX 2 2 -3 -2
BITMAP
50
50
ENDCHAR
STARTCHAR uni0328
ENCODING 808
SWIDTH 0 0
DWIDTH 0 0
BBX 2 2 -3 -2
BITMAP
80
50
ENDCHAR
STARTCHAR uni032E
ENCODING 814
SWIDTH 0 0
DWIDTH 0 0
BBX 2 1 -3 -2
BITMAP
50
ENDCHAR
STARTCHAR uni0331
ENCODING 817
SWIDTH 0 0
DWIDTH 0 0
BBX 3 1 -4 -2
BITMAP
68
ENDCHAR
STARTCHAR uni0335
ENCODING 821
SWIDTH 0 0
DWIDTH 0 0
BBX 3 1 -3 2
BITMAP
54
ENDCHAR
STARTCHAR uni0394
ENCODING 916
SWIDTH 619 0
DWIDTH 5 0
BBX 5 6 0 0
BITMAP
0700
0A40
1540
2180
5080
AA80
ENDCHAR
STARTCHAR uni03A9
ENCODING 937
SWIDTH 745 0
DWIDTH 6 0
BBX 6 6 0 0
BITMAP
0680
2460
2020
5050
2040
6280
ENDCHAR
STARTCHAR uni03BC
ENCODING 956
SWIDTH 505 0
DWIDTH 4 0
BBX 5 5 -1 -1
BITMAP
2A80
2740
3740
7A80
6000
ENDCHAR
STARTCHAR pi
ENCODING 960
SWIDTH 530 0
DWIDTH 4 0
BBX 4 5 0 0
BITMAP
AA
55
88
88
44
ENDCHAR
STARTCHAR uni0400
ENCODING 1024
SWIDTH 459 0
DWIDTH 4 0
BBX 4 8 0 0
BITMAP
08
04
1A
31
24
A0
E1
B8
ENDCHAR
STARTCHAR uni0401
ENCODING 1025
SWIDTH 459 0
DWIDTH 4 0
BBX 4 8 0 0
BITMAP
05
00
1A
31
24
A0
E1
B8
ENDCHAR
STARTCHAR uni0402
ENCODING 1026
SWIDTH 725 0
DWIDTH 6 0
BBX 6 8 0 -2
BITMAP
6F90
8900
4E80
1CD0
18C0
29C0
0240
0A00
ENDCHAR
STARTCHAR uni0403
ENCODING 1027
SWIDTH 400 0
DWIDTH 3 0
BBX 5 8 0 0
BITMAP
0040
0140
6E80
9C00
9800
2400
3400
3000
ENDCHAR
STARTCHAR uni0404
ENCODING 1028
SWIDTH 497 0
DWIDTH 4 0
BBX 4 6 0 0
BITMAP
1A
71
B8
A0
A0
79
ENDCHAR
STARTCHAR uni0405
ENCODING 1029
SWIDTH 570 0
DWIDTH 5 0
BBX 5 6 0 0
BITMAP
1A40
2540
1D00
1B00
9300
6900
ENDCHAR
STARTCHAR uni0406
ENCODING 1030
SWIDTH 374 0
DWIDTH 3 0
BBX 3 6 0 0
BITMAP
2C
9C
98
24
34
30
ENDCHAR
STARTCHAR uni0407
ENCODING 1031
SWIDTH 375 0
DWIDTH 3 0
BBX 4 8 0 0
BITMAP
16
00
2C
9C
A8
24
34
30
ENDCHAR
STARTCHAR uni0408
ENCODING 1032
SWIDTH 536 0
DWIDTH 4 0
BBX 5 8 0 -2
BITMAP
0680
1640
1700
0700
0600
5900
8C00
5400
ENDCHAR
STARTCHAR uni0409
ENCODING 1033
SWIDTH 817 0
DWIDTH 7 0
BBX 7 7 0 -1
BITMAP
0640
1740
23A0
6734
8630
CAA0
8000
ENDCHAR
STARTCHAR uni040A
ENCODING 1034
SWIDTH 931 0
DWIDTH 7 0
BBX 7 6 0 0
BITMAP
1C90
9CD0
5EE4
258C
368C
32A4
ENDCHAR
STARTCHAR uni040B
ENCODING 1035
SWIDTH 745 0
DWIDTH 6 0
BBX 6 6 0 0
BITMAP
6F90
8900
4E80
1CD0
18C0
28C0
ENDCHAR
STARTCHAR uni040C
ENCODING 1036
SWIDTH 635 0
DWIDTH 5 0
BBX 6 8 0 0
BITMAP
0040
0140
2DD0
9E00
5E00
2640
3740
3300
ENDCHAR
STARTCHAR uni040D
ENCODING 1037
SWIDTH 705 0
DWIDTH 6 0
BBX 6 8 0 0
BITMAP
0200
0140
2CA0
9CE0
9AD0
29C0
39C0
3580
ENDCHAR
STARTCHAR uni040E
ENCODING 1038
SWIDTH 644 0
DWIDTH 5 0
BBX 6 8 0 0
BITMAP
0110
0240
1D10
8A40
8680
0740
0200
1D00
ENDCHAR
STARTCHAR uni040F
ENCODING 1039
SWIDTH 665 0
DWIDTH 5 0
BBX 6 9 0 -3
BITMAP
2C90
9CD0
98C0
2580
3680
3B40
0400
0C00
0400
ENDCHAR
STARTCHAR uni0410
ENCODING 1040
SWIDTH 668 0
DWIDTH 5 0
BBX 6 7 0 -1
BITMAP
0190
05D0
69C0
A580
3280
6240
6000
ENDCHAR
STARTCHAR uni0411
ENCODING 1041
SWIDTH 638 0
DWIDTH 5 0
BBX 5 6 0 0
BITMAP
6E80
9800
6A40
2580
3280
7A00
ENDCHAR
STARTCHAR uni0412
ENCODING 1042
SWIDTH 641 0
DWIDTH 5 0
BBX 5 6 0 0
BITMAP
2A40
9D80
5A40
2580
3580
3B40
ENDCHAR
STARTCHAR uni0413
ENCODING 1043
SWIDTH 400 0
DWIDTH 3 0
BBX 5 6 0 0
BITMAP
6E80
9C00
9800
2400
3400
3000
ENDCHAR
STARTCHAR uni0414
ENCODING 1044
SWIDTH 669 0
DWIDTH 5 0
BBX 6 6 0 0
BITMAP
1A40
9CC0
98D0
24C0
7580
AA00
ENDCHAR
STARTCHAR uni0415
ENCODING 1045
SWIDTH 459 0
DWIDTH 4 0
BBX 4 6 0 0
BITMAP
1A
31
24
A0
E1
B8
ENDCHAR
STARTCHAR uni0416
ENCODING 1046
SWIDTH 777 0
DWIDTH 6 0
BBX 7 6 0 0
BITMAP
3664
0B80
1B80
6AA0
9990
CD90
ENDCHAR
STARTCHAR uni0417
ENCODING 1047
SWIDTH 525 0
DWIDTH 4 0
BBX 4 6 0 0
BITMAP
1A
07
1D
0A
8A
A8
ENDCHAR
STARTCHAR uni0418
ENCODING 1048
SWIDTH 705 0
DWIDTH 6 0
BBX 6 6 0 0
BITMAP
2CA0
9CE0
9AD0
29C0
39C0
3580
ENDCHAR
STARTCHAR uni0419
ENCODING 1049
SWIDTH 705 0
DWIDTH 6 0
BBX 6 8 0 0
BITMAP
0110
0240
2CA0
9CE0
9AD0
29C0
39C0
3580
ENDCHAR
STARTCHAR uni041A
ENCODING 1050
SWIDTH 635 0
DWIDTH 5 0
BBX 6 6 0 0
BITMAP
2DD0
9E00
5E00
2640
3740
3300
ENDCHAR
STARTCHAR uni041B
ENCODING 1051
SWIDTH 549 0
DWIDTH 4 0
BBX 5 7 0 -1
BITMAP
0640
1A40
2300
6700
8600
C900
8000
ENDCHAR
STARTCHAR uni041C
ENCODING 1052
SWIDTH 787 0
DWIDTH 6 0
BBX 7 6 0 0
BITMAP
1A34
5A74
5EB0
2AB0
2B60
5A60
ENDCHAR
STARTCHAR uni041D
ENCODING 1053
SWIDTH 665 0
DWIDTH 5 0
BBX 6 6 0 0
BITMAP
1C90
9CD0
5EC0
2580
3680
3240
ENDCHAR
STARTCHAR uni041E
ENCODING 1054
SWIDTH 665 0
DWIDTH 5 0
BBX 6 6 0 0
BITMAP
1A80
98D0
A4D0
34C0
3280
2A00
ENDCHAR
STARTCHAR uni041F
ENCODING 1055
SWIDTH 688 0
DWIDTH 6 0
BBX 6 6 0 0
BITMAP
6EE0
9CD0
58C0
2580
3680
3240
ENDCHAR
STARTCHAR uni0420
ENCODING 1056
SWIDTH 573 0
DWIDTH 5 0
BBX 5 6 0 0
BITMAP
1A40
9D80
9940
2900
3400
3000
ENDCHAR
STARTCHAR uni0421
ENCODING 1057
SWIDTH 497 0
DWIDTH 4 0
BBX 4 6 0 0
BITMAP
1A
71
A0
A0
A0
79
ENDCHAR
STARTCHAR uni0422
ENCODING 1058
SWIDTH 481 0
DWIDTH 4 0
BBX 6 6 0 0
BITMAP
6F90
8900
4C00
1C00
1800
2800
ENDCHAR
STARTCHAR uni0423
ENCODING 1059
SWIDTH 644 0
DWIDTH 5 0
BBX 6 6 0 0
BITMAP
1D10
8A40
8680
0740
0200
1D00
ENDCHAR
STARTCHAR uni0424
ENCODING 1060
SWIDTH 786 0
DWIDTH 6 0
BBX 6 7 0 0
BITMAP
1640
1340
2760
9630
9960
2E40
0C00
ENDCHAR
STARTCHAR uni0425
ENCODING 1061
SWIDTH 620 0
DWIDTH 5 0
BBX 5 6 0 0
BITMAP
1D80
8A40
8A00
0B00
0B00
1340
ENDCHAR
STARTCHAR uni0426
ENCODING 1062
SWIDTH 692 0
DWIDTH 6 0
BBX 6 7 0 -1
BITMAP
2C90
9CD0
98C0
2580
3680
3B40
02D0
ENDCHAR
STARTCHAR uni0427
ENCODING 1063
SWIDTH 695 0
DWIDTH 6 0
BBX 6 6 0 0
BITMAP
2C60
9C90
98D0
0AC0
01C0
0280
ENDCHAR
STARTCHAR uni0428
ENCODING 1064
SWIDTH 906 0
DWIDTH 7 0
BBX 8 6 0 0
BITMAP
2CD9
9CCC
999C
2698
3668
3BB4
ENDCHAR
STARTCHAR uni0429
ENCODING 1065
SWIDTH 934 0
DWIDTH 7 0
BBX 8 7 0 -1
BITMAP
2CD9
9CCC
999C
2698
3664
3B74
01AD
ENDCHAR
STARTCHAR uni042A
ENCODING 1066
SWIDTH 714 0
DWIDTH 6 0
BBX 6 6 0 0
BITMAP
2A00
8900
4E80
0C90
18D0
2A80
ENDCHAR
STARTCHAR uni042B
ENCODING 1067
SWIDTH 909 0
DWIDTH 7 0
BBX 8 6 0 0
BITMAP
2C09
9C0D
5A5C
2598
35A8
3764
ENDCHAR
STARTCHAR uni042C
ENCODING 1068
SWIDTH 640 0
DWIDTH 5 0
BBX 5 6 0 0
BITMAP
2C00
9C00
5A40
2580
3580
3740
ENDCHAR
STARTCHAR uni042D
ENCODING 1069
SWIDTH 544 0
DWIDTH 4 0
BBX 5 6 0 0
BITMAP
2A00
0340
1B40
0700
8A00
9800
ENDCHAR
STARTCHAR uni042E
ENCODING 1070
SWIDTH 946 0
DWIDTH 8 0
BBX 8 6 0 0
BITMAP
2C68
9CC9
5E89
264D
3758
31A0
ENDCHAR
STARTCHAR uni042F
ENCODING 1071
SWIDTH 630 0
DWIDTH 5 0
BBX 6 6 0 0
BITMAP
1980
2350
2700
2A00
9900
8D00
ENDCHAR
STARTCHAR uni0430
ENCODING 1072
SWIDTH 526 0
DWIDTH 4 0
BBX 4 4 0 0
BITMAP
6A
9A
CD
EA
ENDCHAR
STARTCHAR uni0431
ENCODING 1073
SWIDTH 430 0
DWIDTH 3 0
BBX 5 6 0 0
BITMAP
2F40
1800
2800
9800
C800
A400
ENDCHAR
STARTCHAR uni0432
ENCODING 1074
SWIDTH 449 0
DWIDTH 4 0
BBX 4 6 0 0
BITMAP
18
65
94
DD
C8
A4
ENDCHAR
STARTCHAR uni0433
ENCODING 1075
SWIDTH 375 0
DWIDTH 3 0
BBX 3 4 0 0
BITMAP
78
64
90
E4
ENDCHAR
STARTCHAR uni0434
ENCODING 1076
SWIDTH 507 0
DWIDTH 4 0
BBX 4 6 0 -2
BITMAP
6A
9A
CD
ED
6C
64
ENDCHAR
STARTCHAR uni0435
ENCODING 1077
SWIDTH 384 0
DWIDTH 3 0
BBX 3 4 0 0
BITMAP
68
98
D0
A4
ENDCHAR
STARTCHAR uni0436
ENCODING 1078
SWIDTH 882 0
DWIDTH 7 0
BBX 7 4 0 0
BITMAP
6768
2B90
6690
A664
ENDCHAR
STARTCHAR uni0437
ENCODING 1079
SWIDTH 498 0
DWIDTH 4 0
BBX 4 6 0 -2
BITMAP
6D
4D
29
1D
68
64
ENDCHAR
STARTCHAR uni0438
ENCODING 1080
SWIDTH 505 0
DWIDTH 4 0
BBX 4 4 0 0
BITMAP
AA
99
DD
EE
ENDCHAR
STARTCHAR uni0439
ENCODING 1081
SWIDTH 505 0
DWIDTH 4 0
BBX 4 6 0 0
BITMAP
11
24
AA
99
DD
EE
ENDCHAR
STARTCHAR uni043A
ENCODING 1082
SWIDTH 501 0
DWIDTH 4 0
BBX 5 4 -1 0
BITMAP
2980
2E00
3700
7380
ENDCHAR
STARTCHAR uni043B
ENCODING 1083
SWIDTH 558 0
DWIDTH 4 0
BBX 5 4 0 0
BITMAP
0B00
1600
5A40
9740
ENDCHAR
STARTCHAR uni043C
ENCODING 1084
SWIDTH 827 0
DWIDTH 7 0
BBX 7 4 0 0
BITMAP
0D70
19B0
5AA4
9A74
ENDCHAR
STARTCHAR uni043D
ENCODING 1085
SWIDTH 507 0
DWIDTH 4 0
BBX 5 4 -1 0
BITMAP
2A80
2B40
3340
7280
ENDCHAR
STARTCHAR uni043E
ENCODING 1086
SWIDTH 439 0
DWIDTH 4 0
BBX 4 4 0 0
BITMAP
68
99
C8
A4
ENDCHAR
STARTCHAR uni043F
ENCODING 1087
SWIDTH 505 0
DWIDTH 4 0
BBX 5 4 -1 0
BITMAP
2F40
2640
3700
7280
ENDCHAR
STARTCHAR uni0440
ENCODING 1088
SWIDTH 468 0
DWIDTH 4 0
BBX 5 7 -1 -2
BITMAP
1400
2A40
2640
3240
7A00
6000
9000
ENDCHAR
STARTCHAR uni0441
ENCODING 1089
SWIDTH 384 0
DWIDTH 3 0
BBX 3 4 0 0
BITMAP
68
90
C0
A4
ENDCHAR
STARTCHAR uni0442
ENCODING 1090
SWIDTH 752 0
DWIDTH 6 0
BBX 7 4 -1 0
BITMAP
2FB4
2664
3730
7738
ENDCHAR
STARTCHAR uni0443
ENCODING 1091
SWIDTH 486 0
DWIDTH 4 0
BBX 4 6 0 -2
BITMAP
AA
99
DD
ED
68
64
ENDCHAR
STARTCHAR uni0444
ENCODING 1092
SWIDTH 738 0
DWIDTH 6 0
BBX 6 8 0 -2
BITMAP
0100
0700
6A90
99A0
CD90
EE80
1800
1400
ENDCHAR
STARTCHAR uni0445
ENCODING 1093
SWIDTH 522 0
DWIDTH 4 0
BBX 4 4 0 0
BITMAP
2A
5D
5C
5A
ENDCHAR
STARTCHAR uni0446
ENCODING 1094
SWIDTH 535 0
DWIDTH 4 0
BBX 4 6 0 -2
BITMAP
AA
9D
DD
EA
2D
40
ENDCHAR
STARTCHAR uni0447
ENCODING 1095
SWIDTH 505 0
DWIDTH 4 0
BBX 4 4 0 0
BITMAP
AA
9D
6D
0E
ENDCHAR
STARTCHAR uni0448
ENCODING 1096
SWIDTH 752 0
DWIDTH 6 0
BBX 6 4 0 0
BITMAP
AAA0
9990
DDD0
EEE0
ENDCHAR
STARTCHAR uni0449
ENCODING 1097
SWIDTH 782 0
DWIDTH 6 0
BBX 6 6 0 -2
BITMAP
AAA0
9DD0
DDD0
EAE0
02D0
0400
ENDCHAR
STARTCHAR uni044A
ENCODING 1098
SWIDTH 448 0
DWIDTH 4 0
BBX 4 4 0 0
BITMAP
A0
68
DD
A8
ENDCHAR
STARTCHAR uni044B
ENCODING 1099
SWIDTH 655 0
DWIDTH 5 0
BBX 5 4 0 0
BITMAP
A180
AA80
CA40
A680
ENDCHAR
STARTCHAR uni044C
ENCODING 1100
SWIDTH 448 0
DWIDTH 4 0
BBX 3 4 0 0
BITMAP
A0
A8
DC
A8
ENDCHAR
STARTCHAR uni044D
ENCODING 1101
SWIDTH 413 0
DWIDTH 3 0
BBX 4 4 -1 0
BITMAP
1A
0B
0A
68
ENDCHAR
STARTCHAR uni044E
ENCODING 1102
SWIDTH 675 0
DWIDTH 5 0
BBX 7 4 -1 0
BITMAP
29A0
2B64
3720
7380
ENDCHAR
STARTCHAR uni044F
ENCODING 1103
SWIDTH 527 0
DWIDTH 4 0
BBX 5 4 0 0
BITMAP
2A00
6A00
6940
9A00
ENDCHAR
STARTCHAR uni0450
ENCODING 1104
SWIDTH 384 0
DWIDTH 3 0
BBX 3 6 0 0
BITMAP
20
14
68
98
D0
A4
ENDCHAR
STARTCHAR uni0451
ENCODING 1105
SWIDTH 384 0
DWIDTH 3 0
BBX 4 6 0 0
BITMAP
25
00
68
98
D0
A4
ENDCHAR
STARTCHAR uni0452
ENCODING 1106
SWIDTH 491 0
DWIDTH 4 0
BBX 5 8 -1 -2
BITMAP
0800
2D00
2A00
2740
3340
7740
1A00
1900
ENDCHAR
STARTCHAR uni0453
ENCODING 1107
SWIDTH 375 0
DWIDTH 3 0
BBX 3 6 0 0
BITMAP
04
04
78
64
90
E4
ENDCHAR
STARTCHAR uni0454
ENCODING 1108
SWIDTH 384 0
DWIDTH 3 0
BBX 3 4 0 0
BITMAP
68
A4
C0
A4
ENDCHAR
STARTCHAR uni0455
ENCODING 1109
SWIDTH 382 0
DWIDTH 3 0
BBX 3 4 0 0
BITMAP
34
64
A8
A4
ENDCHAR
STARTCHAR uni0456
ENCODING 1110
SWIDTH 267 0
DWIDTH 2 0
BBX 2 6 0 0
BITMAP
60
00
A0
90
D0
E0
ENDCHAR
STARTCHAR uni0457
ENCODING 1111
SWIDTH 267 0
DWIDTH 2 0
BBX 3 6 0 0
BITMAP
94
00
A0
90
D0
E0
ENDCHAR
STARTCHAR uni0458
ENCODING 1112
SWIDTH 240 0
DWIDTH 2 0
BBX 4 8 -2 -2
BITMAP
06
00
0A
09
0D
1D
68
64
ENDCHAR
STARTCHAR uni0459
ENCODING 1113
SWIDTH 745 0
DWIDTH 6 0
BBX 6 4 0 0
BITMAP
0B00
1790
6A60
9680
ENDCHAR
STARTCHAR uni045A
ENCODING 1114
SWIDTH 694 0
DWIDTH 6 0
BBX 6 4 -1 0
BITMAP
2A80
2BB0
3330
7290
ENDCHAR
STARTCHAR uni045B
ENCODING 1115
SWIDTH 505 0
DWIDTH 4 0
BBX 5 6 -1 0
BITMAP
0800
2D00
2A00
2740
3300
7380
ENDCHAR
STARTCHAR uni045C
ENCODING 1116
SWIDTH 501 0
DWIDTH 4 0
BBX 5 6 -1 0
BITMAP
0140
0200
2980
2E00
3700
7380
ENDCHAR
STARTCHAR uni045D
ENCODING 1117
SWIDTH 505 0
DWIDTH 4 0
BBX 4 6 0 0
BITMAP
14
04
AA
99
DD
EE
ENDCHAR
STARTCHAR uni045E
ENCODING 1118
SWIDTH 486 0
DWIDTH 4 0
BBX 4 8 0 -2
BITMAP
11
24
AA
99
DD
ED
68
64
ENDCHAR
STARTCHAR uni045F
ENCODING 1119
SWIDTH 505 0
DWIDTH 4 0
BBX 4 6 0 -2
BITMAP
AA
99
DD
EE
20
10
ENDCHAR
STARTCHAR uni0462
ENCODING 1122
SWIDTH 659 0
DWIDTH 5 0
BBX 5 6 0 0
BITMAP
0C00
6E80
6A40
2580
3280
7B00
ENDCHAR
STARTCHAR uni0463
ENCODING 1123
SWIDTH 692 0
DWIDTH 6 0
BBX 6 4 -1 0
BITMAP
2F40
26A0
3330
72A0
ENDCHAR
STARTCHAR uni046A
ENCODING 1130
SWIDTH 834 0
DWIDTH 7 0
BBX 6 6 0 0
BITMAP
1B60
5750
1BA0
3770
3330
6770
ENDCHAR
STARTCHAR uni046B
ENCODING 1131
SWIDTH 750 0
DWIDTH 6 0
BBX 5 4 0 0
BITMAP
6E80
2A80
3AC0
69C0
ENDCHAR
STARTCHAR uni0472
ENCODING 1138
SWIDTH 665 0
DWIDTH 5 0
BBX 6 6 0 0
BITMAP
1A80
A8D0
A9D0
32C0
3280
2A00
ENDCHAR
STARTCHAR uni0473
ENCODING 1139
SWIDTH 439 0
DWIDTH 4 0
BBX 4 4 0 0
BITMAP
68
99
E8
A4
ENDCHAR
STARTCHAR uni0474
ENCODING 1140
SWIDTH 668 0
DWIDTH 5 0
BBX 6 6 0 0
BITMAP
1D60
8D80
8D40
0E00
0E00
0D00
ENDCHAR
STARTCHAR uni0475
ENCODING 1141
SWIDTH 414 0
DWIDTH 3 0
BBX 3 4 0 0
BITMAP
A8
94
D8
E4
ENDCHAR
STARTCHAR uni0490
ENCODING 1168
SWIDTH 431 0
DWIDTH 3 0
BBX 5 7 0 0
BITMAP
0040
6F80
9800
A800
2400
3400
3000
ENDCHAR
STARTCHAR uni0491
ENCODING 1169
SWIDTH 342 0
DWIDTH 3 0
BBX 4 5 -1 0
BITMAP
01
29
24
30
70
ENDCHAR
STARTCHAR uni0492
ENCODING 1170
SWIDTH 400 0
DWIDTH 3 0
BBX 5 6 0 0
BITMAP
6E80
9C00
9800
2800
3400
3000
ENDCHAR
STARTCHAR uni0493
ENCODING 1171
SWIDTH 375 0
DWIDTH 3 0
BBX 3 4 0 0
BITMAP
78
A4
C4
E4
ENDCHAR
STARTCHAR uni0494
ENCODING 1172
SWIDTH 665 0
DWIDTH 5 0
BBX 5 6 0 0
BITMAP
6E80
9C00
5E40
25C0
3580
3A00
ENDCHAR
STARTCHAR uni0495
ENCODING 1173
SWIDTH 486 0
DWIDTH 4 0
BBX 5 6 -1 -2
BITMAP
2E40
2A00
3740
7740
1A00
1900
ENDCHAR
STARTCHAR uni0496
ENCODING 1174
SWIDTH 777 0
DWIDTH 6 0
BBX 7 8 0 -2
BITMAP
3664
0B80
1B80
6AA0
9990
CDD0
0080
0090
ENDCHAR
STARTCHAR uni0497
ENCODING 1175
SWIDTH 882 0
DWIDTH 7 0
BBX 7 6 0 -2
BITMAP
6768
2B90
6690
A664
0020
0020
ENDCHAR
STARTCHAR uni0498
ENCODING 1176
SWIDTH 525 0
DWIDTH 4 0
BBX 4 8 0 -2
BITMAP
1A
07
1D
0A
8A
A8
20
24
ENDCHAR
STARTCHAR uni0499
ENCODING 1177
SWIDTH 498 0
DWIDTH 4 0
BBX 4 8 0 -4
BITMAP
2C
4D
4C
29
2C
64
60
10
ENDCHAR
STARTCHAR uni049A
ENCODING 1178
SWIDTH 635 0
DWIDTH 5 0
BBX 6 8 0 -2
BITMAP
2DD0
9E00
5E00
2640
3740
3300
0300
0240
ENDCHAR
STARTCHAR uni049B
ENCODING 1179
SWIDTH 501 0
DWIDTH 4 0
BBX 5 6 -1 -2
BITMAP
2980
2E00
3700
7380
0200
0100
ENDCHAR
STARTCHAR uni049C
ENCODING 1180
SWIDTH 721 0
DWIDTH 6 0
BBX 6 6 0 0
BITMAP
2C70
9D40
5F40
2980
3680
3240
ENDCHAR
STARTCHAR uni049D
ENCODING 1181
SWIDTH 551 0
DWIDTH 4 0
BBX 6 4 -1 0
BITMAP
2990
2A00
3A40
71D0
ENDCHAR
STARTCHAR uni04A0
ENCODING 1184
SWIDTH 691 0
DWIDTH 6 0
BBX 6 6 0 0
BITMAP
6EA0
8A00
4E40
1D80
1980
2A80
ENDCHAR
STARTCHAR uni04A1
ENCODING 1185
SWIDTH 676 0
DWIDTH 5 0
BBX 6 4 0 0
BITMAP
AD80
9E00
2A40
2590
ENDCHAR
STARTCHAR uni04A2
ENCODING 1186
SWIDTH 665 0
DWIDTH 5 0
BBX 6 7 0 -1
BITMAP
2C90
9CD0
5EC0
2580
3680
3240
00D0
ENDCHAR
STARTCHAR uni04A3
ENCODING 1187
SWIDTH 507 0
DWIDTH 4 0
BBX 5 6 -1 -2
BITMAP
2A80
2B40
3340
7380
0240
0100
ENDCHAR
STARTCHAR uni04A4
ENCODING 1188
SWIDTH 689 0
DWIDTH 6 0
BBX 8 6 0 0
BITMAP
1CA9
9CD0
5EC0
2580
3680
3240
ENDCHAR
STARTCHAR uni04A5
ENCODING 1189
SWIDTH 681 0
DWIDTH 5 0
BBX 7 4 -1 0
BITMAP
2AE4
2B40
3340
7280
ENDCHAR
STARTCHAR uni04AA
ENCODING 1194
SWIDTH 497 0
DWIDTH 4 0
BBX 4 8 0 -2
BITMAP
1A
71
A0
A0
A0
79
24
18
ENDCHAR
STARTCHAR uni04AB
ENCODING 1195
SWIDTH 384 0
DWIDTH 3 0
BBX 3 6 0 -2
BITMAP
68
90
C0
A4
60
10
ENDCHAR
STARTCHAR uni04AE
ENCODING 1198
SWIDTH 620 0
DWIDTH 5 0
BBX 6 6 0 0
BITMAP
1D10
8A40
8A40
0700
0600
0A00
ENDCHAR
STARTCHAR uni04AF
ENCODING 1199
SWIDTH 480 0
DWIDTH 4 0
BBX 4 6 0 -2
BITMAP
A5
61
64
74
70
60
ENDCHAR
STARTCHAR uni04B0
ENCODING 1200
SWIDTH 620 0
DWIDTH 5 0
BBX 6 6 0 0
BITMAP
1D10
8A40
8A40
0B40
0600
0A00
ENDCHAR
STARTCHAR uni04B1
ENCODING 1201
SWIDTH 480 0
DWIDTH 4 0
BBX 4 6 0 -2
BITMAP
A5
61
64
B8
70
60
ENDCHAR
STARTCHAR uni04B6
ENCODING 1206
SWIDTH 695 0
DWIDTH 6 0
BBX 6 7 0 -1
BITMAP
2C60
9C90
98D0
0AC0
0180
0280
00A0
ENDCHAR
STARTCHAR uni04B7
ENCODING 1207
SWIDTH 505 0
DWIDTH 4 0
BBX 4 6 0 -2
BITMAP
AA
9D
6D
0E
08
04
ENDCHAR
STARTCHAR uni04B8
ENCODING 1208
SWIDTH 715 0
DWIDTH 6 0
BBX 6 6 0 0
BITMAP
2C70
9CA0
9990
0AD0
01C0
0180
ENDCHAR
STARTCHAR uni04B9
ENCODING 1209
SWIDTH 545 0
DWIDTH 4 0
BBX 5 4 0 0
BITMAP
A700
AA00
7D40
0A40
ENDCHAR
STARTCHAR uni04BA
ENCODING 1210
SWIDTH 679 0
DWIDTH 5 0
BBX 5 6 0 0
BITMAP
2C00
9C00
5E40
25C0
35C0
3280
ENDCHAR
STARTCHAR uni04BB
ENCODING 1211
SWIDTH 505 0
DWIDTH 4 0
BBX 5 6 -1 0
BITMAP
0400
1800
2F40
2640
3700
7280
ENDCHAR
STARTCHAR uni04C0
ENCODING 1216
SWIDTH 375 0
DWIDTH 3 0
BBX 3 6 0 0
BITMAP
2C
9C
A8
24
34
30
ENDCHAR
STARTCHAR uni04C1
ENCODING 1217
SWIDTH 777 0
DWIDTH 6 0
BBX 7 8 0 0
BITMAP
0100
0240
3664
0B80
1B80
6AA0
9990
CD90
ENDCHAR
STARTCHAR uni04C2
ENCODING 1218
SWIDTH 882 0
DWIDTH 7 0
BBX 7 6 0 0
BITMAP
0100
0240
6768
2B90
6690
A664
ENDCHAR
STARTCHAR uni04CB
ENCODING 1227
SWIDTH 695 0
DWIDTH 6 0
BBX 6 7 0 -1
BITMAP
2C60
9C90
58D0
0AC0
01C0
0280
1D00
ENDCHAR
STARTCHAR uni04CC
ENCODING 1228
SWIDTH 516 0
DWIDTH 4 0
BBX 4 6 0 -2
BITMAP
66
A9
6D
0A
78
40
ENDCHAR
STARTCHAR uni04CF
ENCODING 1231
SWIDTH 267 0
DWIDTH 2 0
BBX 2 6 0 0
BITMAP
20
60
A0
90
D0
E0
ENDCHAR
STARTCHAR uni04D0
ENCODING 1232
SWIDTH 668 0
DWIDTH 5 0
BBX 7 9 0 -1
BITMAP
0044
0090
0190
05D0
69C0
A580
3280
6240
6000
ENDCHAR
STARTCHAR uni04D1
ENCODING 1233
SWIDTH 526 0
DWIDTH 4 0
BBX 4 6 0 0
BITMAP
15
15
6A
9A
CD
EA
ENDCHAR
STARTCHAR uni04D2
ENCODING 1234
SWIDTH 668 0
DWIDTH 5 0
BBX 6 9 0 -1
BITMAP
0090
0000
0190
05D0
69C0
A580
3280
6240
6000
ENDCHAR
STARTCHAR uni04D3
ENCODING 1235
SWIDTH 526 0
DWIDTH 4 0
BBX 4 6 0 0
BITMAP
16
00
6A
9A
CD
EA
ENDCHAR
STARTCHAR uni04D4
ENCODING 1236
SWIDTH 764 0
DWIDTH 6 0
BBX 7 7 0 -1
BITMAP
01A8
05C0
69E0
6580
3280
62F0
6000
ENDCHAR
STARTCHAR uni04D5
ENCODING 1237
SWIDTH 650 0
DWIDTH 5 0
BBX 5 4 0 0
BITMAP
1A80
6E80
DD00
AA40
ENDCHAR
STARTCHAR uni04D6
ENCODING 1238
SWIDTH 459 0
DWIDTH 4 0
BBX 4 8 0 0
BITMAP
04
09
1A
31
24
A0
E1
B8
ENDCHAR
STARTCHAR uni04D7
ENCODING 1239
SWIDTH 384 0
DWIDTH 3 0
BBX 4 6 0 0
BITMAP
11
24
68
98
D0
A4
ENDCHAR
STARTCHAR uni04D8
ENCODING 1240
SWIDTH 544 0
DWIDTH 4 0
BBX 5 6 0 0
BITMAP
2E00
0340
1740
6700
9A00
A800
ENDCHAR
STARTCHAR uni04D9
ENCODING 1241
SWIDTH 404 0
DWIDTH 3 0
BBX 3 4 0 0
BITMAP
68
2C
98
A0
ENDCHAR
STARTCHAR uni04DC
ENCODING 1244
SWIDTH 777 0
DWIDTH 6 0
BBX 7 8 0 0
BITMAP
0140
0000
3664
0B80
1B80
6AA0
9990
CD90
ENDCHAR
STARTCHAR uni04DD
ENCODING 1245
SWIDTH 882 0
DWIDTH 7 0
BBX 7 6 0 0
BITMAP
0140
0000
6768
2B90
6690
A664
ENDCHAR
STARTCHAR uni04DE
ENCODING 1246
SWIDTH 525 0
DWIDTH 4 0
BBX 4 8 0 0
BITMAP
05
00
1A
07
1D
0A
8A
A8
ENDCHAR
STARTCHAR uni04DF
ENCODING 1247
SWIDTH 498 0
DWIDTH 4 0
BBX 4 8 0 -2
BITMAP
15
00
6D
4D
29
1D
68
64
ENDCHAR
STARTCHAR uni04E2
ENCODING 1250
SWIDTH 705 0
DWIDTH 6 0
BBX 6 7 0 0
BITMAP
0290
2CA0
9CE0
9AD0
29C0
39C0
3580
ENDCHAR
STARTCHAR uni04E3
ENCODING 1251
SWIDTH 505 0
DWIDTH 4 0
BBX 4 5 0 0
BITMAP
29
AA
99
DD
EE
ENDCHAR
STARTCHAR uni04E4
ENCODING 1252
SWIDTH 705 0
DWIDTH 6 0
BBX 6 8 0 0
BITMAP
0240
0000
2CA0
9CE0
9AD0
29C0
39C0
3580
ENDCHAR
STARTCHAR uni04E5
ENCODING 1253
SWIDTH 505 0
DWIDTH 4 0
BBX 4 6 0 0
BITMAP
15
00
AA
99
DD
EE
ENDCHAR
STARTCHAR uni04E6
ENCODING 1254
SWIDTH 665 0
DWIDTH 5 0
BBX 6 8 0 0
BITMAP
0140
0000
1A80
98D0
A4D0
34C0
3280
2A00
ENDCHAR
STARTCHAR uni04E7
ENCODING 1255
SWIDTH 439 0
DWIDTH 4 0
BBX 4 6 0 0
BITMAP
15
00
68
99
C8
A4
ENDCHAR
STARTCHAR uni04E8
ENCODING 1256
SWIDTH 665 0
DWIDTH 5 0
BBX 6 6 0 0
BITMAP
1680
5CD0
A8D0
39C0
3180
2A00
ENDCHAR
STARTCHAR uni04E9
ENCODING 1257
SWIDTH 439 0
DWIDTH 4 0
BBX 4 4 0 0
BITMAP
68
ED
C8
A4
ENDCHAR
STARTCHAR uni04EE
ENCODING 1262
SWIDTH 644 0
DWIDTH 5 0
BBX 6 7 0 0
BITMAP
0290
1D10
8A40
8680
0740
0200
1D00
ENDCHAR
STARTCHAR uni04EF
ENCODING 1263
SWIDTH 486 0
DWIDTH 4 0
BBX 4 7 0 -2
BITMAP
29
AA
99
DD
ED
68
64
ENDCHAR
STARTCHAR uni04F0
ENCODING 1264
SWIDTH 644 0
DWIDTH 5 0
BBX 6 8 0 0
BITMAP
0250
0000
1D10
8A40
8680
0740
0200
1D00
ENDCHAR
STARTCHAR uni04F1
ENCODING 1265
SWIDTH 486 0
DWIDTH 4 0
BBX 4 8 0 -2
BITMAP
15
00
AA
99
DD
ED
68
64
ENDCHAR
STARTCHAR uni04F2
ENCODING 1266
SWIDTH 644 0
DWIDTH 5 0
BBX 6 8 0 0
BITMAP
0160
0240
1D10
8A40
8680
0740
0200
1D00
ENDCHAR
STARTCHAR uni04F3
ENCODING 1267
SWIDTH 486 0
DWIDTH 4 0
BBX 4 8 0 -2
BITMAP
16
25
AA
99
DD
ED
68
64
ENDCHAR
STARTCHAR uni04F4
ENCODING 1268
SWIDTH 695 0
DWIDTH 6 0
BBX 6 8 0 0
BITMAP
0250
0000
2C60
9C90
98D0
0AC0
01C0
0280
ENDCHAR
STARTCHAR uni04F5
ENCODING 1269
SWIDTH 505 0
DWIDTH 4 0
BBX 4 6 0 0
BITMAP
25
00
AA
9D
6D
0E
ENDCHAR
STARTCHAR uni04F6
ENCODING 1270
SWIDTH 442 0
DWIDTH 4 0
BBX 5 7 0 -1
BITMAP
6E80
9C00
9800
2400
3400
3000
1D00
ENDCHAR
STARTCHAR uni04F7
ENCODING 1271
SWIDTH 375 0
DWIDTH 3 0
BBX 3 6 0 -2
BITMAP
78
64
90
E4
50
50
ENDCHAR
STARTCHAR uni04F8
ENCODING 1272
SWIDTH 909 0
DWIDTH 7 0
BBX 8 8 0 0
BITMAP
0050
0000
2C09
9C0D
5A5C
2598
35A8
3764
ENDCHAR
STARTCHAR uni04F9
ENCODING 1273
SWIDTH 642 0
DWIDTH 5 0
BBX 5 6 0 0
BITMAP
0500
0000
9180
AA40
CA40
A680
ENDCHAR
STARTCHAR uni051A
ENCODING 1306
SWIDTH 665 0
DWIDTH 5 0
BBX 6 7 0 -1
BITMAP
1A80
98D0
64D0
31C0
3680
2B00
0280
ENDCHAR
STARTCHAR uni051B
ENCODING 1307
SWIDTH 486 0
DWIDTH 4 0
BBX 4 6 0 -2
BITMAP
6A
9A
CD
EC
1C
18
ENDCHAR
STARTCHAR uni051C
ENCODING 1308
SWIDTH 962 0
DWIDTH 8 0
BBX 8 6 0 0
BITMAP
1D71
8DB2
8DB1
0D74
0E34
0D34
ENDCHAR
STARTCHAR uni051D
ENCODING 1309
SWIDTH 661 0
DWIDTH 5 0
BBX 5 4 0 0
BITMAP
AA80
9940
DC80
EE00
ENDCHAR
STARTCHAR uni0524
ENCODING 1316
SWIDTH 742 0
DWIDTH 6 0
BBX 6 7 0 -1
BITMAP
6EE0
9CD0
58C0
2580
3680
3240
00D0
ENDCHAR
STARTCHAR uni0525
ENCODING 1317
SWIDTH 505 0
DWIDTH 4 0
BBX 5 6 -1 -2
BITMAP
2F40
2640
3700
7380
0200
0100
ENDCHAR
STARTCHAR uni1E0C
ENCODING 7692
SWIDTH 663 0
DWIDTH 5 0
BBX 5 8 0 -2
BITMAP
2A40
9CC0
58C0
25C0
3680
3A00
0000
1800
ENDCHAR
STARTCHAR uni1E0D
ENCODING 7693
SWIDTH 525 0
DWIDTH 4 0
BBX 4 8 0 -2
BITMAP
01
07
6A
9A
CD
EA
00
60
ENDCHAR
STARTCHAR uni1E20
ENCODING 7712
SWIDTH 578 0
DWIDTH 5 0
BBX 5 10 0 -2
BITMAP
0A40
0000
2A40
6140
9100
9300
6B00
2600
5900
1400
ENDCHAR
STARTCHAR uni1E21
ENCODING 7713
SWIDTH 507 0
DWIDTH 4 0
BBX 4 8 0 -2
BITMAP
19
00
6A
9A
CD
ED
6C
64
ENDCHAR
STARTCHAR uni1E24
ENCODING 7716
SWIDTH 665 0
DWIDTH 5 0
BBX 6 8 0 -2
BITMAP
1C90
9CD0
5EC0
2580
3680
3240
0000
1800
ENDCHAR
STARTCHAR uni1E25
ENCODING 7717
SWIDTH 505 0
DWIDTH 4 0
BBX 5 8 -1 -2
BITMAP
0400
1800
2F40
2640
3700
7280
0000
1800
ENDCHAR
STARTCHAR uni1E2A
ENCODING 7722
SWIDTH 665 0
DWIDTH 5 0
BBX 6 8 0 -2
BITMAP
1C90
9CD0
5EC0
2580
3680
3240
1100
1500
ENDCHAR
STARTCHAR uni1E2B
ENCODING 7723
SWIDTH 505 0
DWIDTH 4 0
BBX 5 8 -1 -2
BITMAP
0400
1800
2F40
2640
3700
7280
1100
1400
ENDCHAR
STARTCHAR uni1E36
ENCODING 7734
SWIDTH 379 0
DWIDTH 3 0
BBX 5 8 0 -2
BITMAP
2C00
9C00
6800
2400
3400
7000
1900
62C0
ENDCHAR
STARTCHAR uni1E37
ENCODING 7735
SWIDTH 293 0
DWIDTH 2 0
BBX 3 7 0 -2
BITMAP
30
70
A0
90
A4
00
C0
ENDCHAR
STARTCHAR uni1E42
ENCODING 7746
SWIDTH 787 0
DWIDTH 6 0
BBX 7 8 0 -2
BITMAP
1A34
5A74
5EB0
2AB0
2B60
5A60
0000
0900
ENDCHAR
STARTCHAR uni1E43
ENCODING 7747
SWIDTH 752 0
DWIDTH 6 0
BBX 7 6 -1 -2
BITMAP
2FB4
2664
3730
7738
0000
0600
ENDCHAR
STARTCHAR uni1E44
ENCODING 7748
SWIDTH 668 0
DWIDTH 5 0
BBX 6 8 0 0
BITMAP
0180
0000
2D20
9D50
AA90
2780
2380
2280
ENDCHAR
STARTCHAR uni1E45
ENCODING 7749
SWIDTH 505 0
DWIDTH 4 0
BBX 5 6 -1 0
BITMAP
0300
0000
2F40
2640
3700
7280
ENDCHAR
STARTCHAR uni1E46
ENCODING 7750
SWIDTH 668 0
DWIDTH 5 0
BBX 6 8 0 -2
BITMAP
2D20
9D50
AA90
2780
2380
2280
0000
0C00
ENDCHAR
STARTCHAR uni1E47
ENCODING 7751
SWIDTH 505 0
DWIDTH 4 0
BBX 5 6 -1 -2
BITMAP
2F40
2640
3700
7280
0000
1800
ENDCHAR
STARTCHAR uni1E5A
ENCODING 7770
SWIDTH 601 0
DWIDTH 5 0
BBX 5 8 0 -2
BITMAP
1A40
9D80
6B00
2640
3700
3300
0000
1800
ENDCHAR
STARTCHAR uni1E5B
ENCODING 7771
SWIDTH 376 0
DWIDTH 3 0
BBX 4 6 -1 -2
BITMAP
2B
24
30
70
00
60
ENDCHAR
STARTCHAR uni1E60
ENCODING 7776
SWIDTH 570 0
DWIDTH 5 0
BBX 5 8 0 0
BITMAP
0600
0000
1A40
2540
1D00
1B00
9300
6900
ENDCHAR
STARTCHAR uni1E61
ENCODING 7777
SWIDTH 382 0
DWIDTH 3 0
BBX 3 6 0 0
BITMAP
14
00
34
64
A8
A4
ENDCHAR
STARTCHAR uni1E62
ENCODING 7778
SWIDTH 570 0
DWIDTH 5 0
BBX 5 8 0 -2
BITMAP
1A40
2540
1D00
1B00
9300
6900
0000
3000
ENDCHAR
STARTCHAR uni1E63
ENCODING 7779
SWIDTH 382 0
DWIDTH 3 0
BBX 3 6 0 -2
BITMAP
24
74
A4
B4
00
C0
ENDCHAR
STARTCHAR uni1E6C
ENCODING 7788
SWIDTH 481 0
DWIDTH 4 0
BBX 6 8 0 -2
BITMAP
6F90
8900
4C00
1C00
1800
2800
0000
2400
ENDCHAR
STARTCHAR uni1E6D
ENCODING 7789
SWIDTH 267 0
DWIDTH 2 0
BBX 3 7 -1 -2
BITMAP
18
28
24
34
38
00
60
ENDCHAR
STARTCHAR Wgrave
ENCODING 7808
SWIDTH 962 0
DWIDTH 8 0
BBX 8 8 0 0
BITMAP
0060
0010
1D71
8DB2
8DB1
0D74
0E34
0D34
ENDCHAR
STARTCHAR wgrave
ENCODING 7809
SWIDTH 661 0
DWIDTH 5 0
BBX 5 6 0 0
BITMAP
0800
0400
AA80
9940
DC80
EE00
ENDCHAR
STARTCHAR Wacute
ENCODING 7810
SWIDTH 962 0
DWIDTH 8 0
BBX 8 8 0 0
BITMAP
0014
0010
1D71
8DB2
8DB1
0D74
0E34
0D34
ENDCHAR
STARTCHAR wacute
ENCODING 7811
SWIDTH 661 0
DWIDTH 5 0
BBX 5 6 0 0
BITMAP
0200
0100
AA80
9940
DC80
EE00
ENDCHAR
STARTCHAR Wdieresis
ENCODING 7812
SWIDTH 962 0
DWIDTH 8 0
BBX 8 7 0 0
BITMAP
0098
1D71
8DB2
8DB1
0D74
0E34
0D34
ENDCHAR
STARTCHAR wdieresis
ENCODING 7813
SWIDTH 661 0
DWIDTH 5 0
BBX 5 6 0 0
BITMAP
0A00
0000
AA80
9940
DC80
EE00
ENDCHAR
STARTCHAR uni1E8E
ENCODING 7822
SWIDTH 620 0
DWIDTH 5 0
BBX 6 8 0 0
BITMAP
0180
0000
1D10
8A40
8A40
0700
0600
0A00
ENDCHAR
STARTCHAR uni1E8F
ENCODING 7823
SWIDTH 505 0
DWIDTH 4 0
BBX 4 8 0 -2
BITMAP
18
00
AA
99
DD
ED
68
64
ENDCHAR
STARTCHAR uni1E92
ENCODING 7826
SWIDTH 542 0
DWIDTH 4 0
BBX 5 10 0 -2
BITMAP
0100
0200
6B40
0A00
0D00
2800
3100
BA00
0000
2400
ENDCHAR
STARTCHAR uni1E93
ENCODING 7827
SWIDTH 428 0
DWIDTH 3 0
BBX 3 6 0 -2
BITMAP
6C
28
30
A8
00
90
ENDCHAR
STARTCHAR uni1E97
ENCODING 7831
SWIDTH 267 0
DWIDTH 2 0
BBX 3 6 0 0
BITMAP
58
60
A0
90
D0
E0
ENDCHAR
STARTCHAR uni1E9E
ENCODING 7838
SWIDTH 559 0
DWIDTH 4 0
BBX 6 8 -1 -2
BITMAP
06E0
0DC0
1A80
2980
25C0
3640
7000
6000
ENDCHAR
STARTCHAR uni1EA0
ENCODING 7840
SWIDTH 668 0
DWIDTH 5 0
BBX 6 8 0 -2
BITMAP
0190
05D0
69C0
A580
3280
6240
6000
0900
ENDCHAR
STARTCHAR uni1EA1
ENCODING 7841
SWIDTH 526 0
DWIDTH 4 0
BBX 4 6 0 -2
BITMAP
6A
9A
CD
EA
00
60
ENDCHAR
STARTCHAR uni1EA2
ENCODING 7842
SWIDTH 668 0
DWIDTH 5 0
BBX 6 9 0 -1
BITMAP
0050
0050
0190
05D0
69C0
A580
3280
6240
6000
ENDCHAR
STARTCHAR uni1EA3
ENCODING 7843
SWIDTH 526 0
DWIDTH 4 0
BBX 4 6 0 0
BITMAP
05
04
6A
9A
CD
EA
ENDCHAR
STARTCHAR uni1EA4
ENCODING 7844
SWIDTH 668 0
DWIDTH 5 0
BBX 7 9 0 -1
BITMAP
0014
0050
0190
05D0
69C0
A580
3280
6240
6000
ENDCHAR
STARTCHAR uni1EA5
ENCODING 7845
SWIDTH 526 0
DWIDTH 4 0
BBX 5 7 0 0
BITMAP
0040
0900
0000
6A00
9A00
CD00
EA00
ENDCHAR
STARTCHAR uni1EA6
ENCODING 7846
SWIDTH 668 0
DWIDTH 5 0
BBX 7 9 0 -1
BITMAP
0014
0050
0190
05D0
69C0
A580
3280
6240
6000
ENDCHAR
STARTCHAR uni1EA7
ENCODING 7847
SWIDTH 526 0
DWIDTH 4 0
BBX 4 7 0 0
BITMAP
01
05
00
6A
9A
CD
EA
ENDCHAR
STARTCHAR uni1EA8
ENCODING 7848
SWIDTH 668 0
DWIDTH 5 0
BBX 7 9 0 -1
BITMAP
0014
0000
0190
05D0
69C0
A580
3280
6240
6000
ENDCHAR
STARTCHAR uni1EA9
ENCODING 7849
SWIDTH 526 0
DWIDTH 4 0
BBX 5 7 0 0
BITMAP
0040
0900
0000
6A00
9A00
CD00
EA00
ENDCHAR
STARTCHAR uni1EAA
ENCODING 7850
SWIDTH 668 0
DWIDTH 5 0
BBX 6 9 0 -1
BITMAP
0060
0050
0190
05D0
69C0
A580
3280
6240
6000
ENDCHAR
STARTCHAR uni1EAB
ENCODING 7851
SWIDTH 526 0
DWIDTH 4 0
BBX 4 7 0 0
BITMAP
05
09
00
6A
9A
CD
EA
ENDCHAR
STARTCHAR uni1EAC
ENCODING 7852
SWIDTH 668 0
DWIDTH 5 0
BBX 6 10 0 -2
BITMAP
0010
0060
0190
05D0
69C0
A580
3280
6240
6000
0900
ENDCHAR
STARTCHAR uni1EAD
ENCODING 7853
SWIDTH 526 0
DWIDTH 4 0
BBX 4 8 0 -2
BITMAP
09
11
6A
9A
CD
EA
00
60
ENDCHAR
STARTCHAR uni1EAE
ENCODING 7854
SWIDTH 668 0
DWIDTH 5 0
BBX 6 9 0 -1
BITMAP
0020
0050
0190
05D0
69C0
A580
3280
6240
6000
ENDCHAR
STARTCHAR uni1EAF
ENCODING 7855
SWIDTH 526 0
DWIDTH 4 0
BBX 4 7 0 0
BITMAP
01
26
15
6A
9A
CD
EA
ENDCHAR
STARTCHAR uni1EB0
ENCODING 7856
SWIDTH 668 0
DWIDTH 5 0
BBX 6 9 0 -1
BITMAP
0050
0050
0190
05D0
69C0
A580
3280
6240
6000
ENDCHAR
STARTCHAR uni1EB1
ENCODING 7857
SWIDTH 526 0
DWIDTH 4 0
BBX 4 7 0 0
BITMAP
08
22
15
6A
9A
CD
EA
ENDCHAR
STARTCHAR uni1EB2
ENCODING 7858
SWIDTH 668 0
DWIDTH 5 0
BBX 6 9 0 -1
BITMAP
0050
0050
0190
05D0
69C0
A580
3280
6240
6000
ENDCHAR
STARTCHAR uni1EB3
ENCODING 7859
SWIDTH 526 0
DWIDTH 4 0
BBX 4 7 0 0
BITMAP
04
26
15
6A
9A
CD
EA
ENDCHAR
STARTCHAR uni1EB4
ENCODING 7860
SWIDTH 668 0
DWIDTH 5 0
BBX 6 9 0 -1
BITMAP
0050
0050
0190
05D0
69C0
A580
3280
6240
6000
ENDCHAR
STARTCHAR uni1EB5
ENCODING 7861
SWIDTH 526 0
DWIDTH 4 0
BBX 4 7 0 0
BITMAP
05
22
05
6A
9A
CD
EA
ENDCHAR
STARTCHAR uni1EB6
ENCODING 7862
SWIDTH 668 0
DWIDTH 5 0
BBX 7 10 0 -2
BITMAP
0044
0090
0190
05D0
69C0
A580
3280
6240
6000
0900
ENDCHAR
STARTCHAR uni1EB7
ENCODING 7863
SWIDTH 526 0
DWIDTH 4 0
BBX 4 8 0 -2
BITMAP
22
15
6A
9A
CD
EA
00
60
ENDCHAR
STARTCHAR uni1EB8
ENCODING 7864
SWIDTH 459 0
DWIDTH 4 0
BBX 4 8 0 -2
BITMAP
1A
31
24
A0
E1
B8
00
60
ENDCHAR
STARTCHAR uni1EB9
ENCODING 7865
SWIDTH 384 0
DWIDTH 3 0
BBX 3 6 0 -2
BITMAP
68
98
D0
A4
00
90
ENDCHAR
STARTCHAR uni1EBA
ENCODING 7866
SWIDTH 459 0
DWIDTH 4 0
BBX 4 8 0 0
BITMAP
05
05
1A
31
24
A0
E1
B8
ENDCHAR
STARTCHAR uni1EBB
ENCODING 7867
SWIDTH 384 0
DWIDTH 3 0
BBX 3 6 0 0
BITMAP
18
04
68
98
D0
A4
ENDCHAR
STARTCHAR uni1EBC
ENCODING 7868
SWIDTH 459 0
DWIDTH 4 0
BBX 4 8 0 0
BITMAP
05
01
1A
31
24
A0
E1
B8
ENDCHAR
STARTCHAR uni1EBD
ENCODING 7869
SWIDTH 384 0
DWIDTH 3 0
BBX 4 6 0 0
BITMAP
79
04
68
98
D0
A4
ENDCHAR
STARTCHAR uni1EBE
ENCODING 7870
SWIDTH 459 0
DWIDTH 4 0
BBX 5 8 0 0
BITMAP
0140
0500
1A00
3100
2400
A000
E100
B800
ENDCHAR
STARTCHAR uni1EBF
ENCODING 7871
SWIDTH 384 0
DWIDTH 3 0
BBX 5 7 0 0
BITMAP
0140
0800
1000
6800
9800
D000
A400
ENDCHAR
STARTCHAR uni1EC0
ENCODING 7872
SWIDTH 459 0
DWIDTH 4 0
BBX 5 8 0 0
BITMAP
0140
0500
1A00
3100
2400
A000
E100
B800
ENDCHAR
STARTCHAR uni1EC1
ENCODING 7873
SWIDTH 384 0
DWIDTH 3 0
BBX 4 7 0 0
BITMAP
02
18
00
68
98
D0
A4
ENDCHAR
STARTCHAR uni1EC2
ENCODING 7874
SWIDTH 459 0
DWIDTH 4 0
BBX 5 8 0 0
BITMAP
0040
0000
1A00
3100
2400
A000
E100
B800
ENDCHAR
STARTCHAR uni1EC3
ENCODING 7875
SWIDTH 384 0
DWIDTH 3 0
BBX 4 7 0 0
BITMAP
01
09
10
68
98
D0
A4
ENDCHAR
STARTCHAR uni1EC4
ENCODING 7876
SWIDTH 459 0
DWIDTH 4 0
BBX 4 8 0 0
BITMAP
06
05
1A
31
24
A0
E1
B8
ENDCHAR
STARTCHAR uni1EC5
ENCODING 7877
SWIDTH 384 0
DWIDTH 3 0
BBX 4 7 0 0
BITMAP
05
08
10
68
98
D0
A4
ENDCHAR
STARTCHAR uni1EC6
ENCODING 7878
SWIDTH 459 0
DWIDTH 4 0
BBX 4 10 0 -2
BITMAP
01
06
1A
31
24
A0
E1
B8
00
60
ENDCHAR
STARTCHAR uni1EC7
ENCODING 7879
SWIDTH 384 0
DWIDTH 3 0
BBX 3 8 0 -2
BITMAP
08
14
68
98
D0
A4
00
90
ENDCHAR
STARTCHAR uni1EC8
ENCODING 7880
SWIDTH 375 0
DWIDTH 3 0
BBX 4 8 0 0
BITMAP
05
05
2C
9C
A8
24
34
30
ENDCHAR
STARTCHAR uni1EC9
ENCODING 7881
SWIDTH 267 0
DWIDTH 2 0
BBX 2 6 0 0
BITMAP
20
10
A0
90
D0
E0
ENDCHAR
STARTCHAR uni1ECA
ENCODING 7882
SWIDTH 375 0
DWIDTH 3 0
BBX 3 8 0 -2
BITMAP
2C
9C
A8
24
34
30
00
60
ENDCHAR
STARTCHAR uni1ECB
ENCODING 7883
SWIDTH 267 0
DWIDTH 2 0
BBX 3 8 -1 -2
BITMAP
18
00
28
24
34
38
00
60
ENDCHAR
STARTCHAR uni1ECC
ENCODING 7884
SWIDTH 665 0
DWIDTH 5 0
BBX 6 8 0 -2
BITMAP
1A80
98D0
A4D0
34C0
3280
2A00
0000
1800
ENDCHAR
STARTCHAR uni1ECD
ENCODING 7885
SWIDTH 433 0
DWIDTH 3 0
BBX 4 6 0 -2
BITMAP
68
D9
C8
A4
00
90
ENDCHAR
STARTCHAR uni1ECE
ENCODING 7886
SWIDTH 665 0
DWIDTH 5 0
BBX 6 8 0 0
BITMAP
0140
0140
1A80
98D0
A4D0
34C0
3280
2A00
ENDCHAR
STARTCHAR uni1ECF
ENCODING 7887
SWIDTH 433 0
DWIDTH 3 0
BBX 4 6 0 0
BITMAP
08
04
68
D9
C8
A4
ENDCHAR
STARTCHAR uni1ED0
ENCODING 7888
SWIDTH 665 0
DWIDTH 5 0
BBX 6 8 0 0
BITMAP
0050
0140
1A80
98D0
A4D0
34C0
3280
2A00
ENDCHAR
STARTCHAR uni1ED1
ENCODING 7889
SWIDTH 433 0
DWIDTH 3 0
BBX 5 7 0 0
BITMAP
0140
0800
1000
6800
D900
C800
A400
ENDCHAR
STARTCHAR uni1ED2
ENCODING 7890
SWIDTH 665 0
DWIDTH 5 0
BBX 6 8 0 0
BITMAP
0140
0140
1A80
98D0
A4D0
34C0
3280
2A00
ENDCHAR
STARTCHAR uni1ED3
ENCODING 7891
SWIDTH 433 0
DWIDTH 3 0
BBX 4 7 0 0
BITMAP
02
18
00
68
D9
C8
A4
ENDCHAR
STARTCHAR uni1ED4
ENCODING 7892
SWIDTH 665 0
DWIDTH 5 0
BBX 6 8 0 0
BITMAP
0040
0000
1A80
98D0
A4D0
34C0
3280
2A00
ENDCHAR
STARTCHAR uni1ED5
ENCODING 7893
SWIDTH 433 0
DWIDTH 3 0
BBX 4 7 0 0
BITMAP
01
09
10
68
D9
C8
A4
ENDCHAR
STARTCHAR uni1ED6
ENCODING 7894
SWIDTH 665 0
DWIDTH 5 0
BBX 6 8 0 0
BITMAP
0240
0140
1A80
98D0
A4D0
34C0
3280
2A00
ENDCHAR
STARTCHAR uni1ED7
ENCODING 7895
SWIDTH 433 0
DWIDTH 3 0
BBX 4 7 0 0
BITMAP
09
08
10
68
D9
C8
A4
ENDCHAR
STARTCHAR uni1ED8
ENCODING 7896
SWIDTH 665 0
DWIDTH 5 0
BBX 6 10 0 -2
BITMAP
0100
0640
1A80
98D0
A4D0
34C0
3280
2A00
0000
1800
ENDCHAR
STARTCHAR uni1ED9
ENCODING 7897
SWIDTH 433 0
DWIDTH 3 0
BBX 4 8 0 -2
BITMAP
18
14
68
D9
C8
A4
00
90
ENDCHAR
STARTCHAR uni1EDA
ENCODING 7898
SWIDTH 665 0
DWIDTH 5 0
BBX 6 8 0 0
BITMAP
0140
0120
1A90
98D0
A4D0
34C0
3280
2A00
ENDCHAR
STARTCHAR uni1EDB
ENCODING 7899
SWIDTH 439 0
DWIDTH 4 0
BBX 4 6 0 0
BITMAP
08
06
69
D8
C8
A4
ENDCHAR
STARTCHAR uni1EDC
ENCODING 7900
SWIDTH 665 0
DWIDTH 5 0
BBX 6 8 0 0
BITMAP
0500
0120
1A90
98D0
A4D0
34C0
3280
2A00
ENDCHAR
STARTCHAR uni1EDD
ENCODING 7901
SWIDTH 439 0
DWIDTH 4 0
BBX 4 6 0 0
BITMAP
14
06
69
D8
C8
A4
ENDCHAR
STARTCHAR uni1EDE
ENCODING 7902
SWIDTH 665 0
DWIDTH 5 0
BBX 6 8 0 0
BITMAP
0140
0160
1A90
98D0
A4D0
34C0
3280
2A00
ENDCHAR
STARTCHAR uni1EDF
ENCODING 7903
SWIDTH 439 0
DWIDTH 4 0
BBX 4 6 0 0
BITMAP
08
06
69
D8
C8
A4
ENDCHAR
STARTCHAR uni1EE0
ENCODING 7904
SWIDTH 665 0
DWIDTH 5 0
BBX 6 8 0 0
BITMAP
0500
0120
1A90
98D0
A4D0
34C0
3280
2A00
ENDCHAR
STARTCHAR uni1EE1
ENCODING 7905
SWIDTH 439 0
DWIDTH 4 0
BBX 4 6 0 0
BITMAP
39
02
69
D8
C8
A4
ENDCHAR
STARTCHAR uni1EE2
ENCODING 7906
SWIDTH 665 0
DWIDTH 5 0
BBX 6 9 0 -2
BITMAP
0020
1A90
98D0
A4D0
34C0
3280
2A00
0000
1800
ENDCHAR
STARTCHAR uni1EE3
ENCODING 7907
SWIDTH 439 0
DWIDTH 4 0
BBX 4 7 0 -2
BITMAP
02
69
D8
C8
A4
00
90
ENDCHAR
STARTCHAR uni1EE4
ENCODING 7908
SWIDTH 716 0
DWIDTH 6 0
BBX 6 8 0 -2
BITMAP
1D70
8C60
58A0
24D0
25C0
1E40
0000
0C00
ENDCHAR
STARTCHAR uni1EE5
ENCODING 7909
SWIDTH 505 0
DWIDTH 4 0
BBX 4 6 0 -2
BITMAP
AA
99
DD
EE
00
60
ENDCHAR
STARTCHAR uni1EE6
ENCODING 7910
SWIDTH 716 0
DWIDTH 6 0
BBX 6 8 0 0
BITMAP
0040
0080
1D70
8C60
58A0
24D0
25C0
1E40
ENDCHAR
STARTCHAR uni1EE7
ENCODING 7911
SWIDTH 505 0
DWIDTH 4 0
BBX 4 6 0 0
BITMAP
18
04
AA
99
DD
EE
ENDCHAR
STARTCHAR uni1EE8
ENCODING 7912
SWIDTH 716 0
DWIDTH 6 0
BBX 7 8 0 0
BITMAP
0094
0048
1D70
8C60
58A0
24D0
25C0
1E40
ENDCHAR
STARTCHAR uni1EE9
ENCODING 7913
SWIDTH 505 0
DWIDTH 4 0
BBX 5 6 0 0
BITMAP
0900
0540
AA00
9900
DD00
EE00
ENDCHAR
STARTCHAR uni1EEA
ENCODING 7914
SWIDTH 716 0
DWIDTH 6 0
BBX 7 8 0 0
BITMAP
0204
0108
1D70
8C60
58A0
24D0
25C0
1E40
ENDCHAR
STARTCHAR uni1EEB
ENCODING 7915
SWIDTH 505 0
DWIDTH 4 0
BBX 5 6 0 0
BITMAP
1400
0540
AA00
9900
DD00
EE00
ENDCHAR
STARTCHAR uni1EEC
ENCODING 7916
SWIDTH 716 0
DWIDTH 6 0
BBX 7 8 0 0
BITMAP
0040
0088
1D74
8C60
58A0
24D0
25C0
1E40
ENDCHAR
STARTCHAR uni1EED
ENCODING 7917
SWIDTH 505 0
DWIDTH 4 0
BBX 5 6 0 0
BITMAP
1800
0540
AA00
9900
DD00
EE00
ENDCHAR
STARTCHAR uni1EEE
ENCODING 7918
SWIDTH 716 0
DWIDTH 6 0
BBX 7 8 0 0
BITMAP
0144
0058
1D70
8C60
58A0
24D0
25C0
1E40
ENDCHAR
STARTCHAR uni1EEF
ENCODING 7919
SWIDTH 505 0
DWIDTH 4 0
BBX 5 6 0 0
BITMAP
2940
0100
AA00
9900
DD00
EE00
ENDCHAR
STARTCHAR uni1EF0
ENCODING 7920
SWIDTH 716 0
DWIDTH 6 0
BBX 7 9 0 -2
BITMAP
0008
1D74
8C60
58A0
24D0
25C0
1E40
0000
0C00
ENDCHAR
STARTCHAR uni1EF1
ENCODING 7921
SWIDTH 505 0
DWIDTH 4 0
BBX 5 7 0 -2
BITMAP
0140
AA00
9900
DD00
EE00
0000
6000
ENDCHAR
STARTCHAR Ygrave
ENCODING 7922
SWIDTH 620 0
DWIDTH 5 0
BBX 6 8 0 0
BITMAP
0140
0040
1D10
8A40
8A40
0700
0600
0A00
ENDCHAR
STARTCHAR ygrave
ENCODING 7923
SWIDTH 505 0
DWIDTH 4 0
BBX 4 8 0 -2
BITMAP
14
04
AA
99
DD
ED
68
64
ENDCHAR
STARTCHAR uni1EF4
ENCODING 7924
SWIDTH 620 0
DWIDTH 5 0
BBX 6 8 0 -2
BITMAP
1D10
8A40
8A40
0700
0600
0A00
0000
0800
ENDCHAR
STARTCHAR uni1EF5
ENCODING 7925
SWIDTH 505 0
DWIDTH 4 0
BBX 4 6 0 -2
BITMAP
AA
99
DD
ED
68
66
ENDCHAR
STARTCHAR uni1EF6
ENCODING 7926
SWIDTH 620 0
DWIDTH 5 0
BBX 6 8 0 0
BITMAP
0040
0080
1D10
8A40
8A40
0700
0600
0A00
ENDCHAR
STARTCHAR uni1EF7
ENCODING 7927
SWIDTH 505 0
DWIDTH 4 0
BBX 4 8 0 -2
BITMAP
18
04
AA
99
DD
ED
68
64
ENDCHAR
STARTCHAR uni1EF8
ENCODING 7928
SWIDTH 620 0
DWIDTH 5 0
BBX 6 8 0 0
BITMAP
0140
0140
1D10
8A40
8A40
0700
0600
0A00
ENDCHAR
STARTCHAR uni1EF9
ENCODING 7929
SWIDTH 505 0
DWIDTH 4 0
BBX 4 8 0 -2
BITMAP
2D
04
AA
99
DD
ED
68
64
ENDCHAR
STARTCHAR uni2010
ENCODING 8208
SWIDTH 290 0
DWIDTH 2 0
BBX 2 1 0 2
BITMAP
60
ENDCHAR
STARTCHAR endash
ENCODING 8211
SWIDTH 352 0
DWIDTH 3 0
BBX 3 1 0 2
BITMAP
64
ENDCHAR
STARTCHAR emdash
ENCODING 8212
SWIDTH 444 0
DWIDTH 4 0
BBX 3 1 0 2
BITMAP
68
ENDCHAR
STARTCHAR quoteleft
ENCODING 8216
SWIDTH 209 0
DWIDTH 2 0
BBX 1 2 1 4
BITMAP
40
80
ENDCHAR
STARTCHAR quoteright
ENCODING 8217
SWIDTH 238 0
DWIDTH 2 0
BBX 1 2 1 4
BITMAP
80
40
ENDCHAR
STARTCHAR quotesinglbase
ENCODING 8218
SWIDTH 220 0
DWIDTH 2 0
BBX 1 2 0 -1
BITMAP
C0
40
ENDCHAR
STARTCHAR quotedblleft
ENCODING 8220
SWIDTH 429 0
DWIDTH 3 0
BBX 3 2 1 4
BITMAP
50
A4
ENDCHAR
STARTCHAR quotedblright
ENCODING 8221
SWIDTH 426 0
DWIDTH 3 0
BBX 3 2 1 4
BITMAP
94
50
ENDCHAR
STARTCHAR quotedblbase
ENCODING 8222
SWIDTH 440 0
DWIDTH 4 0
BBX 3 2 0 -1
BITMAP
D4
50
ENDCHAR
STARTCHAR dagger
ENCODING 8224
SWIDTH 495 0
DWIDTH 4 0
BBX 4 8 0 -2
BITMAP
08
08
08
7E
10
20
20
10
ENDCHAR
STARTCHAR daggerdbl
ENCODING 8225
SWIDTH 495 0
DWIDTH 4 0
BBX 4 8 0 -2
BITMAP
08
08
08
7E
BD
20
20
10
ENDCHAR
STARTCHAR bullet
ENCODING 8226
SWIDTH 434 0
DWIDTH 3 0
BBX 2 2 1 1
BITMAP
40
D0
ENDCHAR
STARTCHAR ellipsis
ENCODING 8230
SWIDTH 702 0
DWIDTH 6 0
BBX 6 1 0 0
BITMAP
9990
ENDCHAR
STARTCHAR perthousand
ENCODING 8240
SWIDTH 1175 0
DWIDTH 9 0
BBX 10 6 0 0
BITMAP
288000
584000
9A0000
55A290
08A650
14A280
ENDCHAR
STARTCHAR minute
ENCODING 8242
SWIDTH 196 0
DWIDTH 2 0
BBX 2 2 0 4
BITMAP
20
50
ENDCHAR
STARTCHAR second
ENCODING 8243
SWIDTH 341 0
DWIDTH 3 0
BBX 3 2 0 4
BITMAP
28
54
ENDCHAR
STARTCHAR guilsinglleft
ENCODING 8249
SWIDTH 359 0
DWIDTH 3 0
BBX 3 3 0 1
BITMAP
04
50
50
ENDCHAR
STARTCHAR guilsinglright
ENCODING 8250
SWIDTH 344 0
DWIDTH 3 0
BBX 3 3 0 1
BITMAP
40
14
54
ENDCHAR
STARTCHAR fraction
ENCODING 8260
SWIDTH 248 0
DWIDTH 2 0
BBX 4 6 -1 0
BITMAP
02
05
08
14
20
40
ENDCHAR
STARTCHAR uni2052
ENCODING 8274
SWIDTH 796 0
DWIDTH 6 0
BBX 4 6 1 0
BITMAP
92
01
08
14
20
53
ENDCHAR
STARTCHAR uni2070
ENCODING 8304
SWIDTH 379 0
DWIDTH 3 0
BBX 3 4 0 2
BITMAP
28
58
98
50
ENDCHAR
STARTCHAR uni2074
ENCODING 8308
SWIDTH 352 0
DWIDTH 3 0
BBX 3 3 0 3
BITMAP
28
64
10
ENDCHAR
STARTCHAR uni2075
ENCODING 8309
SWIDTH 335 0
DWIDTH 3 0
BBX 3 4 0 2
BITMAP
24
64
54
50
ENDCHAR
STARTCHAR uni2076
ENCODING 8310
SWIDTH 351 0
DWIDTH 3 0
BBX 3 4 0 2
BITMAP
24
64
98
50
ENDCHAR
STARTCHAR uni2077
ENCODING 8311
SWIDTH 329 0
DWIDTH 3 0
BBX 3 4 0 2
BITMAP
64
10
50
40
ENDCHAR
STARTCHAR uni2078
ENCODING 8312
SWIDTH 354 0
DWIDTH 3 0
BBX 3 4 0 2
BITMAP
24
34
58
50
ENDCHAR
STARTCHAR uni2079
ENCODING 8313
SWIDTH 345 0
DWIDTH 3 0
BBX 3 4 0 2
BITMAP
54
58
14
50
ENDCHAR
STARTCHAR uni2080
ENCODING 8320
SWIDTH 379 0
DWIDTH 3 0
BBX 3 3 0 0
BITMAP
28
98
64
ENDCHAR
STARTCHAR uni2081
ENCODING 8321
SWIDTH 229 0
DWIDTH 2 0
BBX 2 3 0 0
BITMAP
60
50
80
ENDCHAR
STARTCHAR uni2082
ENCODING 8322
SWIDTH 328 0
DWIDTH 3 0
BBX 3 3 0 0
BITMAP
64
10
64
ENDCHAR
STARTCHAR uni2083
ENCODING 8323
SWIDTH 336 0
DWIDTH 3 0
BBX 3 3 0 0
BITMAP
24
54
54
ENDCHAR
STARTCHAR uni2084
ENCODING 8324
SWIDTH 352 0
DWIDTH 3 0
BBX 3 3 0 0
BITMAP
28
64
20
ENDCHAR
STARTCHAR uni2085
ENCODING 8325
SWIDTH 335 0
DWIDTH 3 0
BBX 3 3 0 0
BITMAP
24
54
54
ENDCHAR
STARTCHAR uni2086
ENCODING 8326
SWIDTH 351 0
DWIDTH 3 0
BBX 3 3 0 0
BITMAP
24
A4
54
ENDCHAR
STARTCHAR uni2087
ENCODING 8327
SWIDTH 329 0
DWIDTH 3 0
BBX 3 3 0 0
BITMAP
64
10
50
ENDCHAR
STARTCHAR uni2088
ENCODING 8328
SWIDTH 354 0
DWIDTH 3 0
BBX 3 3 0 0
BITMAP
24
24
54
ENDCHAR
STARTCHAR uni2089
ENCODING 8329
SWIDTH 345 0
DWIDTH 3 0
BBX 3 3 0 0
BITMAP
54
58
50
ENDCHAR
STARTCHAR colonmonetary
ENCODING 8353
SWIDTH 384 0
DWIDTH 3 0
BBX 3 6 0 0
BITMAP
18
78
90
C0
74
50
ENDCHAR
STARTCHAR franc
ENCODING 8355
SWIDTH 529 0
DWIDTH 4 0
BBX 5 6 0 0
BITMAP
1E40
1800
2D00
2400
7800
7000
ENDCHAR
STARTCHAR lira
ENCODING 8356
SWIDTH 455 0
DWIDTH 4 0
BBX 4 6 0 0
BITMAP
0A
25
78
74
60
BE
ENDCHAR
STARTCHAR uni20A6
ENCODING 8358
SWIDTH 723 0
DWIDTH 6 0
BBX 6 6 0 0
BITMAP
0D20
1D50
6A90
7BD0
2380
6280
ENDCHAR
STARTCHAR uni20A9
ENCODING 8361
SWIDTH 841 0
DWIDTH 7 0
BBX 7 6 0 0
BITMAP
35C4
36C4
7AE8
7AE4
28D0
24D0
ENDCHAR
STARTCHAR Euro
ENCODING 8364
SWIDTH 507 0
DWIDTH 4 0
BBX 5 6 0 0
BITMAP
0A80
2940
7900
7500
3400
2E00
ENDCHAR
STARTCHAR uni20AE
ENCODING 8366
SWIDTH 481 0
DWIDTH 4 0
BBX 6 6 0 0
BITMAP
6F90
8900
4E40
6D00
6800
2800
ENDCHAR
STARTCHAR uni20B3
ENCODING 8371
SWIDTH 573 0
DWIDTH 5 0
BBX 5 6 0 0
BITMAP
1A40
9D80
A940
3900
7800
3000
ENDCHAR
STARTCHAR uni20B4
ENCODING 8372
SWIDTH 570 0
DWIDTH 5 0
BBX 4 6 0 0
BITMAP
17
13
5D
69
A2
6A
ENDCHAR
STARTCHAR uni20B8
ENCODING 8376
SWIDTH 522 0
DWIDTH 4 0
BBX 6 6 0 0
BITMAP
1550
2AA0
9900
4D00
0C00
1800
ENDCHAR
STARTCHAR uni20B9
ENCODING 8377
SWIDTH 544 0
DWIDTH 4 0
BBX 5 7 0 0
BITMAP
1940
1A40
0900
6800
0C00
1C00
0800
ENDCHAR
STARTCHAR uni20BA
ENCODING 8378
SWIDTH 455 0
DWIDTH 4 0
BBX 4 6 0 0
BITMAP
18
29
79
75
72
79
ENDCHAR
STARTCHAR uni20BD
ENCODING 8381
SWIDTH 573 0
DWIDTH 5 0
BBX 5 6 0 0
BITMAP
1A40
9D80
A940
7900
7800
3000
ENDCHAR
STARTCHAR uni2116
ENCODING 8470
SWIDTH 996 0
DWIDTH 8 0
BBX 8 6 0 0
BITMAP
2D25
9D69
9A99
2799
2380
2280
ENDCHAR
STARTCHAR uni2120
ENCODING 8480
SWIDTH 585 0
DWIDTH 5 0
BBX 4 3 1 3
BITMAP
44
99
54
ENDCHAR
STARTCHAR trademark
ENCODING 8482
SWIDTH 379 0
DWIDTH 3 0
BBX 3 2 0 3
BITMAP
54
58
ENDCHAR
STARTCHAR uni2126
ENCODING 8486
SWIDTH 745 0
DWIDTH 6 0
BBX 6 6 0 0
BITMAP
0680
2460
2020
5050
2040
6280
ENDCHAR
STARTCHAR uni212A
ENCODING 8490
SWIDTH 601 0
DWIDTH 5 0
BBX 5 6 0 0
BITMAP
2C80
9E00
6E00
2640
3700
3300
ENDCHAR
STARTCHAR uni212B
ENCODING 8491
SWIDTH 668 0
DWIDTH 5 0
BBX 6 9 0 -1
BITMAP
0010
0050
01D0
05D0
69C0
6580
3280
6240
1000
ENDCHAR
STARTCHAR estimated
ENCODING 8494
SWIDTH 786 0
DWIDTH 6 0
BBX 6 6 0 0
BITMAP
1640
70A0
B5A0
B000
7040
1540
ENDCHAR
STARTCHAR uni2153
ENCODING 8531
SWIDTH 733 0
DWIDTH 6 0
BBX 6 6 0 0
BITMAP
6040
5200
4500
0860
1450
2150
ENDCHAR
STARTCHAR uni2154
ENCODING 8532
SWIDTH 852 0
DWIDTH 7 0
BBX 6 6 1 0
BITMAP
9040
4200
4500
58A0
1450
2150
ENDCHAR
STARTCHAR oneeighth
ENCODING 8539
SWIDTH 741 0
DWIDTH 6 0
BBX 6 6 0 0
BITMAP
6040
5200
4500
0890
1490
2150
ENDCHAR
STARTCHAR threeeighths
ENCODING 8540
SWIDTH 828 0
DWIDTH 7 0
BBX 7 6 0 0
BITMAP
2450
1480
5500
5564
0864
04A4
ENDCHAR
STARTCHAR fiveeighths
ENCODING 8541
SWIDTH 827 0
DWIDTH 7 0
BBX 7 6 0 0
BITMAP
2450
6480
5500
5164
0860
14A4
ENDCHAR
STARTCHAR seveneighths
ENCODING 8542
SWIDTH 761 0
DWIDTH 6 0
BBX 6 6 0 0
BITMAP
6480
1100
5100
48A0
04A0
2160
ENDCHAR
STARTCHAR partialdiff
ENCODING 8706
SWIDTH 597 0
DWIDTH 5 0
BBX 5 7 0 0
BITMAP
0A40
0080
0080
1A80
5140
8200
6800
ENDCHAR
STARTCHAR uni2206
ENCODING 8710
SWIDTH 619 0
DWIDTH 5 0
BBX 5 6 0 0
BITMAP
0700
0A40
1540
2180
5080
AA80
ENDCHAR
STARTCHAR product
ENCODING 8719
SWIDTH 661 0
DWIDTH 5 0
BBX 5 7 0 -1
BITMAP
6A80
2200
2200
5200
8500
8800
4400
ENDCHAR
STARTCHAR summation
ENCODING 8721
SWIDTH 605 0
DWIDTH 5 0
BBX 5 6 0 0
BITMAP
2A80
1400
0800
0800
2000
AA00
ENDCHAR
STARTCHAR minus
ENCODING 8722
SWIDTH 471 0
DWIDTH 4 0
BBX 3 1 0 2
BITMAP
68
ENDCHAR
STARTCHAR uni2215
ENCODING 8725
SWIDTH 488 0
DWIDTH 4 0
BBX 4 6 0 0
BITMAP
02
04
04
20
50
80
ENDCHAR
STARTCHAR uni2219
ENCODING 8729
SWIDTH 434 0
DWIDTH 3 0
BBX 2 2 1 1
BITMAP
40
D0
ENDCHAR
STARTCHAR radical
ENCODING 8730
SWIDTH 660 0
DWIDTH 5 0
BBX 5 7 0 0
BITMAP
0280
0200
0500
0800
9400
6000
2000
ENDCHAR
STARTCHAR infinity
ENCODING 8734
SWIDTH 833 0
DWIDTH 7 0
BBX 6 3 0 1
BITMAP
2990
8620
6590
ENDCHAR
STARTCHAR integral
ENCODING 8747
SWIDTH 305 0
DWIDTH 2 0
BBX 4 8 -1 -2
BITMAP
05
08
08
08
14
20
20
50
ENDCHAR
STARTCHAR approxequal
ENCODING 8776
SWIDTH 441 0
DWIDTH 4 0
BBX 4 3 0 1
BITMAP
69
00
68
ENDCHAR
STARTCHAR notequal
ENCODING 8800
SWIDTH 500 0
DWIDTH 4 0
BBX 4 5 0 0
BITMAP
04
7E
10
BD
10
ENDCHAR
STARTCHAR lessequal
ENCODING 8804
SWIDTH 405 0
DWIDTH 3 0
BBX 3 4 0 1
BITMAP
18
60
04
A8
ENDCHAR
STARTCHAR greaterequal
ENCODING 8805
SWIDTH 405 0
DWIDTH 3 0
BBX 3 4 0 1
BITMAP
24
18
50
A8
ENDCHAR
STARTCHAR lozenge
ENCODING 9674
SWIDTH 619 0
DWIDTH 5 0
BBX 5 6 0 0
BITMAP
0A00
1600
5140
5140
2500
2800
ENDCHAR
STARTCHAR uni27E8
ENCODING 10216
SWIDTH 456 0
DWIDTH 4 0
BBX 4 8 0 -1
BITMAP
01
04
10
50
40
10
04
04
ENDCHAR
STARTCHAR uni27E9
ENCODING 10217
SWIDTH 456 0
DWIDTH 4 0
BBX 3 8 0 -1
BITMAP
40
10
04
04
04
10
50
40
ENDCHAR
STARTCHAR ff
ENCODING 64256
SWIDTH 508 0
DWIDTH 4 0
BBX 7 8 -2 -2
BITMAP
02A8
0660
0AA0
0990
0DC0
1DC0
6980
7B40
ENDCHAR
STARTCHAR fi
ENCODING 64257
SWIDTH 534 0
DWIDTH 4 0
BBX 6 8 -2 -2
BITMAP
02A0
0710
0AA0
09A0
0DD0
1CA0
6800
7400
ENDCHAR
STARTCHAR fl
ENCODING 64258
SWIDTH 548 0
DWIDTH 4 0
BBX 7 8 -2 -2
BITMAP
02A0
0630
0A70
09A0
0D90
1CA4
6800
7400
ENDCHAR
STARTCHAR ffi
ENCODING 64259
SWIDTH 764 0
DWIDTH 6 0
BBX 8 8 -2 -2
BITMAP
02AA
0661
0AEA
09D9
0DCC
1D8E
6A80
7B40
ENDCHAR
STARTCHAR ffl
ENCODING 64260
SWIDTH 780 0
DWIDTH 6 0
BBX 8 8 -2 -2
BITMAP
02AA
0667
0AAA
09D9
0DCD
1D8A
6A80
7B40
ENDCHAR
STARTCHAR .notdef
ENCODING -1
SWIDTH 810 0
DWIDTH 6 0
BBX 7 11 0 -2
BITMAP
0554
0404
1010
1110
1550
1110
1010
4440
4040
4040
5540
ENDCHAR
STARTCHAR A.salt
ENCODING -1
SWIDTH 590 0
DWIDTH 5 0
BBX 5 7 0 -1
BITMAP
0280
0680
1740
2340
9700
8600
8000
ENDCHAR
STARTCHAR B.salt
ENCODING -1
SWIDTH 633 0
DWIDTH 5 0
BBX 5 6 0 0
BITMAP
1A40
9D80
6B40
2580
3680
3A00
ENDCHAR
STARTCHAR E.salt
ENCODING -1
SWIDTH 554 0
DWIDTH 4 0
BBX 5 6 0 0
BITMAP
6E80
9800
6900
2400
3000
7A00
ENDCHAR
STARTCHAR N.salt
ENCODING -1
SWIDTH 669 0
DWIDTH 5 0
BBX 6 6 0 0
BITMAP
2EC0
9CC0
A9C0
2580
3640
7290
ENDCHAR
STARTCHAR i.loclTRK
ENCODING -1
SWIDTH 267 0
DWIDTH 2 0
BBX 2 6 0 0
BITMAP
60
00
A0
90
D0
E0
ENDCHAR
STARTCHAR a.end
ENCODING -1
SWIDTH 467 0
DWIDTH 4 0
BBX 4 4 0 0
BITMAP
6A
9A
CD
E9
ENDCHAR
STARTCHAR aacute.end
ENCODING -1
SWIDTH 461 0
DWIDTH 4 0
BBX 4 6 0 0
BITMAP
09
04
6A
D9
CD
E9
ENDCHAR
STARTCHAR c.end
ENCODING -1
SWIDTH 341 0
DWIDTH 3 0
BBX 3 4 0 0
BITMAP
68
D0
C0
E4
ENDCHAR
STARTCHAR d.end
ENCODING -1
SWIDTH 476 0
DWIDTH 4 0
BBX 4 6 0 0
BITMAP
01
07
6A
9A
CD
E9
ENDCHAR
STARTCHAR e.end
ENCODING -1
SWIDTH 366 0
DWIDTH 3 0
BBX 3 4 0 0
BITMAP
68
D8
D0
A0
ENDCHAR
STARTCHAR eacute.end
ENCODING -1
SWIDTH 367 0
DWIDTH 3 0
BBX 3 6 0 0
BITMAP
08
04
68
98
E0
A0
ENDCHAR
STARTCHAR uni0292.end
ENCODING -1
SWIDTH 391 0
DWIDTH 3 0
BBX 3 6 0 -2
BITMAP
A8
34
70
24
74
A0
ENDCHAR
STARTCHAR g.end
ENCODING -1
SWIDTH 480 0
DWIDTH 4 0
BBX 4 6 0 -2
BITMAP
6A
9A
CD
EC
6C
64
ENDCHAR
STARTCHAR uni01E5.end
ENCODING -1
SWIDTH 507 0
DWIDTH 4 0
BBX 4 6 0 -2
BITMAP
6A
99
CD
EC
AC
74
ENDCHAR
STARTCHAR h.end
ENCODING -1
SWIDTH 453 0
DWIDTH 4 0
BBX 5 6 -1 0
BITMAP
0400
1800
2F40
2640
3700
7340
ENDCHAR
STARTCHAR i.end
ENCODING -1
SWIDTH 209 0
DWIDTH 2 0
BBX 2 6 0 0
BITMAP
60
00
A0
90
D0
D0
ENDCHAR
STARTCHAR iacute.end
ENCODING -1
SWIDTH 209 0
DWIDTH 2 0
BBX 2 6 0 0
BITMAP
20
10
A0
90
D0
D0
ENDCHAR
STARTCHAR ij.end
ENCODING -1
SWIDTH 480 0
DWIDTH 4 0
BBX 4 8 0 -2
BITMAP
63
00
A6
9A
DD
DC
6C
64
ENDCHAR
STARTCHAR j.end
ENCODING -1
SWIDTH 213 0
DWIDTH 2 0
BBX 4 8 -2 -2
BITMAP
06
00
0A
09
0D
1C
68
74
ENDCHAR
STARTCHAR k.end
ENCODING -1
SWIDTH 472 0
DWIDTH 4 0
BBX 5 6 -1 0
BITMAP
0400
1800
2940
2F00
3740
7240
ENDCHAR
STARTCHAR l.end
ENCODING -1
SWIDTH 207 0
DWIDTH 2 0
BBX 2 6 0 0
BITMAP
10
60
A0
90
C0
D0
ENDCHAR
STARTCHAR m.end
ENCODING -1
SWIDTH 701 0
DWIDTH 6 0
BBX 7 4 -1 0
BITMAP
2FB4
2664
3730
7734
ENDCHAR
STARTCHAR n.end
ENCODING -1
SWIDTH 454 0
DWIDTH 4 0
BBX 5 4 -1 0
BITMAP
2F40
2640
3700
7340
ENDCHAR
STARTCHAR o.end
ENCODING -1
SWIDTH 487 0
DWIDTH 4 0
BBX 4 4 0 0
BITMAP
68
D9
C8
A4
ENDCHAR
STARTCHAR oacute.end
ENCODING -1
SWIDTH 487 0
DWIDTH 4 0
BBX 4 6 0 0
BITMAP
08
04
68
99
C8
A4
ENDCHAR
STARTCHAR s.end
ENCODING -1
SWIDTH 316 0
DWIDTH 3 0
BBX 3 4 0 0
BITMAP
34
64
A4
A4
ENDCHAR
STARTCHAR t.end
ENCODING -1
SWIDTH 276 0
DWIDTH 2 0
BBX 2 5 0 0
BITMAP
70
A0
90
D0
D0
ENDCHAR
STARTCHAR u.end
ENCODING -1
SWIDTH 459 0
DWIDTH 4 0
BBX 4 4 0 0
BITMAP
AA
99
DC
ED
ENDCHAR
STARTCHAR uacute.end
ENCODING -1
SWIDTH 459 0
DWIDTH 4 0
BBX 4 6 0 0
BITMAP
08
04
AA
99
DC
ED
ENDCHAR
STARTCHAR x.end
ENCODING -1
SWIDTH 500 0
DWIDTH 4 0
BBX 4 4 0 0
BITMAP
2A
5D
5C
59
ENDCHAR
STARTCHAR y.end
ENCODING -1
SWIDTH 460 0
DWIDTH 4 0
BBX 4 6 0 -2
BITMAP
AA
99
DC
EC
68
74
ENDCHAR
STARTCHAR k.salt
ENCODING -1
SWIDTH 518 0
DWIDTH 4 0
BBX 5 6 -1 0
BITMAP
0400
1800
2A40
2E00
3740
7280
ENDCHAR
STARTCHAR p.salt
ENCODING -1
SWIDTH 482 0
DWIDTH 4 0
BBX 5 7 -1 -2
BITMAP
1400
2F40
2580
3640
7A00
6000
9000
ENDCHAR
STARTCHAR E_x
ENCODING -1
SWIDTH 797 0
DWIDTH 6 0
BBX 7 6 0 0
BITMAP
1A00
3120
25D0
A0D0
E1D4
B9A0
ENDCHAR
STARTCHAR F_i
ENCODING -1
SWIDTH 726 0
DWIDTH 6 0
BBX 6 6 0 0
BITMAP
6FE0
9C00
5DD0
28C0
25C0
31D0
ENDCHAR
STARTCHAR T_h
ENCODING -1
SWIDTH 971 0
DWIDTH 8 0
BBX 8 6 0 0
BITMAP
6FA0
89A0
8CAC
1CDC
19DC
299D
ENDCHAR
STARTCHAR T_i
ENCODING -1
SWIDTH 744 0
DWIDTH 6 0
BBX 6 6 0 0
BITMAP
6BE0
8900
8C90
1CD0
19C0
28E0
ENDCHAR
STARTCHAR a_x
ENCODING -1
SWIDTH 899 0
DWIDTH 7 0
BBX 7 5 0 0
BITMAP
0004
6AA8
9A74
CD70
EA68
ENDCHAR
STARTCHAR a_z
ENCODING -1
SWIDTH 906 0
DWIDTH 7 0
BBX 7 4 0 0
BITMAP
6AAC
9A24
CD60
E9E8
ENDCHAR
STARTCHAR b_s
ENCODING -1
SWIDTH 799 0
DWIDTH 6 0
BBX 7 6 0 0
BITMAP
1000
6000
A9A0
9960
C974
A5A0
ENDCHAR
STARTCHAR b_s_x
ENCODING -1
SWIDTH 1144 0
DWIDTH 9 0
BBX 9 6 0 0
BITMAP
700000
605080
A9AA40
996740
C97700
A5A280
ENDCHAR
STARTCHAR b_s_z
ENCODING -1
SWIDTH 1158 0
DWIDTH 9 0
BBX 9 6 0 0
BITMAP
100000
600000
A9AAC0
996240
C96640
A5AE80
ENDCHAR
STARTCHAR c_x
ENCODING -1
SWIDTH 755 0
DWIDTH 6 0
BBX 6 5 0 0
BITMAP
0010
6A60
D190
C2C0
A9E0
ENDCHAR
STARTCHAR c_z
ENCODING -1
SWIDTH 769 0
DWIDTH 6 0
BBX 6 4 0 0
BITMAP
69B0
D1D0
C180
E7A0
ENDCHAR
STARTCHAR e_x
ENCODING -1
SWIDTH 762 0
DWIDTH 6 0
BBX 6 5 0 0
BITMAP
0010
6AA0
9990
D1C0
A9E0
ENDCHAR
STARTCHAR e_z
ENCODING -1
SWIDTH 788 0
DWIDTH 6 0
BBX 6 4 0 0
BITMAP
69B0
D990
D180
E6A0
ENDCHAR
STARTCHAR eacute_x
ENCODING -1
SWIDTH 760 0
DWIDTH 6 0
BBX 6 6 0 0
BITMAP
0800
0410
6AA0
D990
D1C0
A9E0
ENDCHAR
STARTCHAR f_f_t
ENCODING -1
SWIDTH 780 0
DWIDTH 6 0
BBX 8 8 -2 -2
BITMAP
02AA
0667
0AAA
09D9
0DCD
1D8A
6A80
7B40
ENDCHAR
STARTCHAR f_i_x
ENCODING -1
SWIDTH 898 0
DWIDTH 7 0
BBX 9 8 -2 -2
BITMAP
02A000
071040
0AAA80
09A740
0DD700
1CA680
680000
740000
ENDCHAR
STARTCHAR f_i_z
ENCODING -1
SWIDTH 904 0
DWIDTH 7 0
BBX 9 8 -2 -2
BITMAP
02A000
071000
0AAAC0
09A240
0DD600
1CAE80
680000
740000
ENDCHAR
STARTCHAR f_l_x
ENCODING -1
SWIDTH 912 0
DWIDTH 7 0
BBX 9 8 -2 -2
BITMAP
02A000
063040
0A7680
09A740
0D9700
1CA680
680000
740000
ENDCHAR
STARTCHAR f_l_z
ENCODING -1
SWIDTH 938 0
DWIDTH 8 0
BBX 10 8 -2 -2
BITMAP
02A000
063000
0A76D0
09A280
0D9340
1CAB80
680000
740000
ENDCHAR
STARTCHAR f_t
ENCODING -1
SWIDTH 548 0
DWIDTH 4 0
BBX 7 8 -2 -2
BITMAP
02A0
0630
0AB0
09A0
0D90
1CA4
6800
7400
ENDCHAR
STARTCHAR f_u
ENCODING -1
SWIDTH 772 0
DWIDTH 6 0
BBX 8 8 -2 -2
BITMAP
0280
0600
0AA6
09A9
0CDD
1CAA
6800
7400
ENDCHAR
STARTCHAR f_x
ENCODING -1
SWIDTH 663 0
DWIDTH 5 0
BBX 7 8 -2 -2
BITMAP
0280
0604
0AA4
0974
0D70
1DA8
6800
7400
ENDCHAR
STARTCHAR g_p
ENCODING -1
SWIDTH 975 0
DWIDTH 8 0
BBX 8 6 0 -2
BITMAP
6A69
9A9A
CDD9
EEE8
6D80
6640
ENDCHAR
STARTCHAR g_x
ENCODING -1
SWIDTH 892 0
DWIDTH 7 0
BBX 7 7 0 -2
BITMAP
0004
6AA8
9A64
CD70
ED68
6C00
6400
ENDCHAR
STARTCHAR g_z
ENCODING -1
SWIDTH 907 0
DWIDTH 7 0
BBX 7 6 0 -2
BITMAP
6AAC
9A24
CD60
ECE8
6C00
6400
ENDCHAR
STARTCHAR i_x
ENCODING -1
SWIDTH 631 0
DWIDTH 5 0
BBX 5 6 0 0
BITMAP
6000
0080
A940
9740
D700
E780
ENDCHAR
STARTCHAR i_z
ENCODING -1
SWIDTH 637 0
DWIDTH 5 0
BBX 5 6 0 0
BITMAP
6000
0000
AA80
9340
D600
DE80
ENDCHAR
STARTCHAR iacute_x
ENCODING -1
SWIDTH 631 0
DWIDTH 5 0
BBX 5 6 0 0
BITMAP
2000
0080
A940
9740
D700
E780
ENDCHAR
STARTCHAR iacute_z
ENCODING -1
SWIDTH 637 0
DWIDTH 5 0
BBX 5 6 0 0
BITMAP
2000
1000
AA80
9340
D600
DE80
ENDCHAR
STARTCHAR j_x
ENCODING -1
SWIDTH 624 0
DWIDTH 5 0
BBX 7 8 -2 -2
BITMAP
0600
0000
0A98
09A4
0C70
1D78
6800
6400
ENDCHAR
STARTCHAR j_z
ENCODING -1
SWIDTH 618 0
DWIDTH 5 0
BBX 7 8 -2 -2
BITMAP
0600
0000
0AA8
0930
0DA0
0DE4
6800
7400
ENDCHAR
STARTCHAR l_x
ENCODING -1
SWIDTH 631 0
DWIDTH 5 0
BBX 5 6 0 0
BITMAP
7000
6080
A940
9740
C700
E780
ENDCHAR
STARTCHAR l_z
ENCODING -1
SWIDTH 635 0
DWIDTH 5 0
BBX 5 6 0 0
BITMAP
1000
6000
AA80
9340
C600
DE80
ENDCHAR
STARTCHAR m_x
ENCODING -1
SWIDTH 1124 0
DWIDTH 9 0
BBX 10 4 -1 0
BITMAP
2BB660
266690
373280
7739E0
ENDCHAR
STARTCHAR m_z
ENCODING -1
SWIDTH 1125 0
DWIDTH 9 0
BBX 10 4 -1 0
BITMAP
2FB6A0
2664C0
373280
773790
ENDCHAR
STARTCHAR n_z
ENCODING -1
SWIDTH 882 0
DWIDTH 7 0
BBX 8 4 -1 0
BITMAP
2F6A
264D
3728
737A
ENDCHAR
STARTCHAR o_ae
ENCODING -1
SWIDTH 1089 0
DWIDTH 9 0
BBX 9 4 0 0
BITMAP
696A40
98AD40
C9AD00
A5EE40
ENDCHAR
STARTCHAR o_s
ENCODING -1
SWIDTH 786 0
DWIDTH 6 0
BBX 6 4 0 0
BITMAP
68A0
D9A0
C9A0
A590
ENDCHAR
STARTCHAR o_s_x
ENCODING -1
SWIDTH 1132 0
DWIDTH 9 0
BBX 9 5 0 0
BITMAP
000040
68A980
99A640
C9AB00
A59380
ENDCHAR
STARTCHAR o_s_z
ENCODING -1
SWIDTH 1139 0
DWIDTH 9 0
BBX 9 4 0 0
BITMAP
68AA80
D9A240
C9A600
A59E80
ENDCHAR
STARTCHAR o_x
ENCODING -1
SWIDTH 851 0
DWIDTH 7 0
BBX 7 4 0 0
BITMAP
68D8
99A0
C9A0
A674
ENDCHAR
STARTCHAR oacute_s
ENCODING -1
SWIDTH 787 0
DWIDTH 6 0
BBX 6 6 0 0
BITMAP
0800
0400
68A0
99A0
C9A0
A590
ENDCHAR
STARTCHAR oacute_s_x
ENCODING -1
SWIDTH 1141 0
DWIDTH 9 0
BBX 9 6 0 0
BITMAP
080000
040000
68AA80
99A240
C9A600
A59E80
ENDCHAR
STARTCHAR oacute_s_z
ENCODING -1
SWIDTH 1140 0
DWIDTH 9 0
BBX 9 6 0 0
BITMAP
080000
040000
68AA80
99A240
C9A600
A59E80
ENDCHAR
STARTCHAR oacute_x
ENCODING -1
SWIDTH 852 0
DWIDTH 7 0
BBX 7 6 0 0
BITMAP
0800
0400
68D8
99A0
C9A0
A674
ENDCHAR
STARTCHAR r_x
ENCODING -1
SWIDTH 784 0
DWIDTH 6 0
BBX 7 5 -1 0
BITMAP
0008
2AA4
2474
3070
7168
ENDCHAR
STARTCHAR r_z
ENCODING -1
SWIDTH 654 0
DWIDTH 5 0
BBX 6 4 -1 0
BITMAP
2BB0
2490
3180
73A0
ENDCHAR
STARTCHAR s_x
ENCODING -1
SWIDTH 727 0
DWIDTH 6 0
BBX 6 5 0 0
BITMAP
1010
3750
6680
AA90
A5D0
ENDCHAR
STARTCHAR s_z
ENCODING -1
SWIDTH 744 0
DWIDTH 6 0
BBX 6 4 0 0
BITMAP
36A0
64C0
A640
A790
ENDCHAR
STARTCHAR t_x
ENCODING -1
SWIDTH 631 0
DWIDTH 5 0
BBX 5 5 0 0
BITMAP
6040
A980
9640
D700
E780
ENDCHAR
STARTCHAR t_z
ENCODING -1
SWIDTH 704 0
DWIDTH 6 0
BBX 6 5 0 0
BITMAP
7000
A6D0
9180
D340
DB80
ENDCHAR
STARTCHAR u_v
ENCODING -1
SWIDTH 923 0
DWIDTH 7 0
BBX 7 4 0 0
BITMAP
AAA8
9994
DCD8
ECE4
ENDCHAR
STARTCHAR u_x
ENCODING -1
SWIDTH 878 0
DWIDTH 7 0
BBX 7 5 0 0
BITMAP
0008
AA94
9974
DCB0
EA78
ENDCHAR
STARTCHAR y_p
ENCODING -1
SWIDTH 954 0
DWIDTH 8 0
BBX 8 6 0 -2
BITMAP
AAAD
99D9
DDCD
EEE8
6A80
6640
ENDCHAR
STARTCHAR y_x
ENCODING -1
SWIDTH 871 0
DWIDTH 7 0
BBX 7 6 0 -2
BITMAP
AA98
99A4
DCA0
ED78
6800
6400
ENDCHAR
STARTCHAR y_z
ENCODING -1
SWIDTH 888 0
DWIDTH 7 0
BBX 7 6 0 -2
BITMAP
AAA8
9934
DC60
ECE8
6800
7400
ENDCHAR
STARTCHAR a_x.end
ENCODING -1
SWIDTH 884 0
DWIDTH 7 0
BBX 7 5 0 0
BITMAP
0004
6AA8
9A74
CD70
EA64
ENDCHAR
STARTCHAR b_s.end
ENCODING -1
SWIDTH 731 0
DWIDTH 6 0
BBX 6 6 0 0
BITMAP
1000
6000
A9A0
9960
C960
A590
ENDCHAR
STARTCHAR e_x.end
ENCODING -1
SWIDTH 747 0
DWIDTH 6 0
BBX 6 5 0 0
BITMAP
0010
6AA0
9990
E1C0
A9D0
ENDCHAR
STARTCHAR f_u.end
ENCODING -1
SWIDTH 724 0
DWIDTH 6 0
BBX 8 8 -2 -2
BITMAP
0280
0600
0AA6
09A9
0CDD
1CA9
6800
7400
ENDCHAR
STARTCHAR fi.end
ENCODING -1
SWIDTH 479 0
DWIDTH 4 0
BBX 6 8 -2 -2
BITMAP
02A0
0710
0AA0
09A0
0DD0
1C90
6800
7400
ENDCHAR
STARTCHAR fl.end
ENCODING -1
SWIDTH 490 0
DWIDTH 4 0
BBX 6 8 -2 -2
BITMAP
02A0
0630
0A70
09A0
0D90
1CA0
6800
7400
ENDCHAR
STARTCHAR i_x.end
ENCODING -1
SWIDTH 616 0
DWIDTH 5 0
BBX 5 6 0 0
BITMAP
6000
0080
A940
9740
D700
E740
ENDCHAR
STARTCHAR o_s.end
ENCODING -1
SWIDTH 718 0
DWIDTH 6 0
BBX 6 4 0 0
BITMAP
68A0
D9A0
C9A0
A590
ENDCHAR
STARTCHAR oacute_s.end
ENCODING -1
SWIDTH 719 0
DWIDTH 6 0
BBX 6 6 0 0
BITMAP
0800
0400
68A0
99A0
C9A0
A590
ENDCHAR
STARTCHAR u_x.end
ENCODING -1
SWIDTH 863 0
DWIDTH 7 0
BBX 7 4 0 0
BITMAP
AA98
99A4
DC70
EA74
ENDCHAR
STARTCHAR uni0424.loclBGR
ENCODING -1
SWIDTH 840 0
DWIDTH 7 0
BBX 7 8 0 -1
BITMAP
1540
1280
27A0
A318
9728
9630
2A40
0900
ENDCHAR
STARTCHAR uni0492.loclBSH
ENCODING -1
SWIDTH 459 0
DWIDTH 4 0
BBX 5 6 0 0
BITMAP
6E80
9800
6900
2400
3000
7000
ENDCHAR
STARTCHAR uni04AA.loclCHU
ENCODING -1
SWIDTH 497 0
DWIDTH 4 0
BBX 4 8 0 -2
BITMAP
1A
71
A0
A0
A5
79
04
14
ENDCHAR
STARTCHAR uni0418.loclSRB
ENCODING -1
SWIDTH 705 0
DWIDTH 6 0
BBX 6 6 0 0
BITMAP
1C60
9CE0
9AD0
2DC0
35C0
3180
ENDCHAR
STARTCHAR uni0419.loclSRB
ENCODING -1
SWIDTH 705 0
DWIDTH 6 0
BBX 6 8 0 0
BITMAP
0110
0240
1C60
9CE0
9AD0
2DC0
35C0
3180
ENDCHAR
STARTCHAR uni0430.end
ENCODING -1
SWIDTH 467 0
DWIDTH 4 0
BBX 4 4 0 0
BITMAP
6A
9A
CD
E9
ENDCHAR
STARTCHAR uni0432.end
ENCODING -1
SWIDTH 406 0
DWIDTH 3 0
BBX 4 6 0 0
BITMAP
18
65
94
D8
C8
A4
ENDCHAR
STARTCHAR uni0434.end
ENCODING -1
SWIDTH 480 0
DWIDTH 4 0
BBX 4 6 0 -2
BITMAP
6A
9A
CD
EC
6C
64
ENDCHAR
STARTCHAR uni0435.end
ENCODING -1
SWIDTH 366 0
DWIDTH 3 0
BBX 3 4 0 0
BITMAP
68
D8
D0
A0
ENDCHAR
STARTCHAR uni0451.end
ENCODING -1
SWIDTH 366 0
DWIDTH 3 0
BBX 4 6 0 0
BITMAP
25
00
68
D8
D0
A0
ENDCHAR
STARTCHAR uni0436.end
ENCODING -1
SWIDTH 848 0
DWIDTH 7 0
BBX 7 4 0 0
BITMAP
6768
2B90
6690
A664
ENDCHAR
STARTCHAR uni0437.end
ENCODING -1
SWIDTH 426 0
DWIDTH 3 0
BBX 4 6 0 -2
BITMAP
6D
4D
28
18
68
74
ENDCHAR
STARTCHAR uni0438.end
ENCODING -1
SWIDTH 459 0
DWIDTH 4 0
BBX 4 4 0 0
BITMAP
AA
99
DC
ED
ENDCHAR
STARTCHAR uni0439.end
ENCODING -1
SWIDTH 459 0
DWIDTH 4 0
BBX 4 6 0 0
BITMAP
11
14
AA
99
DC
ED
ENDCHAR
STARTCHAR uni043A.end
ENCODING -1
SWIDTH 501 0
DWIDTH 4 0
BBX 5 4 -1 0
BITMAP
2980
2E00
3700
7340
ENDCHAR
STARTCHAR uni043B.end
ENCODING -1
SWIDTH 511 0
DWIDTH 4 0
BBX 4 4 0 0
BITMAP
0B
16
6A
96
ENDCHAR
STARTCHAR uni043C.end
ENCODING -1
SWIDTH 780 0
DWIDTH 6 0
BBX 6 4 0 0
BITMAP
0D70
19B0
5AA0
9660
ENDCHAR
STARTCHAR uni043D.end
ENCODING -1
SWIDTH 460 0
DWIDTH 4 0
BBX 5 4 -1 0
BITMAP
2A80
2B40
3300
7340
ENDCHAR
STARTCHAR uni043E.end
ENCODING -1
SWIDTH 439 0
DWIDTH 4 0
BBX 3 4 0 0
BITMAP
68
98
C8
A4
ENDCHAR
STARTCHAR uni043F.end
ENCODING -1
SWIDTH 454 0
DWIDTH 4 0
BBX 5 4 -1 0
BITMAP
2F40
2640
3700
7340
ENDCHAR
STARTCHAR uni0441.end
ENCODING -1
SWIDTH 341 0
DWIDTH 3 0
BBX 3 4 0 0
BITMAP
68
D0
C0
E4
ENDCHAR
STARTCHAR uni0442.end
ENCODING -1
SWIDTH 701 0
DWIDTH 6 0
BBX 7 4 -1 0
BITMAP
2FB4
2664
3730
7734
ENDCHAR
STARTCHAR uni0443.end
ENCODING -1
SWIDTH 460 0
DWIDTH 4 0
BBX 4 6 0 -2
BITMAP
AA
99
DC
EC
68
74
ENDCHAR
STARTCHAR uni0445.end
ENCODING -1
SWIDTH 500 0
DWIDTH 4 0
BBX 4 4 0 0
BITMAP
2A
5D
5C
59
ENDCHAR
STARTCHAR uni0447.end
ENCODING -1
SWIDTH 459 0
DWIDTH 4 0
BBX 4 4 0 0
BITMAP
AA
9D
6C
0D
ENDCHAR
STARTCHAR uni0448.end
ENCODING -1
SWIDTH 706 0
DWIDTH 6 0
BBX 6 4 0 0
BITMAP
AAA0
9990
DDC0
EED0
ENDCHAR
STARTCHAR uni044B.end
ENCODING -1
SWIDTH 608 0
DWIDTH 5 0
BBX 5 4 0 0
BITMAP
A180
AA80
CA40
A680
ENDCHAR
STARTCHAR uni0455.end
ENCODING -1
SWIDTH 316 0
DWIDTH 3 0
BBX 3 4 0 0
BITMAP
34
64
A4
A4
ENDCHAR
STARTCHAR uni0456.end
ENCODING -1
SWIDTH 209 0
DWIDTH 2 0
BBX 2 6 0 0
BITMAP
60
00
A0
90
D0
D0
ENDCHAR
STARTCHAR uni0458.end
ENCODING -1
SWIDTH 213 0
DWIDTH 2 0
BBX 4 8 -2 -2
BITMAP
06
00
0A
09
0D
1C
68
74
ENDCHAR
STARTCHAR uni044E.end
ENCODING -1
SWIDTH 675 0
DWIDTH 5 0
BBX 6 4 -1 0
BITMAP
29A0
2B60
3720
7390
ENDCHAR
STARTCHAR uni044F.end
ENCODING -1
SWIDTH 480 0
DWIDTH 4 0
BBX 4 4 0 0
BITMAP
2A
6A
69
9A
ENDCHAR
STARTCHAR uni0437.init
ENCODING -1
SWIDTH 455 0
DWIDTH 4 0
BBX 4 6 0 -2
BITMAP
68
1C
75
29
74
A0
ENDCHAR
STARTCHAR uni0445.init
ENCODING -1
SWIDTH 390 0
DWIDTH 3 0
BBX 5 5 -1 0
BITMAP
0200
2600
1D00
2C40
5A00
ENDCHAR
STARTCHAR uni0436.loclBGR
ENCODING -1
SWIDTH 882 0
DWIDTH 7 0
BBX 7 6 0 0
BITMAP
0140
0240
6768
2B90
6690
A664
ENDCHAR
STARTCHAR uni043A.loclBGR
ENCODING -1
SWIDTH 518 0
DWIDTH 4 0
BBX 5 6 -1 0
BITMAP
0400
1800
2940
2F00
3740
7280
ENDCHAR
STARTCHAR uni044E.loclBGR
ENCODING -1
SWIDTH 675 0
DWIDTH 5 0
BBX 7 6 -1 0
BITMAP
0400
1800
29A0
2B64
3720
7390
ENDCHAR
STARTCHAR uni0493.loclBSH
ENCODING -1
SWIDTH 398 0
DWIDTH 3 0
BBX 4 4 -1 0
BITMAP
2A
34
74
34
ENDCHAR
STARTCHAR uni04AB.loclCHU
ENCODING -1
SWIDTH 384 0
DWIDTH 3 0
BBX 3 6 0 -2
BITMAP
68
90
D4
B4
14
10
ENDCHAR
STARTCHAR uni0453.loclMKD
ENCODING -1
SWIDTH 267 0
DWIDTH 2 0
BBX 3 7 0 0
BITMAP
04
74
00
A0
90
D0
E0
ENDCHAR
STARTCHAR uni0433.loclSRB
ENCODING -1
SWIDTH 267 0
DWIDTH 2 0
BBX 3 6 0 0
BITMAP
64
00
A0
90
D0
E0
ENDCHAR
STARTCHAR uni043F.loclSRB
ENCODING -1
SWIDTH 505 0
DWIDTH 4 0
BBX 4 6 0 0
BITMAP
29
00
AA
99
DD
EE
ENDCHAR
STARTCHAR uni0442.loclSRB
ENCODING -1
SWIDTH 752 0
DWIDTH 6 0
BBX 6 5 0 0
BITMAP
2A90
AAA0
9990
DDD0
EEE0
ENDCHAR
STARTCHAR uni04150437
ENCODING -1
SWIDTH 940 0
DWIDTH 8 0
BBX 8 8 0 -2
BITMAP
1A00
3200
2468
6058
E171
B829
0074
00A0
ENDCHAR
STARTCHAR uni04150445
ENCODING -1
SWIDTH 797 0
DWIDTH 6 0
BBX 7 6 0 0
BITMAP
1A00
3120
25D0
A0D0
E1D4
B9A0
ENDCHAR
STARTCHAR uni04010437
ENCODING -1
SWIDTH 940 0
DWIDTH 8 0
BBX 8 9 0 -2
BITMAP
0940
1A00
3200
2468
6058
E171
B829
0074
00A0
ENDCHAR
STARTCHAR uni04010445
ENCODING -1
SWIDTH 797 0
DWIDTH 6 0
BBX 7 8 0 0
BITMAP
0940
0000
1A00
3120
25D0
A0D0
E1D4
B9A0
ENDCHAR
STARTCHAR uni04210437
ENCODING -1
SWIDTH 973 0
DWIDTH 8 0
BBX 8 8 0 -2
BITMAP
1A00
7100
A06C
A04C
A175
7929
0068
0064
ENDCHAR
STARTCHAR uni04210445
ENCODING -1
SWIDTH 814 0
DWIDTH 7 0
BBX 7 6 0 0
BITMAP
1A00
7154
A0D4
A0E0
A0D4
7964
ENDCHAR
STARTCHAR uni04040437
ENCODING -1
SWIDTH 973 0
DWIDTH 8 0
BBX 8 8 0 -2
BITMAP
1A00
7100
B86C
A04C
A175
7929
0068
0064
ENDCHAR
STARTCHAR uni04040445
ENCODING -1
SWIDTH 814 0
DWIDTH 7 0
BBX 7 6 0 0
BITMAP
1A00
7154
B9D4
A0E0
A0D4
7964
ENDCHAR
STARTCHAR uni04300445
ENCODING -1
SWIDTH 899 0
DWIDTH 7 0
BBX 7 5 0 0
BITMAP
0004
6AA8
9A74
CD70
EA68
ENDCHAR
STARTCHAR uni04300447
ENCODING -1
SWIDTH 993 0
DWIDTH 8 0
BBX 8 4 0 0
BITMAP
6A99
9ADD
CDAC
E90E
ENDCHAR
STARTCHAR uni04310433
ENCODING -1
SWIDTH 816 0
DWIDTH 7 0
BBX 6 6 0 0
BITMAP
2F40
1800
29B0
9970
C9C0
A5E0
ENDCHAR
STARTCHAR uni04310453
ENCODING -1
SWIDTH 816 0
DWIDTH 7 0
BBX 6 6 0 0
BITMAP
2F60
1810
29B0
9970
C9C0
A5E0
ENDCHAR
STARTCHAR uni04310451
ENCODING -1
SWIDTH 814 0
DWIDTH 7 0
BBX 7 6 0 0
BITMAP
2E58
1800
2CA4
99D4
CA90
A5E0
ENDCHAR
STARTCHAR uni04310436
ENCODING -1
SWIDTH 1261 0
DWIDTH 10 0
BBX 10 6 0 0
BITMAP
2F4000
180000
29A9A0
997E80
C85D80
A69C90
ENDCHAR
STARTCHAR uni04310439
ENCODING -1
SWIDTH 935 0
DWIDTH 7 0
BBX 8 6 0 0
BITMAP
2F54
1854
28DC
9998
CAA8
A5A9
ENDCHAR
STARTCHAR uni0431045E
ENCODING -1
SWIDTH 916 0
DWIDTH 7 0
BBX 8 8 0 -2
BITMAP
2F54
1854
28DC
9998
CAA8
A5B9
0070
00A0
ENDCHAR
STARTCHAR uni0431044D
ENCODING -1
SWIDTH 860 0
DWIDTH 7 0
BBX 7 6 0 0
BITMAP
2F40
1800
2DB4
9A74
C934
A690
ENDCHAR
STARTCHAR uni04310456
ENCODING -1
SWIDTH 697 0
DWIDTH 6 0
BBX 6 6 0 0
BITMAP
2E90
1400
28C0
9980
CA80
A5D0
ENDCHAR
STARTCHAR uni04310457
ENCODING -1
SWIDTH 697 0
DWIDTH 6 0
BBX 6 6 0 0
BITMAP
2EA0
1800
2CC0
9980
CA80
A5D0
ENDCHAR
STARTCHAR uni04310458
ENCODING -1
SWIDTH 669 0
DWIDTH 5 0
BBX 6 8 0 -2
BITMAP
2E90
1400
28C0
9980
CA80
A690
0740
0A00
ENDCHAR
STARTCHAR uni04320433
ENCODING -1
SWIDTH 837 0
DWIDTH 7 0
BBX 7 6 0 0
BITMAP
1800
6500
A5B0
DD70
C9C0
A5E4
ENDCHAR
STARTCHAR uni04320453
ENCODING -1
SWIDTH 837 0
DWIDTH 7 0
BBX 7 6 0 0
BITMAP
1820
6510
A5B0
DD70
C9C0
A5E4
ENDCHAR
STARTCHAR uni04320436
ENCODING -1
SWIDTH 1279 0
DWIDTH 10 0
BBX 11 6 0 0
BITMAP
180000
650000
95A6A4
D83AC0
C86D80
A69CA0
ENDCHAR
STARTCHAR uni04320437
ENCODING -1
SWIDTH 824 0
DWIDTH 7 0
BBX 7 8 0 -2
BITMAP
1800
6500
95A0
DD70
C9C4
A4A4
01D0
0280
ENDCHAR
STARTCHAR uni04320445
ENCODING -1
SWIDTH 851 0
DWIDTH 7 0
BBX 7 6 0 0
BITMAP
1800
6500
95D8
DDA4
C8A0
A574
ENDCHAR
STARTCHAR uni04330437
ENCODING -1
SWIDTH 840 0
DWIDTH 7 0
BBX 7 6 0 -2
BITMAP
79B0
6530
95D4
E4A4
01A0
0280
ENDCHAR
STARTCHAR uni04330445
ENCODING -1
SWIDTH 740 0
DWIDTH 6 0
BBX 6 5 0 0
BITMAP
0020
7B50
6680
9280
E4E0
ENDCHAR
STARTCHAR uni04330447
ENCODING -1
SWIDTH 880 0
DWIDTH 7 0
BBX 7 4 0 0
BITMAP
7AA8
6674
96B4
E438
ENDCHAR
STARTCHAR uni04530437
ENCODING -1
SWIDTH 840 0
DWIDTH 7 0
BBX 7 8 0 -2
BITMAP
0800
0400
79B0
6530
95D4
E4A4
01A0
0280
ENDCHAR
STARTCHAR uni04530445
ENCODING -1
SWIDTH 740 0
DWIDTH 6 0
BBX 6 6 0 0
BITMAP
0800
0020
7B50
6680
9280
E4E0
ENDCHAR
STARTCHAR uni04530447
ENCODING -1
SWIDTH 880 0
DWIDTH 7 0
BBX 7 6 0 0
BITMAP
0800
0400
7AA8
6674
96B4
E438
ENDCHAR
STARTCHAR uni04340447
ENCODING -1
SWIDTH 1010 0
DWIDTH 8 0
BBX 8 6 0 -2
BITMAP
6AAA
9A99
CDAD
ED0E
6C00
6400
ENDCHAR
STARTCHAR uni04340458
ENCODING -1
SWIDTH 746 0
DWIDTH 6 0
BBX 6 8 0 -2
BITMAP
0060
0000
6AA0
9A90
CDD0
EDD0
2D80
7B40
ENDCHAR
STARTCHAR uni04350437
ENCODING -1
SWIDTH 876 0
DWIDTH 7 0
BBX 7 6 0 -2
BITMAP
68B4
9934
D5A0
A464
01A0
0190
ENDCHAR
STARTCHAR uni04350445
ENCODING -1
SWIDTH 762 0
DWIDTH 6 0
BBX 6 5 0 0
BITMAP
0010
6AA0
9990
D1C0
A9E0
ENDCHAR
STARTCHAR uni04350447
ENCODING -1
SWIDTH 889 0
DWIDTH 7 0
BBX 7 4 0 0
BITMAP
69A8
9A64
D6B4
A428
ENDCHAR
STARTCHAR uni04510437
ENCODING -1
SWIDTH 876 0
DWIDTH 7 0
BBX 7 7 0 -2
BITMAP
2500
68B4
9934
D5A0
A464
01A0
0190
ENDCHAR
STARTCHAR uni04510445
ENCODING -1
SWIDTH 762 0
DWIDTH 6 0
BBX 6 6 0 0
BITMAP
2500
0010
6AA0
9990
D1C0
A9E0
ENDCHAR
STARTCHAR uni04510447
ENCODING -1
SWIDTH 889 0
DWIDTH 7 0
BBX 7 6 0 0
BITMAP
2500
0000
69A8
9A64
D6B4
A428
ENDCHAR
STARTCHAR uni04360447
ENCODING -1
SWIDTH 1392 0
DWIDTH 11 0
BBX 11 4 0 0
BITMAP
676AA8
2B92B4
6696B4
A66428
ENDCHAR
STARTCHAR uni04370437
ENCODING -1
SWIDTH 921 0
DWIDTH 7 0
BBX 8 6 0 -2
BITMAP
6DB8
4D28
2971
1D34
68B0
64A0
ENDCHAR
STARTCHAR uni04380447
ENCODING -1
SWIDTH 1010 0
DWIDTH 8 0
BBX 8 4 0 0
BITMAP
AAAA
9999
DDAD
EE0A
ENDCHAR
STARTCHAR uni04390447
ENCODING -1
SWIDTH 1010 0
DWIDTH 8 0
BBX 8 6 0 0
BITMAP
1100
1400
AAAA
9999
DDAD
EE0A
ENDCHAR
STARTCHAR uni043A0447
ENCODING -1
SWIDTH 1016 0
DWIDTH 8 0
BBX 9 4 -1 0
BITMAP
299980
2E2A40
372B40
738280
ENDCHAR
STARTCHAR uni045C0447
ENCODING -1
SWIDTH 1016 0
DWIDTH 8 0
BBX 9 6 -1 0
BITMAP
020000
010000
299980
2E2A40
372B40
738280
ENDCHAR
STARTCHAR uni043B0447
ENCODING -1
SWIDTH 1061 0
DWIDTH 8 0
BBX 9 4 0 0
BITMAP
0B3700
167600
6A6A40
964640
ENDCHAR
STARTCHAR uni043C0447
ENCODING -1
SWIDTH 1276 0
DWIDTH 10 0
BBX 11 4 0 0
BITMAP
1CA660
1DDAA0
5EDAD4
9DA0A0
ENDCHAR
STARTCHAR uni043D0447
ENCODING -1
SWIDTH 1011 0
DWIDTH 8 0
BBX 9 4 -1 0
BITMAP
2AAA80
2B6B40
336B40
728380
ENDCHAR
STARTCHAR uni043E0433
ENCODING -1
SWIDTH 804 0
DWIDTH 6 0
BBX 6 4 0 0
BITMAP
69B0
9970
C980
A5E0
ENDCHAR
STARTCHAR uni043E0453
ENCODING -1
SWIDTH 804 0
DWIDTH 6 0
BBX 7 6 0 0
BITMAP
0014
0010
69B0
9970
C980
A5E0
ENDCHAR
STARTCHAR uni043E0436
ENCODING -1
SWIDTH 1271 0
DWIDTH 10 0
BBX 10 4 0 0
BITMAP
69A6A0
993E80
C96D80
A69C90
ENDCHAR
STARTCHAR uni043E0437
ENCODING -1
SWIDTH 837 0
DWIDTH 7 0
BBX 7 6 0 -2
BITMAP
69A0
9970
C9D4
A4A4
01A0
02C0
ENDCHAR
STARTCHAR uni043E043B
ENCODING -1
SWIDTH 992 0
DWIDTH 8 0
BBX 8 4 0 0
BITMAP
682D
982D
C95C
AA8E
ENDCHAR
STARTCHAR uni043E043C
ENCODING -1
SWIDTH 1207 0
DWIDTH 10 0
BBX 10 4 0 0
BITMAP
6824D0
983AC0
C96A80
AA9DD0
ENDCHAR
STARTCHAR uni043E0445
ENCODING -1
SWIDTH 850 0
DWIDTH 7 0
BBX 7 4 0 0
BITMAP
68D8
99A0
C9A0
A674
ENDCHAR
STARTCHAR uni043E0459
ENCODING -1
SWIDTH 1179 0
DWIDTH 9 0
BBX 9 4 0 0
BITMAP
682D00
982E80
C95CC0
AA8E40
ENDCHAR
STARTCHAR uni043E044D
ENCODING -1
SWIDTH 867 0
DWIDTH 7 0
BBX 7 4 0 0
BITMAP
69B4
9968
C934
A6A0
ENDCHAR
STARTCHAR uni043F0447
ENCODING -1
SWIDTH 1010 0
DWIDTH 8 0
BBX 9 4 -1 0
BITMAP
2F6A80
266640
376B40
728280
ENDCHAR
STARTCHAR uni04400437
ENCODING -1
SWIDTH 890 0
DWIDTH 7 0
BBX 9 6 -1 -2
BITMAP
2A6D00
268900
326840
7A1D00
602C00
906400
ENDCHAR
STARTCHAR uni04410437
ENCODING -1
SWIDTH 876 0
DWIDTH 7 0
BBX 8 6 0 -2
BITMAP
68B4
9134
C1A1
A464
01A0
0190
ENDCHAR
STARTCHAR uni04410445
ENCODING -1
SWIDTH 755 0
DWIDTH 6 0
BBX 6 5 0 0
BITMAP
0010
6A60
D190
C2C0
A9E0
ENDCHAR
STARTCHAR uni04410447
ENCODING -1
SWIDTH 889 0
DWIDTH 7 0
BBX 7 4 0 0
BITMAP
69A8
9264
C6B4
A428
ENDCHAR
STARTCHAR uni0441044A
ENCODING -1
SWIDTH 841 0
DWIDTH 7 0
BBX 7 4 0 0
BITMAP
6A90
91E4
C2A8
A5A0
ENDCHAR
STARTCHAR uni04420447
ENCODING -1
SWIDTH 1257 0
DWIDTH 10 0
BBX 11 4 -1 0
BITMAP
2FB6A8
266674
3732B4
773838
ENDCHAR
STARTCHAR uni04430447
ENCODING -1
SWIDTH 989 0
DWIDTH 8 0
BBX 8 6 0 -2
BITMAP
AA99
99DD
DDAC
ED0E
6800
6400
ENDCHAR
STARTCHAR uni04430458
ENCODING -1
SWIDTH 725 0
DWIDTH 6 0
BBX 6 8 0 -2
BITMAP
0060
0000
AA90
99D0
DDD0
EDD0
6A80
7B40
ENDCHAR
STARTCHAR uni045E0447
ENCODING -1
SWIDTH 989 0
DWIDTH 8 0
BBX 8 8 0 -2
BITMAP
1100
1400
AA99
99DD
DDAC
ED0E
6800
6400
ENDCHAR
STARTCHAR uni045E0458
ENCODING -1
SWIDTH 725 0
DWIDTH 6 0
BBX 6 8 0 -2
BITMAP
1110
1450
AA90
99D0
DDD0
EDD0
6A80
7B40
ENDCHAR
STARTCHAR uni04440437
ENCODING -1
SWIDTH 1148 0
DWIDTH 9 0
BBX 10 8 0 -2
BITMAP
010000
070000
6A9B40
996240
CC9A10
EE8340
180B00
141A00
ENDCHAR
STARTCHAR uni04450447
ENCODING -1
SWIDTH 1027 0
DWIDTH 8 0
BBX 8 4 0 0
BITMAP
2A66
5DAA
5CAD
5A0A
ENDCHAR
STARTCHAR uni0445044A
ENCODING -1
SWIDTH 1006 0
DWIDTH 8 0
BBX 8 5 0 0
BITMAP
0100
2A64
5D39
5CA6
5AA8
ENDCHAR
STARTCHAR uni04470447
ENCODING -1
SWIDTH 1010 0
DWIDTH 8 0
BBX 8 4 0 0
BITMAP
AAAA
9D99
6DAD
0E0A
ENDCHAR
STARTCHAR uni04480447
ENCODING -1
SWIDTH 1257 0
DWIDTH 10 0
BBX 10 4 0 0
BITMAP
AAAAA0
9999D0
DDDAD0
EEE0E0
ENDCHAR
STARTCHAR uni045F0447
ENCODING -1
SWIDTH 1010 0
DWIDTH 8 0
BBX 8 6 0 -2
BITMAP
AAAA
9999
DDAD
EE0A
2000
2400
ENDCHAR
STARTCHAR uni044B0447
ENCODING -1
SWIDTH 1157 0
DWIDTH 9 0
BBX 9 4 0 0
BITMAP
A19980
AAAA80
CA6B40
A68280
ENDCHAR
STARTCHAR uni04550437
ENCODING -1
SWIDTH 840 0
DWIDTH 7 0
BBX 7 6 0 -2
BITMAP
35A0
6530
6DD4
B4A4
01A0
0280
ENDCHAR
STARTCHAR uni04550445
ENCODING -1
SWIDTH 727 0
DWIDTH 6 0
BBX 6 5 0 0
BITMAP
1010
3750
6680
AA90
A5D0
ENDCHAR
STARTCHAR uni04550447
ENCODING -1
SWIDTH 909 0
DWIDTH 7 0
BBX 7 4 0 0
BITMAP
3598
66A8
AAB4
A428
ENDCHAR
STARTCHAR uni04540437
ENCODING -1
SWIDTH 876 0
DWIDTH 7 0
BBX 8 6 0 -2
BITMAP
68B4
A534
C1A1
A464
01A0
0190
ENDCHAR
STARTCHAR uni04540445
ENCODING -1
SWIDTH 755 0
DWIDTH 6 0
BBX 6 5 0 0
BITMAP
0010
6A60
E5D0
C2C0
A8E0
ENDCHAR
STARTCHAR uni04540447
ENCODING -1
SWIDTH 889 0
DWIDTH 7 0
BBX 7 4 0 0
BITMAP
69A8
A6B4
C6B4
A428
ENDCHAR
STARTCHAR uni044D0437
ENCODING -1
SWIDTH 837 0
DWIDTH 7 0
BBX 7 6 0 -2
BITMAP
69A0
2D70
59D4
A0A4
01A0
0280
ENDCHAR
STARTCHAR uni04560447
ENCODING -1
SWIDTH 763 0
DWIDTH 6 0
BBX 6 6 0 0
BITMAP
6000
0000
A6A0
9A90
DAD0
E0A0
ENDCHAR
STARTCHAR uni04570447
ENCODING -1
SWIDTH 763 0
DWIDTH 6 0
BBX 6 6 0 0
BITMAP
9400
0000
A6A0
9A90
DAD0
E0A0
ENDCHAR
STARTCHAR uni04570457
ENCODING -1
SWIDTH 543 0
DWIDTH 4 0
BBX 5 6 0 0
BITMAP
A580
0000
A600
9A00
DD00
EA00
ENDCHAR
STARTCHAR uni04580447
ENCODING -1
SWIDTH 743 0
DWIDTH 6 0
BBX 8 8 -2 -2
BITMAP
0600
0000
0A99
09DD
0DAC
1D0E
6800
6400
ENDCHAR
STARTCHAR uni04580458
ENCODING -1
SWIDTH 480 0
DWIDTH 4 0
BBX 6 8 -2 -2
BITMAP
0660
0000
0AA0
09D0
0DD0
1DD0
6A80
7B40
ENDCHAR
STARTCHAR uni045B0447
ENCODING -1
SWIDTH 990 0
DWIDTH 8 0
BBX 9 8 -1 -2
BITMAP
080000
2D0000
2A2640
277740
336B00
774340
1A0000
190000
ENDCHAR
STARTCHAR uni045B0458
ENCODING -1
SWIDTH 722 0
DWIDTH 6 0
BBX 7 8 -1 -2
BITMAP
0818
2D00
2A24
2774
3374
7774
1AA0
1ED0
ENDCHAR
STARTCHAR uni044E0433
ENCODING -1
SWIDTH 1050 0
DWIDTH 8 0
BBX 10 4 -1 0
BITMAP
29A6C0
2B65C0
372610
739A40
ENDCHAR
STARTCHAR uni044E0453
ENCODING -1
SWIDTH 1050 0
DWIDTH 8 0
BBX 10 6 -1 0
BITMAP
000090
000040
29A6C0
2B65C0
372610
739A40
ENDCHAR
STARTCHAR uni044E0436
ENCODING -1
SWIDTH 1507 0
DWIDTH 12 0
BBX 13 4 -1 0
BITMAP
29A6A680
2B61BA00
37257600
739A7640
ENDCHAR
STARTCHAR uni044E0437
ENCODING -1
SWIDTH 1073 0
DWIDTH 9 0
BBX 10 6 -1 -2
BITMAP
29A680
2B65C0
372710
739290
000740
000A00
ENDCHAR
STARTCHAR uni044E043B
ENCODING -1
SWIDTH 1228 0
DWIDTH 10 0
BBX 11 4 -1 0
BITMAP
29A0B4
2B6070
372570
73AA34
ENDCHAR
STARTCHAR uni044E043C
ENCODING -1
SWIDTH 1443 0
DWIDTH 12 0
BBX 13 4 -1 0
BITMAP
29A0D700
2B60DB00
3725AA00
73A9A740
ENDCHAR
STARTCHAR uni044E0445
ENCODING -1
SWIDTH 1088 0
DWIDTH 9 0
BBX 10 4 -1 0
BITMAP
29A750
2B6680
372690
7389D0
ENDCHAR
STARTCHAR uni044E0459
ENCODING -1
SWIDTH 1415 0
DWIDTH 11 0
BBX 12 4 -1 0
BITMAP
29A0B4
2B607A
372577
73AA39
ENDCHAR
STARTCHAR uni044E044D
ENCODING -1
SWIDTH 1103 0
DWIDTH 9 0
BBX 10 4 -1 0
BITMAP
29A6D0
2B65D0
3724D0
739A40
ENDCHAR
STARTCHAR uni044F0447
ENCODING -1
SWIDTH 1030 0
DWIDTH 8 0
BBX 9 4 0 0
BITMAP
2A6600
6AAA00
69AD40
9A0A00
ENDCHAR
STARTCHAR uni04300445.liga
ENCODING -1
SWIDTH 884 0
DWIDTH 7 0
BBX 7 5 0 0
BITMAP
0004
6AA8
9A74
CD70
EA64
ENDCHAR
STARTCHAR uni04300447.liga
ENCODING -1
SWIDTH 947 0
DWIDTH 8 0
BBX 8 4 0 0
BITMAP
6A99
9ADD
CDAC
E90D
ENDCHAR
STARTCHAR uni04310451.liga
ENCODING -1
SWIDTH 746 0
DWIDTH 6 0
BBX 7 6 0 0
BITMAP
2E58
1800
2CA4
99D4
CA90
A5D0
ENDCHAR
STARTCHAR uni04310436.liga
ENCODING -1
SWIDTH 1258 0
DWIDTH 10 0
BBX 10 6 0 0
BITMAP
2F4000
180000
29A9A0
997E80
C85D80
A69C90
ENDCHAR
STARTCHAR uni04310439.liga
ENCODING -1
SWIDTH 901 0
DWIDTH 7 0
BBX 7 6 0 0
BITMAP
2F54
1854
28DC
9998
CAA8
A5A8
ENDCHAR
STARTCHAR uni0431045E.liga
ENCODING -1
SWIDTH 890 0
DWIDTH 7 0
BBX 7 8 0 -2
BITMAP
2F54
1854
28DC
9998
CAA8
A5B4
0070
00A0
ENDCHAR
STARTCHAR uni04310456.liga
ENCODING -1
SWIDTH 639 0
DWIDTH 5 0
BBX 6 6 0 0
BITMAP
2E90
1400
28C0
9980
CA80
A580
ENDCHAR
STARTCHAR uni04310457.liga
ENCODING -1
SWIDTH 638 0
DWIDTH 5 0
BBX 6 6 0 0
BITMAP
2EA0
1800
2CC0
9980
CA80
A580
ENDCHAR
STARTCHAR uni04310458.liga
ENCODING -1
SWIDTH 638 0
DWIDTH 5 0
BBX 6 8 0 -2
BITMAP
2E90
1400
28C0
9980
CA80
A640
0740
0A00
ENDCHAR
STARTCHAR uni04320436.liga
ENCODING -1
SWIDTH 1275 0
DWIDTH 10 0
BBX 11 6 0 0
BITMAP
180000
650000
95A6A4
D83AC0
C86D80
A69C90
ENDCHAR
STARTCHAR uni04320437.liga
ENCODING -1
SWIDTH 752 0
DWIDTH 6 0
BBX 6 8 0 -2
BITMAP
1800
6500
95A0
DD70
C9D0
A490
01D0
0280
ENDCHAR
STARTCHAR uni04320445.liga
ENCODING -1
SWIDTH 842 0
DWIDTH 7 0
BBX 7 6 0 0
BITMAP
1800
6500
95D8
DDA4
C8A0
A570
ENDCHAR
STARTCHAR uni04330437.liga
ENCODING -1
SWIDTH 768 0
DWIDTH 6 0
BBX 6 6 0 -2
BITMAP
79B0
6530
95D0
E4A0
0190
02C0
ENDCHAR
STARTCHAR uni04330445.liga
ENCODING -1
SWIDTH 725 0
DWIDTH 6 0
BBX 6 5 0 0
BITMAP
0020
7B50
6680
9280
E4D0
ENDCHAR
STARTCHAR uni04330447.liga
ENCODING -1
SWIDTH 834 0
DWIDTH 7 0
BBX 7 4 0 0
BITMAP
7AA8
6674
96B0
E434
ENDCHAR
STARTCHAR uni04530437.liga
ENCODING -1
SWIDTH 768 0
DWIDTH 6 0
BBX 6 8 0 -2
BITMAP
0800
0400
79B0
6530
95D0
E4A0
0190
02C0
ENDCHAR
STARTCHAR uni04530445.liga
ENCODING -1
SWIDTH 725 0
DWIDTH 6 0
BBX 6 6 0 0
BITMAP
0800
0020
7B50
6680
9280
E4D0
ENDCHAR
STARTCHAR uni04530447.liga
ENCODING -1
SWIDTH 834 0
DWIDTH 7 0
BBX 7 6 0 0
BITMAP
0800
0400
7AA8
6674
96B0
E434
ENDCHAR
STARTCHAR uni04340447.liga
ENCODING -1
SWIDTH 965 0
DWIDTH 8 0
BBX 8 6 0 -2
BITMAP
6AAA
9A99
CDAD
ED0D
6C00
6400
ENDCHAR
STARTCHAR uni04340458.liga
ENCODING -1
SWIDTH 715 0
DWIDTH 6 0
BBX 6 8 0 -2
BITMAP
0060
0000
6AA0
9A90
CDD0
EDC0
2D80
7B40
ENDCHAR
STARTCHAR uni04350437.liga
ENCODING -1
SWIDTH 804 0
DWIDTH 6 0
BBX 7 6 0 -2
BITMAP
68B4
9534
C1A0
A460
01A0
0190
ENDCHAR
STARTCHAR uni04350445.liga
ENCODING -1
SWIDTH 747 0
DWIDTH 6 0
BBX 6 5 0 0
BITMAP
0010
6AA0
9990
E1C0
A9D0
ENDCHAR
STARTCHAR uni04350447.liga
ENCODING -1
SWIDTH 844 0
DWIDTH 7 0
BBX 7 4 0 0
BITMAP
69A8
9A64
D6B4
A434
ENDCHAR
STARTCHAR uni04510437.liga
ENCODING -1
SWIDTH 804 0
DWIDTH 6 0
BBX 7 7 0 -2
BITMAP
2500
68B4
9534
C1A0
A460
01A0
0190
ENDCHAR
STARTCHAR uni04510445.liga
ENCODING -1
SWIDTH 747 0
DWIDTH 6 0
BBX 6 6 0 0
BITMAP
2500
0010
6AA0
9990
E1C0
A9D0
ENDCHAR
STARTCHAR uni04510447.liga
ENCODING -1
SWIDTH 844 0
DWIDTH 7 0
BBX 7 6 0 0
BITMAP
2500
0000
69A8
9A64
D6B4
A434
ENDCHAR
STARTCHAR uni04360447.liga
ENCODING -1
SWIDTH 1341 0
DWIDTH 11 0
BBX 11 4 0 0
BITMAP
676AA8
2B92B4
6696B4
A66424
ENDCHAR
STARTCHAR uni04370437.liga
ENCODING -1
SWIDTH 849 0
DWIDTH 7 0
BBX 7 6 0 -2
BITMAP
6DB8
4D28
2960
1D30
6870
74A0
ENDCHAR
STARTCHAR uni04380447.liga
ENCODING -1
SWIDTH 964 0
DWIDTH 8 0
BBX 8 4 0 0
BITMAP
AAAA
9999
DDAD
EE09
ENDCHAR
STARTCHAR uni04390447.liga
ENCODING -1
SWIDTH 964 0
DWIDTH 8 0
BBX 8 6 0 0
BITMAP
1100
1400
AAAA
9999
DDAD
EE09
ENDCHAR
STARTCHAR uni043A0447.liga
ENCODING -1
SWIDTH 978 0
DWIDTH 8 0
BBX 9 4 -1 0
BITMAP
299980
2E2A80
372B40
738240
ENDCHAR
STARTCHAR uni045C0447.liga
ENCODING -1
SWIDTH 978 0
DWIDTH 8 0
BBX 9 6 -1 0
BITMAP
020000
010000
299980
2E2A80
372B40
738240
ENDCHAR
STARTCHAR uni043B0447.liga
ENCODING -1
SWIDTH 1015 0
DWIDTH 8 0
BBX 8 4 0 0
BITMAP
0B37
1676
6A6A
9646
ENDCHAR
STARTCHAR uni043C0447.liga
ENCODING -1
SWIDTH 1231 0
DWIDTH 10 0
BBX 10 4 0 0
BITMAP
1CA660
1DDAA0
5EDAD0
9DA0A0
ENDCHAR
STARTCHAR uni043D0447.liga
ENCODING -1
SWIDTH 965 0
DWIDTH 8 0
BBX 9 4 -1 0
BITMAP
2AAA80
2B6B40
336B40
728240
ENDCHAR
STARTCHAR uni043E0436.liga
ENCODING -1
SWIDTH 1268 0
DWIDTH 10 0
BBX 11 4 0 0
BITMAP
69A6A4
993EC0
C96D80
A69C90
ENDCHAR
STARTCHAR uni043E0437.liga
ENCODING -1
SWIDTH 765 0
DWIDTH 6 0
BBX 6 6 0 -2
BITMAP
69A0
9970
C9D0
A490
0190
02C0
ENDCHAR
STARTCHAR uni043E043B.liga
ENCODING -1
SWIDTH 945 0
DWIDTH 8 0
BBX 8 4 0 0
BITMAP
682D
982D
C95C
AA8D
ENDCHAR
STARTCHAR uni043E043C.liga
ENCODING -1
SWIDTH 1161 0
DWIDTH 9 0
BBX 10 4 0 0
BITMAP
6824D0
983AC0
C96A80
AA9DC0
ENDCHAR
STARTCHAR uni043E0445.liga
ENCODING -1
SWIDTH 835 0
DWIDTH 7 0
BBX 7 4 0 0
BITMAP
68D8
99A0
C9A0
A670
ENDCHAR
STARTCHAR uni043F0447.liga
ENCODING -1
SWIDTH 965 0
DWIDTH 8 0
BBX 9 4 -1 0
BITMAP
2F6A80
266640
376B40
728240
ENDCHAR
STARTCHAR uni04400437.liga
ENCODING -1
SWIDTH 818 0
DWIDTH 7 0
BBX 8 6 -1 -2
BITMAP
2A6D
2689
3268
7A1C
606C
9064
ENDCHAR
STARTCHAR uni04410437.liga
ENCODING -1
SWIDTH 804 0
DWIDTH 6 0
BBX 7 6 0 -2
BITMAP
68B4
9134
C1A0
A460
01A0
0190
ENDCHAR
STARTCHAR uni04410445.liga
ENCODING -1
SWIDTH 740 0
DWIDTH 6 0
BBX 6 5 0 0
BITMAP
0010
6A60
D190
C1C0
A9D0
ENDCHAR
STARTCHAR uni04410447.liga
ENCODING -1
SWIDTH 843 0
DWIDTH 7 0
BBX 7 4 0 0
BITMAP
69A8
9264
C6B4
A424
ENDCHAR
STARTCHAR uni04420447.liga
ENCODING -1
SWIDTH 1211 0
DWIDTH 10 0
BBX 11 4 -1 0
BITMAP
2FB6A8
266674
3732B0
773834
ENDCHAR
STARTCHAR uni04430447.liga
ENCODING -1
SWIDTH 943 0
DWIDTH 8 0
BBX 8 6 0 -2
BITMAP
AA99
99DD
DDAC
ED0D
6800
6400
ENDCHAR
STARTCHAR uni04430458.liga
ENCODING -1
SWIDTH 694 0
DWIDTH 6 0
BBX 6 8 0 -2
BITMAP
0060
0000
AA90
99D0
DDC0
EDC0
6A80
7B40
ENDCHAR
STARTCHAR uni045E0447.liga
ENCODING -1
SWIDTH 943 0
DWIDTH 8 0
BBX 8 8 0 -2
BITMAP
1100
1400
AA99
99DD
DDAC
ED0D
6800
6400
ENDCHAR
STARTCHAR uni045E0458.liga
ENCODING -1
SWIDTH 694 0
DWIDTH 6 0
BBX 6 8 0 -2
BITMAP
1110
1450
AA90
99D0
DDC0
EDC0
6A80
7B40
ENDCHAR
STARTCHAR uni04440437.liga
ENCODING -1
SWIDTH 1076 0
DWIDTH 9 0
BBX 9 8 0 -2
BITMAP
010000
070000
6A9B40
996240
CC9A00
EE8700
180700
141900
ENDCHAR
STARTCHAR uni04450447.liga
ENCODING -1
SWIDTH 981 0
DWIDTH 8 0
BBX 8 4 0 0
BITMAP
2A66
5DAA
5CAD
5A09
ENDCHAR
STARTCHAR uni04470447.liga
ENCODING -1
SWIDTH 964 0
DWIDTH 8 0
BBX 8 4 0 0
BITMAP
AAAA
9D99
6DAD
0E09
ENDCHAR
STARTCHAR uni04480447.liga
ENCODING -1
SWIDTH 1211 0
DWIDTH 10 0
BBX 10 4 0 0
BITMAP
AAAAA0
9999D0
DDDAC0
EEE0D0
ENDCHAR
STARTCHAR uni045F0447.liga
ENCODING -1
SWIDTH 964 0
DWIDTH 8 0
BBX 8 6 0 -2
BITMAP
AAAA
9999
DDAD
EE09
2000
2400
ENDCHAR
STARTCHAR uni044B0447.liga
ENCODING -1
SWIDTH 1112 0
DWIDTH 9 0
BBX 9 4 0 0
BITMAP
A19980
AAAA80
CA6B40
A68280
ENDCHAR
STARTCHAR uni04550437.liga
ENCODING -1
SWIDTH 768 0
DWIDTH 6 0
BBX 6 6 0 -2
BITMAP
35A0
6530
6DD0
B4A0
0190
02C0
ENDCHAR
STARTCHAR uni04550445.liga
ENCODING -1
SWIDTH 712 0
DWIDTH 6 0
BBX 6 5 0 0
BITMAP
1010
3750
6680
AA80
A5C0
ENDCHAR
STARTCHAR uni04550447.liga
ENCODING -1
SWIDTH 864 0
DWIDTH 7 0
BBX 7 4 0 0
BITMAP
3598
66A8
AAB4
A428
ENDCHAR
STARTCHAR uni04540437.liga
ENCODING -1
SWIDTH 804 0
DWIDTH 6 0
BBX 7 6 0 -2
BITMAP
68B4
A534
C1A0
A460
01A0
0190
ENDCHAR
STARTCHAR uni04540445.liga
ENCODING -1
SWIDTH 740 0
DWIDTH 6 0
BBX 6 5 0 0
BITMAP
0010
6A60
E5D0
C2C0
A8D0
ENDCHAR
STARTCHAR uni04540447.liga
ENCODING -1
SWIDTH 844 0
DWIDTH 7 0
BBX 7 4 0 0
BITMAP
69A8
A6B4
C6B4
A424
ENDCHAR
STARTCHAR uni044D0437.liga
ENCODING -1
SWIDTH 765 0
DWIDTH 6 0
BBX 6 6 0 -2
BITMAP
69A0
2D70
59D0
A090
0190
02C0
ENDCHAR
STARTCHAR uni04560447.liga
ENCODING -1
SWIDTH 717 0
DWIDTH 6 0
BBX 6 6 0 0
BITMAP
6000
0000
A6A0
9A90
DAD0
E090
ENDCHAR
STARTCHAR uni04570447.liga
ENCODING -1
SWIDTH 718 0
DWIDTH 6 0
BBX 6 6 0 0
BITMAP
9400
0000
A6A0
9A90
DAD0
E090
ENDCHAR
STARTCHAR uni04570457.liga
ENCODING -1
SWIDTH 476 0
DWIDTH 4 0
BBX 5 6 0 0
BITMAP
A580
0000
A600
9A00
DD00
E900
ENDCHAR
STARTCHAR uni04580447.liga
ENCODING -1
SWIDTH 697 0
DWIDTH 6 0
BBX 8 8 -2 -2
BITMAP
0600
0000
0A99
09DD
0DAC
1D0D
6800
6400
ENDCHAR
STARTCHAR uni04580458.liga
ENCODING -1
SWIDTH 449 0
DWIDTH 4 0
BBX 6 8 -2 -2
BITMAP
0660
0000
0AA0
09D0
0DC0
1DC0
6A80
7B40
ENDCHAR
STARTCHAR uni045B0447.liga
ENCODING -1
SWIDTH 937 0
DWIDTH 8 0
BBX 9 8 -1 -2
BITMAP
080000
2D0000
2A2640
277740
336B00
774340
1A0000
190000
ENDCHAR
STARTCHAR uni045B0458.liga
ENCODING -1
SWIDTH 691 0
DWIDTH 6 0
BBX 7 8 -1 -2
BITMAP
0818
2D00
2A24
2774
3370
7760
1AA0
1ED0
ENDCHAR
STARTCHAR uni044E0436.liga
ENCODING -1
SWIDTH 1503 0
DWIDTH 12 0
BBX 13 4 -1 0
BITMAP
29A6A680
2B61BA00
37257600
739A7640
ENDCHAR
STARTCHAR uni044E0437.liga
ENCODING -1
SWIDTH 1001 0
DWIDTH 8 0
BBX 9 6 -1 -2
BITMAP
29A680
2B65C0
372700
739240
000740
000A00
ENDCHAR
STARTCHAR uni044E043B.liga
ENCODING -1
SWIDTH 1181 0
DWIDTH 9 0
BBX 11 4 -1 0
BITMAP
29A0B4
2B6070
372570
73AA30
ENDCHAR
STARTCHAR uni044E043C.liga
ENCODING -1
SWIDTH 1396 0
DWIDTH 11 0
BBX 12 4 -1 0
BITMAP
29A0D7
2B60DB
3725AA
73A9A6
ENDCHAR
STARTCHAR uni044E0445.liga
ENCODING -1
SWIDTH 1072 0
DWIDTH 9 0
BBX 10 4 -1 0
BITMAP
29A750
2B6680
372680
7389C0
ENDCHAR
STARTCHAR uni044F0447.liga
ENCODING -1
SWIDTH 984 0
DWIDTH 8 0
BBX 8 4 0 0
BITMAP
2A66
6AAA
69AD
9A0A
ENDCHAR
STARTCHAR brevecombcy
ENCODING -1
SWIDTH 0 0
DWIDTH 0 0
BBX 2 2 -2 4
BITMAP
40
90
ENDCHAR
STARTCHAR brevecombcy.case
ENCODING -1
SWIDTH 0 0
DWIDTH 0 0
BBX 3 2 -2 6
BITMAP
44
50
ENDCHAR
ENDFONT
